<?xml version="1.0" encoding="UTF-8"?>
<svg version="1.1" xmlns="http://www.w3.org/2000/svg" width="1918" height="956">
<path d="M0 0 C632.94 0 1265.88 0 1918 0 C1918 315.48 1918 630.96 1918 956 C1285.06 956 652.12 956 0 956 C0 640.52 0 325.04 0 0 Z " fill="#FEFEFE" transform="translate(0,0)"/>
<path d="M0 0 C632.94 0 1265.88 0 1918 0 C1918 25.41 1918 50.82 1918 77 C1914.57462394 80.42537606 1914.16920136 80.37503953 1909.59754282 80.3754315 C1908.46541359 80.382807 1907.33328436 80.39018251 1906.16684818 80.39778151 C1904.91423694 80.39060928 1903.66162571 80.38343706 1902.37105656 80.37604749 C1901.02639999 80.37901969 1899.68174579 80.38330762 1898.33709714 80.38879583 C1894.61114866 80.40013512 1890.88543297 80.39260827 1887.15949034 80.38222598 C1883.10255512 80.37421227 1879.04565479 80.38356197 1874.98872316 80.39073652 C1867.84071364 80.400949 1860.69277261 80.39989909 1853.54476154 80.39168589 C1842.84391868 80.37944572 1832.14313176 80.38441779 1821.44228769 80.39283381 C1803.20850774 80.4066632 1784.97475284 80.40616955 1766.74097061 80.39799118 C1748.25264095 80.38974903 1729.7643278 80.38798703 1711.27599716 80.39420319 C1710.11000564 80.3945907 1708.94401412 80.39497822 1707.74268952 80.39537748 C1702.99410367 80.39697722 1698.24551784 80.39862333 1693.49693202 80.40032831 C1649.22458524 80.41621313 1604.95224952 80.41726501 1560.67990112 80.40888596 C1559.36688951 80.40863757 1558.0538779 80.40838918 1556.70107805 80.40813327 C1555.38597985 80.40788448 1554.07088165 80.40763569 1552.71593198 80.40737936 C1544.71268406 80.40586729 1536.70943614 80.40438977 1528.7061882 80.40297651 C1528.0436745 80.40285903 1527.3811608 80.40274155 1526.69857093 80.4026205 C1496.02061995 80.39722086 1465.3426701 80.3985008 1434.66471881 80.40126788 C1431.3197198 80.40156727 1427.97472078 80.40185377 1424.62972177 80.40214171 C1414.5479109 80.40301345 1404.46610003 80.40390427 1394.38428916 80.4048345 C1363.63915282 80.40766833 1332.89401647 80.40946889 1302.14888 80.41037941 C1301.12196006 80.41041032 1301.12196006 80.41041032 1300.07429425 80.41044185 C1255.72536598 80.41175842 1211.37643936 80.40845401 1167.0275116 80.40183067 C1166.3193297 80.40172532 1165.6111478 80.40161996 1164.88150584 80.40151142 C1141.15964828 80.39798219 1117.43779076 80.39421407 1093.71593324 80.39042152 C1021.97619299 80.37895986 950.23645863 80.37267924 822.11992221 80.39076752 C798.40411096 80.39455705 774.6882997 80.39830252 750.9724884 80.40183067 C750.26450705 80.40193641 749.5565257 80.40204214 748.82709036 80.40215108 C704.50176669 80.40876524 660.17644416 80.4117135 615.85112 80.41037941 C614.8245376 80.41034901 614.8245376 80.41034901 613.77721618 80.41031799 C583.04925729 80.4093979 552.32129852 80.40748314 521.59333976 80.4046479 C511.51592618 80.40371922 501.43851259 80.40283622 491.361099 80.40196876 C488.01802778 80.40168078 484.67495656 80.40138872 481.33188534 80.40108718 C450.65252678 80.39832843 419.97316999 80.39753617 389.2938118 80.40297651 C388.30066908 80.40315189 388.30066908 80.40315189 387.28746287 80.4033308 C378.62461588 80.40486627 369.96176891 80.40649444 361.29892195 80.40813327 C359.98591033 80.40838166 358.67289872 80.40863004 357.32009888 80.40888596 C355.35419326 80.40925803 355.35419326 80.40925803 353.34857237 80.40963761 C309.20748442 80.41790047 265.06640977 80.41489254 220.92532372 80.39904372 C216.19155011 80.39738656 211.45777648 80.39577646 206.72400284 80.39420319 C205.5622053 80.39381257 204.40040776 80.39342195 203.20340423 80.39301949 C184.75971322 80.38708756 166.31603866 80.39123768 147.87234912 80.3995102 C129.76473643 80.40741943 111.65715168 80.40470926 93.54954256 80.39046794 C82.91529974 80.38242467 72.28113328 80.38269378 61.646894 80.39491273 C54.60106644 80.40219764 47.55529883 80.39877248 40.50947859 80.38631217 C36.50459829 80.37953794 32.49987098 80.37760219 28.49499707 80.38876172 C24.86825625 80.3987812 21.24180268 80.39524014 17.61508053 80.3804376 C15.687767 80.37617751 13.76043847 80.38674622 11.83315182 80.39778151 C10.70102259 80.39040601 9.56889336 80.3830305 8.40245718 80.3754315 C6.93459211 80.37530565 6.93459211 80.37530565 5.4370732 80.37517725 C3 80 3 80 0 77 C0 51.59 0 26.18 0 0 Z " fill="#0E6CF7" transform="translate(0,0)"/>
<path d="M0 0 C7.23437838 4.55864939 11.16253393 9.45153974 13.74609375 17.6328125 C14.72127602 27.87222634 14.10398939 35.96986465 7.921875 44.3984375 C6.85507905 46.19196048 6.85507905 46.19196048 7.00390625 48.13671875 C8.51015203 51.35676387 11.00916573 53.54229358 13.55859375 55.9453125 C15.38995251 57.69951364 17.19966057 59.46729837 18.99609375 61.2578125 C18.99609375 61.5878125 18.99609375 61.9178125 18.99609375 62.2578125 C2.4047894 63.35346467 2.4047894 63.35346467 -1.0078125 60.69921875 C-1.79639045 59.40574271 -2.57509369 58.10619418 -3.34375 56.80078125 C-6.03859885 54.29615703 -8.68641906 54.94631841 -12.25390625 55.0703125 C-14.22810547 55.15539062 -14.22810547 55.15539062 -16.2421875 55.2421875 C-22.75114788 55.26922368 -27.38835749 53.5374603 -32.28515625 49.26953125 C-39.59882121 41.59813267 -41.58199317 34.89260133 -41.5625 24.40649414 C-41.24198058 16.59656508 -38.61217379 9.92439547 -33.0703125 4.29296875 C-31.11913186 2.7373491 -29.17801091 1.47753657 -27.00390625 0.2578125 C-25.42609375 -0.6703125 -25.42609375 -0.6703125 -23.81640625 -1.6171875 C-15.80688601 -3.98065249 -7.48016651 -3.92537179 0 0 Z " fill="#262A2E" transform="translate(1232.00390625,386.7421875)"/>
<path d="M0 0 C2.22780918 1.9346764 3.68675504 3.37351009 5 6 C5.13362091 10.85807463 4.67980781 14.1412954 1.625 18 C-1 20 -1 20 -4 21 C-4 21.66 -4 22.32 -4 23 C-2.948125 23.309375 -2.948125 23.309375 -1.875 23.625 C1.80173359 25.3834378 4.47295079 27.80428141 7 31 C7 31.66 7 32.32 7 33 C13.56279432 26.96882868 13.59559938 18.36690936 14 10 C15.64574566 9.97311849 17.29161413 9.95365877 18.9375 9.9375 C20.31228516 9.92009766 20.31228516 9.92009766 21.71484375 9.90234375 C24 10 24 10 25 11 C25.6457773 21.17099252 23.37477323 28.85857155 17.20703125 36.9921875 C15.65651254 39.18091777 15.65651254 39.18091777 16 43 C19.1749094 44.9078584 21.10585211 45.1609041 24.75 44.625 C26.1525 44.41875 27.555 44.2125 29 44 C29 46.97 29 49.94 29 53 C24.76194606 55.11902697 20.66723105 55.74392298 16 55 C12.37116142 53.47054915 9.26808949 51.17872633 6 49 C5.33613281 49.34933594 4.67226562 49.69867188 3.98828125 50.05859375 C3.10527344 50.51363281 2.22226563 50.96867187 1.3125 51.4375 C0.00732422 52.11619141 0.00732422 52.11619141 -1.32421875 52.80859375 C-7.95097631 55.75919383 -16.40032623 56.31957854 -23.3828125 54.31640625 C-28.14626318 52.13391269 -31.00731182 49.26231347 -34 45 C-35.75792192 39.72623425 -35.8839195 34.87832893 -33.5 29.8125 C-30.36597028 26.28671656 -26.88030809 23.65593903 -23 21 C-24.2375 19.5459375 -24.2375 19.5459375 -25.5 18.0625 C-28.11830841 14.38493292 -28.70327779 11.55335112 -28.4140625 7.078125 C-27.75375864 3.76414715 -26.53085235 2.2063841 -24 0 C-16.20196873 -4.52285814 -7.82476592 -4.38186891 0 0 Z " fill="#272B2F" transform="translate(1136,387)"/>
<path d="M0 0 C4.29 0 8.58 0 13 0 C15.21972037 8.71890164 17.25554807 17.4631964 19.1875 26.25 C19.59645508 28.10044922 19.59645508 28.10044922 20.01367188 29.98828125 C20.6772545 32.99186575 21.33933905 35.99577176 22 39 C22.15557373 38.38705078 22.31114746 37.77410156 22.47143555 37.14257812 C25.65653011 24.64064365 29.02527582 12.2748835 33 0 C37.62 0 42.24 0 47 0 C51.95 19.8 51.95 19.8 57 40 C59.64 26.8 62.28 13.6 65 0 C69.29 0 73.58 0 78 0 C75.39671474 12.01427665 72.56790429 23.88990141 69.10449219 35.68701172 C67.1362135 42.41604836 65.48661079 49.14507246 64 56 C59.05 56 54.1 56 49 56 C48.51789063 54.04835938 48.03578125 52.09671875 47.5390625 50.0859375 C47.06592755 48.17948196 46.59277508 46.27303072 46.11914062 44.36669922 C45.7924317 43.04985563 45.46657073 41.73280135 45.14160156 40.41552734 C44.67219783 38.51343429 44.19940974 36.61217745 43.7265625 34.7109375 C43.44377441 33.56931152 43.16098633 32.42768555 42.86962891 31.25146484 C42.04052307 27.98895617 42.04052307 27.98895617 40.89208984 24.83056641 C40 22 40 22 40 18 C39.34 18 38.68 18 38 18 C37.9175 19.010625 37.835 20.02125 37.75 21.0625 C36.98711218 27.16560258 35.20630301 33.0339778 33.56591797 38.94628906 C32.60398432 42.43713715 31.67929143 45.93785273 30.75 49.4375 C29.88375 52.6859375 29.88375 52.6859375 29 56 C24.05 56 19.1 56 14 56 C12.28096144 51.70240359 11.12539054 47.60947428 10.125 43.125 C7.95063595 33.63668018 5.45173691 24.25412571 2.859375 14.87109375 C2.67375 14.19191895 2.488125 13.51274414 2.296875 12.81298828 C1.78004448 10.92240379 1.2573885 9.03341461 0.734375 7.14453125 C0 4 0 4 0 0 Z " fill="#262A2E" transform="translate(384,385)"/>
<path d="M0 0 C4.62 0 9.24 0 14 0 C17.55525308 3.7524138 19.4998221 6.34284651 21.875 10.75 C23.05909687 12.76609446 24.24399533 14.78171834 25.4296875 16.796875 C26.60789062 18.84390625 27.78609375 20.8909375 29 23 C32.96 28.94 32.96 28.94 37 35 C37.33 23.45 37.66 11.9 38 0 C41.96 0 45.92 0 50 0 C50 18.48 50 36.96 50 56 C37 56 37 56 33.78125 52.984375 C32.97311051 51.59968778 32.21466203 50.1851677 31.5 48.75 C30.62084145 47.20308808 29.73921647 45.65757598 28.85546875 44.11328125 C28.40349121 43.28908691 27.95151367 42.46489258 27.48583984 41.61572266 C24.81601033 36.91566459 21.78829258 32.44728323 18.8125 27.9375 C16.894375 24.988125 14.97625 22.03875 13 19 C12.67 31.21 12.34 43.42 12 56 C8.04 56 4.08 56 0 56 C0 37.52 0 19.04 0 0 Z " fill="#262A2E" transform="translate(861,385)"/>
<path d="M0 0 C4.65049295 2.59354414 6.56701046 5.07087666 8.5 10 C10.19640735 18.623404 9.80452139 26.09769847 5.25 33.8125 C0.79081461 38.91314594 -2.89446814 40.53162801 -9.5625 41.1875 C-13.75 40.8125 -13.75 40.8125 -20.75 35.8125 C-20.75 43.0725 -20.75 50.3325 -20.75 57.8125 C-24.71 57.8125 -28.67 57.8125 -32.75 57.8125 C-32.75 38.6725 -32.75 19.5325 -32.75 -0.1875 C-28.79 -0.1875 -24.83 -0.1875 -20.75 -0.1875 C-20.42 1.4625 -20.09 3.1125 -19.75 4.8125 C-18.80125 4.008125 -17.8525 3.20375 -16.875 2.375 C-11.54691113 -2.14229274 -6.51661749 -2.06359554 0 0 Z " fill="#262A2E" transform="translate(1523.75,401.1875)"/>
<path d="M0 0 C4.88478796 2.35193495 7.36061943 5.30776787 10 10 C12.46344538 17.78187714 11.65607064 26.74635584 8 34 C4.54159481 38.29963889 0.61873976 41.40533735 -4.94921875 42.3203125 C-10.70366874 42.64913821 -11.47779062 41.68147292 -17 38 C-17.33 44.93 -17.66 51.86 -18 59 C-21.96 59 -25.92 59 -30 59 C-30 39.86 -30 20.72 -30 1 C-26.04 1 -22.08 1 -18 1 C-17.67 2.32 -17.34 3.64 -17 5 C-16.21625 4.360625 -15.4325 3.72125 -14.625 3.0625 C-9.91108604 -0.64128954 -5.86434608 -0.64056703 0 0 Z " fill="#25292D" transform="translate(1472,400)"/>
<path d="M0 0 C5.28 0 10.56 0 16 0 C20.94725924 13.04929248 25.81843257 26.12548867 30.5625 39.25 C31.00384277 40.45688477 31.44518555 41.66376953 31.89990234 42.90722656 C32.30547363 44.03612305 32.71104492 45.16501953 33.12890625 46.328125 C33.67140015 47.82714355 33.67140015 47.82714355 34.22485352 49.35644531 C35 52 35 52 35 56 C30.71 56 26.42 56 22 56 C20.02 50.555 20.02 50.555 18 45 C11.4 44.67 4.8 44.34 -2 44 C-2.474375 45.794375 -2.94875 47.58875 -3.4375 49.4375 C-4.875 54.875 -4.875 54.875 -6 56 C-8.18639453 56.07258946 -10.37500389 56.08373783 -12.5625 56.0625 C-14.35880859 56.04896484 -14.35880859 56.04896484 -16.19140625 56.03515625 C-17.11824219 56.02355469 -18.04507812 56.01195312 -19 56 C-18.33009328 50.08683267 -16.26057058 44.78538742 -14.21875 39.23828125 C-13.84520386 38.21067184 -13.47165771 37.18306244 -13.08679199 36.12431335 C-11.89606408 32.85191014 -10.69819907 29.58217409 -9.5 26.3125 C-8.69352516 24.10108836 -7.88753022 21.88950165 -7.08203125 19.67773438 C-5.94960307 16.56847984 -4.81645397 13.45950951 -3.67956543 10.35188293 C-3.34251587 9.43050034 -3.00546631 8.50911774 -2.65820312 7.55981445 C-2.36143677 6.74962357 -2.06467041 5.93943268 -1.75891113 5.10469055 C-1.14843304 3.41164981 -0.56912832 1.70738496 0 0 Z " fill="#272B2F" transform="translate(1400,385)"/>
<path d="M0 0 C3.67314533 1.45539721 6.42000932 2.99001088 9 6 C9.94875 5.195625 10.8975 4.39125 11.875 3.5625 C15.57329239 0.42699123 17.910102 -0.29123264 22.90234375 -0.21875 C27.05819685 0.21463505 29.99602278 1.92678297 32.8125 4.9375 C35.24383788 9.16035 35.11804413 13.14158568 35.09765625 17.953125 C35.0962413 18.61334656 35.09482635 19.27356812 35.09336853 19.95379639 C35.08779245 22.05257794 35.07524447 24.15125095 35.0625 26.25 C35.0574819 27.67708179 35.05291954 29.10416525 35.04882812 30.53125 C35.03783088 34.02086832 35.0205828 37.51042356 35 41 C31.04 41 27.08 41 23 41 C22.95101562 39.08574219 22.90203125 37.17148437 22.8515625 35.19921875 C22.77653864 32.69529756 22.70099065 30.19139204 22.625 27.6875 C22.5940625 26.42486328 22.563125 25.16222656 22.53125 23.86132812 C22.47324219 22.04858398 22.47324219 22.04858398 22.4140625 20.19921875 C22.3826416 19.08377686 22.3512207 17.96833496 22.31884766 16.8190918 C22.194751 13.79631214 22.194751 13.79631214 20 11 C17.79274927 10.63637182 17.79274927 10.63637182 15.375 10.8125 C14.55773437 10.83957031 13.74046875 10.86664063 12.8984375 10.89453125 C12.27195312 10.92933594 11.64546875 10.96414063 11 11 C9.99841931 14.3789982 9.80421884 17.56276528 9.68359375 21.078125 C9.62075195 22.81835938 9.62075195 22.81835938 9.55664062 24.59375 C9.51732422 25.8003125 9.47800781 27.006875 9.4375 28.25 C9.37272461 30.08304687 9.37272461 30.08304687 9.30664062 31.953125 C9.20062717 34.96861881 9.0998156 37.98429468 9 41 C5.04 41 1.08 41 -3 41 C-3.0093457 40.16750732 -3.01869141 39.33501465 -3.02832031 38.47729492 C-3.07236366 35.38497711 -3.13398775 32.29365054 -3.20751953 29.2019043 C-3.24958649 27.20710869 -3.27137864 25.21191918 -3.29296875 23.21679688 C-3.32519531 21.96318359 -3.35742188 20.70957031 -3.390625 19.41796875 C-3.41157227 18.26063232 -3.43251953 17.1032959 -3.45410156 15.91088867 C-3.73565552 12.91332496 -3.73565552 12.91332496 -5.87792969 11.0949707 C-7.98178149 9.79440008 -7.98178149 9.79440008 -10.5625 10.0625 C-13.58872849 11.22643404 -14.35216985 12.22746964 -16 15 C-16.50184739 17.89560969 -16.50184739 17.89560969 -16.51171875 21.078125 C-16.54716797 22.23828125 -16.58261719 23.3984375 -16.61914062 24.59375 C-16.65297852 26.40359375 -16.65297852 26.40359375 -16.6875 28.25 C-16.72166016 29.47203125 -16.75582031 30.6940625 -16.79101562 31.953125 C-16.8734653 34.96842746 -16.93840971 37.98419936 -17 41 C-20.96 41 -24.92 41 -29 41 C-29 27.8 -29 14.6 -29 1 C-24.71 1 -20.42 1 -16 1 C-15.67 2.32 -15.34 3.64 -15 5 C-14.21625 4.360625 -13.4325 3.72125 -12.625 3.0625 C-8.47450513 -0.19860311 -5.18895865 -0.55078332 0 0 Z " fill="#262A2D" transform="translate(648,400)"/>
<path d="M0 0 C4.27831772 3.97983043 7.68777071 7.59107042 8.23828125 13.6015625 C8.42656242 21.27154281 7.75822702 27.58110483 2.64453125 33.59375 C-3.04116314 38.83739308 -9.88586151 39.47489879 -17.28515625 39.3125 C-22.93006061 38.66272684 -27.12027519 36.28656541 -30.875 32.0625 C-35.52822412 25.35638289 -35.92941964 19.00656296 -35 11 C-32.85807136 5.00451225 -28.53821613 0.96920678 -23 -2 C-15.9652829 -4.47165736 -6.37427432 -4.00367643 0 0 Z " fill="#272B2F" transform="translate(603,403)"/>
<path d="M0 0 C4.59743948 2.45057139 7.46643051 5.23407875 9.71484375 9.9140625 C10.16530204 12.73640295 10.17961304 15.49820294 10.15234375 18.3515625 C10.18231445 19.45854492 10.18231445 19.45854492 10.21289062 20.58789062 C10.2082364 25.82389393 9.11699712 28.74627026 5.71484375 32.9140625 C0.39290188 38.0046156 -3.92510327 39.97637959 -11.22265625 40.1640625 C-18.73778307 39.97252254 -23.92048258 38.40066058 -29.28515625 32.9140625 C-33.57563423 26.3353296 -33.12533461 18.51685297 -32.28515625 10.9140625 C-30.65090373 5.4748079 -27.4986746 2.70314473 -22.66015625 -0.0859375 C-15.18206394 -3.37985911 -7.47672987 -3.27202493 0 0 Z " fill="#26292D" transform="translate(953.28515625,402.0859375)"/>
<path d="M0 0 C4.59743948 2.45057139 7.46643051 5.23407875 9.71484375 9.9140625 C10.16530204 12.73640295 10.17961304 15.49820294 10.15234375 18.3515625 C10.18231445 19.45854492 10.18231445 19.45854492 10.21289062 20.58789062 C10.2082364 25.82389393 9.11699712 28.74627026 5.71484375 32.9140625 C0.39290188 38.0046156 -3.92510327 39.97637959 -11.22265625 40.1640625 C-18.73778307 39.97252254 -23.92048258 38.40066058 -29.28515625 32.9140625 C-33.57563423 26.3353296 -33.12533461 18.51685297 -32.28515625 10.9140625 C-30.65090373 5.4748079 -27.4986746 2.70314473 -22.66015625 -0.0859375 C-15.18206394 -3.37985911 -7.47672987 -3.27202493 0 0 Z " fill="#26292D" transform="translate(819.28515625,402.0859375)"/>
<path d="M0 0 C3.98150664 2.34206273 6.33586279 5.68336962 7.79296875 10.0546875 C7.92798472 14.39140053 7.83593789 18.71480484 7.79296875 23.0546875 C-0.45703125 23.0546875 -8.70703125 23.0546875 -17.20703125 23.0546875 C-15.04036458 28.88802083 -15.04036458 28.88802083 -12.20703125 30.0546875 C-6.24170176 30.47382013 -0.77546586 30.46265922 4.79296875 28.0546875 C4.79296875 31.0246875 4.79296875 33.9946875 4.79296875 37.0546875 C-3.2493782 40.27162628 -11.25430243 41.76563018 -19.64453125 38.8671875 C-25.39015285 34.80321125 -28.68034941 30.91892876 -30.20703125 24.0546875 C-31.12886728 17.19663268 -30.48606188 11.90212081 -26.7734375 6 C-19.91049275 -2.52305856 -9.82430599 -4.11797257 0 0 Z " fill="#282C30" transform="translate(1030.20703125,401.9453125)"/>
<path d="M0 0 C3.98150664 2.34206273 6.33586279 5.68336962 7.79296875 10.0546875 C7.92798472 14.39140053 7.83593789 18.71480484 7.79296875 23.0546875 C-0.45703125 23.0546875 -8.70703125 23.0546875 -17.20703125 23.0546875 C-15.04036458 28.88802083 -15.04036458 28.88802083 -12.20703125 30.0546875 C-6.24170176 30.47382013 -0.77546586 30.46265922 4.79296875 28.0546875 C4.79296875 31.0246875 4.79296875 33.9946875 4.79296875 37.0546875 C-3.2493782 40.27162628 -11.25430243 41.76563018 -19.64453125 38.8671875 C-25.39015285 34.80321125 -28.68034941 30.91892876 -30.20703125 24.0546875 C-31.12886728 17.19663268 -30.48606188 11.90212081 -26.7734375 6 C-19.91049275 -2.52305856 -9.82430599 -4.11797257 0 0 Z " fill="#282C30" transform="translate(720.20703125,401.9453125)"/>
<path d="M0 0 C4.36775158 3.14884416 7.96773395 6.77820184 9.6875 11.9375 C9.6875 15.8975 9.6875 19.8575 9.6875 23.9375 C1.1075 23.9375 -7.4725 23.9375 -16.3125 23.9375 C-14.0310085 27.61663412 -14.0310085 27.61663412 -11.3125 30.9375 C-9.39798183 31.03733684 -7.47961381 31.06717589 -5.5625 31.0625 C-4.51578125 31.06507813 -3.4690625 31.06765625 -2.390625 31.0703125 C0.41973122 30.94905348 2.95389609 30.57534091 5.6875 29.9375 C5.6875 32.5775 5.6875 35.2175 5.6875 37.9375 C-0.76792777 41.54052945 -7.0244344 41.74728507 -14.3125 40.9375 C-20.57636729 39.09983546 -23.92940802 35.69346019 -27.390625 30.23828125 C-29.62991599 24.64954229 -29.30617752 16.35326647 -27.625 10.57421875 C-21.98662082 -0.02123546 -11.07363043 -3.55191919 0 0 Z " fill="#282C30" transform="translate(492.3125,401.0625)"/>
<path d="M0 0 C3.96 0 7.92 0 12 0 C12.04898437 1.83046875 12.09796875 3.6609375 12.1484375 5.546875 C12.22347053 7.94793196 12.29901813 10.34897288 12.375 12.75 C12.4059375 13.9565625 12.436875 15.163125 12.46875 16.40625 C12.50742188 17.56640625 12.54609375 18.7265625 12.5859375 19.921875 C12.6173584 20.99018555 12.6487793 22.05849609 12.68115234 23.15917969 C12.99200148 25.92873598 13.57670532 27.63283621 15 30 C16.258125 30.0825 17.51625 30.165 18.8125 30.25 C19.52019531 30.29640625 20.22789063 30.3428125 20.95703125 30.390625 C23.13370681 30.17707006 23.13370681 30.17707006 24.59570312 28.35546875 C26.36302312 25.39109057 26.42742143 23.36120561 26.51171875 19.921875 C26.54716797 18.76171875 26.58261719 17.6015625 26.61914062 16.40625 C26.64169922 15.1996875 26.66425781 13.993125 26.6875 12.75 C26.72166016 11.52796875 26.75582031 10.3059375 26.79101562 9.046875 C26.8734653 6.03157254 26.93840971 3.01580064 27 0 C30.96 0 34.92 0 39 0 C39 13.2 39 26.4 39 40 C34.71 40 30.42 40 26 40 C25.67 38.68 25.34 37.36 25 36 C24.236875 36.639375 23.47375 37.27875 22.6875 37.9375 C18.89294392 40.84960118 15.82250753 41.35609387 11.0625 41.27734375 C7.57495927 40.8083752 5.5958851 39.29403799 3 37 C0.17860611 32.40276059 -0.35935356 28.98785391 -0.29296875 23.6328125 C-0.28660149 22.61343094 -0.28660149 22.61343094 -0.28010559 21.57345581 C-0.26344266 19.42355076 -0.22581716 17.27461701 -0.1875 15.125 C-0.172437 13.6588678 -0.15875143 12.19272076 -0.14648438 10.7265625 C-0.1135808 7.15073125 -0.06188663 3.57546059 0 0 Z " fill="#262A2E" transform="translate(1253,401)"/>
<path d="M0 0 C11.22 0 22.44 0 34 0 C34 6.20019125 33.19745264 7.81760077 29.5 12.1875 C28.58457784 13.31921405 27.67053819 14.45204763 26.7578125 15.5859375 C26.29665039 16.15151367 25.83548828 16.71708984 25.36035156 17.29980469 C22.0739271 21.40724545 19.07267997 25.73238893 16 30 C21.94 30.33 27.88 30.66 34 31 C34 33.97 34 36.94 34 40 C22.12 40 10.24 40 -2 40 C-2 33.25145068 -2 33.25145068 0.37890625 30.44921875 C1.1383252 29.53088257 1.1383252 29.53088257 1.91308594 28.59399414 C2.45739258 27.96485107 3.00169922 27.33570801 3.5625 26.6875 C4.66319201 25.36754728 5.76345374 24.04723564 6.86328125 22.7265625 C7.40033691 22.09137695 7.93739258 21.45619141 8.49072266 20.80175781 C10.4726292 18.43578074 12.36741028 16.00792582 14.25 13.5625 C15.1575 12.386875 16.065 11.21125 17 10 C11.39 9.67 5.78 9.34 0 9 C0 6.03 0 3.06 0 0 Z " fill="#24282C" transform="translate(1323,401)"/>
<path d="M0 0 C4.50504796 2.25252398 6.85129862 4.48158795 9 9 C9.34311069 11.87355201 9.52383027 14.44502868 9.5 17.3125 C9.49645508 18.06926025 9.49291016 18.82602051 9.48925781 19.60571289 C9.33668992 24.72613455 8.58905128 28.44569904 5.484375 32.65234375 C1.72915385 36.06168927 -1.84801884 36.45383849 -6.75390625 36.30078125 C-10.46878945 35.80330993 -12.30004377 34.57437687 -15 32 C-18.89807607 26.03752227 -19.9536136 20.01254878 -19 13 C-17.36311843 7.74474865 -15.13785378 4.6073597 -11 1 C-7.5259169 -0.73704155 -3.79843331 -0.46041616 0 0 Z " fill="#FAFAFB" transform="translate(1223,395)"/>
<path d="M0 0 C0 2.97 0 5.94 0 9 C-0.91523437 8.91621094 -1.83046875 8.83242188 -2.7734375 8.74609375 C-3.96195313 8.64425781 -5.15046875 8.54242188 -6.375 8.4375 C-8.15003906 8.28087891 -8.15003906 8.28087891 -9.9609375 8.12109375 C-12.91898631 7.75846404 -12.91898631 7.75846404 -15 9 C-15.65213292 11.02463255 -15.65213292 11.02463255 -16 13 C-15.41992188 13.18175781 -14.83984375 13.36351562 -14.2421875 13.55078125 C-0.47837838 17.97972973 -0.47837838 17.97972973 3 24 C3.71750939 29.02256571 3.62957891 30.92362316 1.0625 35.3125 C-3.92444628 40.42481644 -10.39424234 41.16914467 -17.25 41.3125 C-21.32709993 41.29632103 -24.2878417 40.70027689 -28 39 C-28 35.7 -28 32.4 -28 29 C-26.535625 29.515625 -25.07125 30.03125 -23.5625 30.5625 C-18.26824724 32.17871981 -14.41366786 31.96048946 -9 31 C-9.05594728 29.05678945 -9.05594728 29.05678945 -10 27 C-12.59743487 25.55435225 -12.59743487 25.55435225 -15.75 24.5 C-20.1810733 22.8847319 -23.53270174 21.24279694 -27 18 C-28.23534045 14.29397865 -28.45528745 11.90246386 -28 8 C-21.69087325 -2.52226844 -11.02548829 -2.38388936 0 0 Z " fill="#272B2F" transform="translate(1071,401)"/>
<path d="M0 0 C0 3.96 0 7.92 0 12 C2.97 12 5.94 12 9 12 C9 14.97 9 17.94 9 21 C6.03 21 3.06 21 0 21 C0.11353223 24.2924348 0.24028336 27.58342332 0.375 30.875 C0.4059375 31.81214844 0.436875 32.74929688 0.46875 33.71484375 C0.50742187 34.61074219 0.54609375 35.50664062 0.5859375 36.4296875 C0.63306885 37.67081299 0.63306885 37.67081299 0.68115234 38.93701172 C0.82599137 41.21986085 0.82599137 41.21986085 3 43 C6.09926819 42.67801034 6.09926819 42.67801034 9 42 C9 44.97 9 47.94 9 51 C4.31882115 53.34058942 1.12627656 53.58690823 -4 53 C-8.27344775 51.23488028 -9.94414767 49.07366686 -12 45 C-12.34057617 42.22924805 -12.34057617 42.22924805 -12.29296875 39.26171875 C-12.28330078 38.19501953 -12.27363281 37.12832031 -12.26367188 36.02929688 C-12.23853516 34.92650391 -12.21339844 33.82371094 -12.1875 32.6875 C-12.17396484 31.56537109 -12.16042969 30.44324219 -12.14648438 29.28710938 C-12.1112138 26.52424771 -12.06192235 23.76237171 -12 21 C-14.31 21 -16.62 21 -19 21 C-19 18.03 -19 15.06 -19 12 C-16.69 12 -14.38 12 -12 12 C-12 9.03 -12 6.06 -12 3 C-10.37604003 2.49663233 -8.75079459 1.99741024 -7.125 1.5 C-6.22007812 1.2215625 -5.31515625 0.943125 -4.3828125 0.65625 C-2 0 -2 0 0 0 Z " fill="#24282C" transform="translate(987,389)"/>
<path d="M0 0 C0 3.96 0 7.92 0 12 C2.97 12 5.94 12 9 12 C9 14.97 9 17.94 9 21 C6.03 21 3.06 21 0 21 C0.11353223 24.2924348 0.24028336 27.58342332 0.375 30.875 C0.4059375 31.81214844 0.436875 32.74929688 0.46875 33.71484375 C0.50742187 34.61074219 0.54609375 35.50664062 0.5859375 36.4296875 C0.63306885 37.67081299 0.63306885 37.67081299 0.68115234 38.93701172 C0.82599137 41.21986085 0.82599137 41.21986085 3 43 C6.09926819 42.67801034 6.09926819 42.67801034 9 42 C9 44.97 9 47.94 9 51 C4.31882115 53.34058942 1.12627656 53.58690823 -4 53 C-8.27344775 51.23488028 -9.94414767 49.07366686 -12 45 C-12.34057617 42.22924805 -12.34057617 42.22924805 -12.29296875 39.26171875 C-12.28330078 38.19501953 -12.27363281 37.12832031 -12.26367188 36.02929688 C-12.23853516 34.92650391 -12.21339844 33.82371094 -12.1875 32.6875 C-12.17396484 31.56537109 -12.16042969 30.44324219 -12.14648438 29.28710938 C-12.1112138 26.52424771 -12.06192235 23.76237171 -12 21 C-14.31 21 -16.62 21 -19 21 C-19 18.03 -19 15.06 -19 12 C-16.69 12 -14.38 12 -12 12 C-12 9.03 -12 6.06 -12 3 C-10.37604003 2.49663233 -8.75079459 1.99741024 -7.125 1.5 C-6.22007812 1.2215625 -5.31515625 0.943125 -4.3828125 0.65625 C-2 0 -2 0 0 0 Z " fill="#24282C" transform="translate(773,389)"/>
<path d="M0 0 C1.1446875 -0.00257813 2.289375 -0.00515625 3.46875 -0.0078125 C6.5 0.125 6.5 0.125 9.5 1.125 C9.5 4.425 9.5 7.725 9.5 11.125 C8.05367187 11.05539062 8.05367187 11.05539062 6.578125 10.984375 C5.31484375 10.94828125 4.0515625 10.9121875 2.75 10.875 C1.49703125 10.82859375 0.2440625 10.7821875 -1.046875 10.734375 C-4.55046682 10.8228219 -4.55046682 10.8228219 -6.890625 13.015625 C-9.67408103 16.66384407 -9.92891384 19.34833875 -9.8125 23.859375 C-9.5997129 26.36068636 -9.5997129 26.36068636 -7.875 29.1875 C-2.40855799 32.32564263 3.34286452 31.49992706 9.5 31.125 C9.5 34.095 9.5 37.065 9.5 40.125 C3.29281986 42.88374673 -4.45442612 43.67281398 -10.87890625 41.21484375 C-16.12041601 38.12165677 -20.54440772 33.99177684 -22.5 28.125 C-23.15121491 20.80348377 -23.71638624 13.84488854 -19.1328125 7.7421875 C-13.52884098 2.1918425 -7.81705391 -0.01760598 0 0 Z " fill="#272A2E" transform="translate(552.5,399.875)"/>
<path d="M0 0 C3.96 0 7.92 0 12 0 C12 19.47 12 38.94 12 59 C8.04 59 4.08 59 0 59 C0 39.53 0 20.06 0 0 Z " fill="#25292D" transform="translate(509,382)"/>
<path d="M0 0 C3.96 0 7.92 0 12 0 C12 13.2 12 26.4 12 40 C8.04 40 4.08 40 0 40 C0 26.8 0 13.6 0 0 Z " fill="#25292D" transform="translate(1302,401)"/>
<path d="M0 0 C2.87029869 1.79393668 4.49131638 2.98263276 6 6 C6.16796875 8.0234375 6.16796875 8.0234375 6.1875 10.375 C6.20167969 11.14585938 6.21585938 11.91671875 6.23046875 12.7109375 C5.97801607 15.21834888 5.25193467 16.83261902 4 19 C5.32 20.65 6.64 22.3 8 24 C4.625 24.125 4.625 24.125 1 24 C0.34 23.34 -0.32 22.68 -1 22 C-3.51710524 21.41713687 -6.03592253 21.04756993 -8.58984375 20.66015625 C-11.294926 19.919218 -12.30651595 19.20312188 -14 17 C-15.52199443 12.43401671 -15.74716734 8.60107286 -13.6875 4.1875 C-9.91403801 -0.7040248 -5.74352362 -0.84641401 0 0 Z " fill="#F2F5FE" transform="translate(205,31)"/>
<path d="M0 0 C2.94031756 2.26178274 3.85842778 3.92855572 4.34375 7.6015625 C4.51227206 12.81170294 4.47547799 16.82942641 1 21 C-0.65766798 22.65766798 -2.60346405 22.21049503 -4.875 22.25 C-5.75929688 22.27578125 -6.64359375 22.3015625 -7.5546875 22.328125 C-10 22 -10 22 -11.7578125 20.671875 C-15.04698777 16.2449347 -14.70487649 10.24060347 -14 5 C-9.72029894 -0.6311856 -6.82335156 -1.64701589 0 0 Z " fill="#F8F8F8" transform="translate(947,410)"/>
<path d="M0 0 C2.94031756 2.26178274 3.85842778 3.92855572 4.34375 7.6015625 C4.51227206 12.81170294 4.47547799 16.82942641 1 21 C-0.65766798 22.65766798 -2.60346405 22.21049503 -4.875 22.25 C-5.75929688 22.27578125 -6.64359375 22.3015625 -7.5546875 22.328125 C-10 22 -10 22 -11.7578125 20.671875 C-15.04698777 16.2449347 -14.70487649 10.24060347 -14 5 C-9.72029894 -0.6311856 -6.82335156 -1.64701589 0 0 Z " fill="#F8F8F8" transform="translate(813,410)"/>
<path d="M0 0 C0.99 0.66 1.98 1.32 3 2 C2.67 3.98 2.34 5.96 2 8 C1.34 8 0.68 8 0 8 C0 8.66 0 9.32 0 10 C2.475 10.99 2.475 10.99 5 12 C5.33 9.69 5.66 7.38 6 5 C7.32 5 8.64 5 10 5 C10.34833144 9.87664009 9.41685712 12.77050005 7 17 C8.65 17 10.3 17 12 17 C12 18.32 12 19.64 12 21 C5.375 21.125 5.375 21.125 2 20 C1.34 20.33 0.68 20.66 0 21 C-2.05859375 21.203125 -2.05859375 21.203125 -4.4375 21.25 C-5.21996094 21.27578125 -6.00242188 21.3015625 -6.80859375 21.328125 C-9.53034629 20.92058986 -10.37584413 20.18774308 -12 18 C-12.45185216 14.46049143 -12.42109443 12.66673285 -10.5 9.625 C-10.005 9.08875 -9.51 8.5525 -9 8 C-9.33 7.67 -9.66 7.34 -10 7 C-10.25 4.5625 -10.25 4.5625 -10 2 C-6.31282562 -0.45811625 -4.35654296 -0.31118164 0 0 Z " fill="#EBF1FE" transform="translate(169,31)"/>
<path d="M0 0 C2.97041843 2.25433541 3.90461715 3.35980323 4.4609375 7.09375 C4.41839844 8.77984375 4.41839844 8.77984375 4.375 10.5 C4.35566406 12.18609375 4.35566406 12.18609375 4.3359375 13.90625 C4.01698247 16.84360328 3.62416758 18.56374862 2 21 C-0.95757592 22.72525262 -2.6945606 23.01832636 -6.125 22.8125 C-9.07339838 21.97925698 -10.17751385 21.39800809 -12 19 C-14.23081069 14.53837861 -13.62108436 8.83131968 -13 4 C-10.09163631 -1.32853777 -5.44729172 -1.71488813 0 0 Z " fill="#F9F9F9" transform="translate(594,410)"/>
<path d="M0 0 C2.375 1.375 2.375 1.375 4 4 C4.85347633 10.13735786 4.71398477 15.82694979 1 21 C-1.50648249 22.98789991 -2.78288662 23.0045232 -6 22.9375 C-9 22 -9 22 -11.375 20.125 C-13.79927637 15.46293005 -13.6429996 11.15174378 -13 6 C-11.73833117 2.90891135 -10.8034843 1.60953981 -8.1875 -0.375 C-5.08685996 -1.26089715 -3.08383471 -0.89945179 0 0 Z " fill="#F5F5F5" transform="translate(1516,410)"/>
<path d="M0 0 C2.26387845 2.2796363 2.94906323 3.63695064 3.3984375 6.83984375 C3.39070313 7.86207031 3.38296875 8.88429688 3.375 9.9375 C3.38273437 10.95714844 3.39046875 11.97679687 3.3984375 13.02734375 C2.94825743 16.38604013 1.97149631 18.26986417 0 21 C-2.4469921 22.79446087 -3.5294369 23.0459086 -6.5625 22.75 C-9 22 -9 22 -12 20 C-13.73834022 14.78497933 -13.70532894 9.42560726 -13 4 C-10.0958648 -1.31041866 -5.44002065 -1.74491228 0 0 Z " fill="#F8F8F8" transform="translate(1467,410)"/>
<path d="M0 0 C4.74228613 2.96982133 8.8714977 6.30724655 12 11 C12 11.66 12 12.32 12 13 C6.51488866 16.69648807 1.68523346 18.31672849 -5 18 C-8.10823397 16.66789973 -9.49501691 16.00996617 -11 13 C-11.5811138 5.91041162 -11.5811138 5.91041162 -9.125 2.0625 C-5.80499229 -1.15986042 -4.37741861 -1.42741911 0 0 Z " fill="#F8F8F8" transform="translate(1125,415)"/>
<path d="M0 0 C1.98 0 3.96 0 6 0 C8.3359375 2.40625 8.3359375 2.40625 10.375 5.5 C11.06335938 6.5209375 11.75171875 7.541875 12.4609375 8.59375 C12.96882813 9.3878125 13.47671875 10.181875 14 11 C14.33 7.37 14.66 3.74 15 0 C16.65 0 18.3 0 20 0 C20 6.93 20 13.86 20 21 C18.02 21 16.04 21 14 21 C12.18103004 18.78560178 10.94963415 16.97917909 9.625 14.5 C9.27050781 13.87996094 8.91601562 13.25992188 8.55078125 12.62109375 C7.68038396 11.09201743 6.83744876 9.54736725 6 8 C5.67 12.29 5.34 16.58 5 21 C3.35 21 1.7 21 0 21 C0 14.07 0 7.14 0 0 Z " fill="#EDF5FE" transform="translate(66,31)"/>
<path d="M0 0 C2.9375 2.0625 2.9375 2.0625 5 5 C5.57170574 9.57364594 5.00348873 12.86780449 3 17 C3.99 17.99 4.98 18.98 6 20 C4.33388095 20.042721 2.66617115 20.04063832 1 20 C0.67 19.67 0.34 19.34 0 19 C-1.45412969 18.70743606 -2.91347547 18.44054713 -4.375 18.1875 C-7.21736449 17.55937812 -8.75554484 17.19260104 -11.0625 15.375 C-12.44723127 11.86701412 -12.76164806 8.6631645 -12 5 C-8.64524049 0.12034981 -5.82662873 -1.04046942 0 0 Z " fill="#82B4FD" transform="translate(1822,33)"/>
<path d="M0 0 C2.31 0 4.62 0 7 0 C10.465 10.395 10.465 10.395 14 21 C12.02 21 10.04 21 8 21 C7.67 19.68 7.34 18.36 7 17 C4.36 17 1.72 17 -1 17 C-1.33 18.32 -1.66 19.64 -2 21 C-3.65 21 -5.3 21 -7 21 C-5.62820313 13.51747162 -3.07836721 6.94395046 0 0 Z " fill="#F1F5FE" transform="translate(269,31)"/>
<path d="M0 0 C2.33333333 0 4.66666667 0 7 0 C7.969375 -0.061875 8.93875 -0.12375 9.9375 -0.1875 C13 0 13 0 14.875 1 C16.68872847 4.22440616 16.62695109 7.45202676 16 11 C14.4375 13.5625 14.4375 13.5625 12 15 C8.25 14.75 8.25 14.75 5 14 C5 16.64 5 19.28 5 22 C3.35 22 1.7 22 0 22 C0 14.74 0 7.48 0 0 Z " fill="#F0F8FE" transform="translate(284,37)"/>
<path d="M0 0 C11.36370819 -0.49407427 11.36370819 -0.49407427 14.359375 1.83203125 C16 4 16 4 16.5 6.9375 C15.87307907 10.7773907 14.89648251 12.40841039 12 15 C8.75 15.3125 8.75 15.3125 6 15 C5.67 17.31 5.34 19.62 5 22 C3.35 22 1.7 22 0 22 C0 14.74 0 7.48 0 0 Z " fill="#F3F4FE" transform="translate(303,37)"/>
<path d="M0 0 C2.5 0.9375 2.5 0.9375 4 3 C4.55459203 6.10224918 4.55459203 8.89775082 4 12 C2.22577578 14.4395583 1.02218795 14.8366175 -1.90625 15.3046875 C-5.44885838 15.5294052 -7.44863271 15.34460456 -10.5 13.4375 C-12.58392818 10.05111671 -12.55802097 7.90614682 -12 4 C-9.05375209 -0.78765285 -5.13873334 -0.82135492 0 0 Z " fill="#F0F6FE" transform="translate(101,37)"/>
<path d="M0 0 C1.98 0 3.96 0 6 0 C6 3.63 6 7.26 6 11 C7.32 11 8.64 11 10 11 C10 7.37 10 3.74 10 0 C11.98 0 13.96 0 16 0 C16 4.95 16 9.9 16 15 C6.0390625 15.1953125 6.0390625 15.1953125 3 15 C0.33684806 12.33684806 0.05573507 10.34655932 -0.09765625 6.640625 C-0.08605469 5.85171875 -0.07445312 5.0628125 -0.0625 4.25 C-0.05347656 3.45078125 -0.04445312 2.6515625 -0.03515625 1.828125 C-0.02355469 1.22484375 -0.01195312 0.6215625 0 0 Z " fill="#E5EEFE" transform="translate(213,37)"/>
<path d="M0 0 C7 0 14 0 21 0 C18.84921278 3.85658398 16.76544722 7.54319097 14 11 C16.31 11.33 18.62 11.66 21 12 C21 12.33 21 12.66 21 13 C13.74 13 6.48 13 -1 13 C1.31 9.37 3.62 5.74 6 2 C3.03 1.505 3.03 1.505 0 1 C0 0.67 0 0.34 0 0 Z " fill="#B3B2B5" transform="translate(945,502)"/>
<path d="M0 0 C2.54384735 1.27192368 2.58575975 2.07799892 3.5078125 4.7109375 C3.77207031 5.46117187 4.03632812 6.21140625 4.30859375 6.984375 C4.57800781 7.77328125 4.84742188 8.5621875 5.125 9.375 C5.40214844 10.15617187 5.67929688 10.93734375 5.96484375 11.7421875 C8 17.59702124 8 17.59702124 8 21 C3.38 21 -1.24 21 -6 21 C-4.71956255 13.63748468 -2.72382581 6.95501154 0 0 Z " fill="#F0F0F1" transform="translate(1407,398)"/>
<path d="M0 0 C1.9375 1.125 1.9375 1.125 3 3 C3.1875 6.1875 3.1875 6.1875 3 9 C0.03 9 -2.94 9 -6 9 C-6 9.66 -6 10.32 -6 11 C-3.36 11 -0.72 11 2 11 C1.67 12.32 1.34 13.64 1 15 C-0.43655854 15.08131463 -1.8744483 15.13933559 -3.3125 15.1875 C-4.51326172 15.23970703 -4.51326172 15.23970703 -5.73828125 15.29296875 C-8 15 -8 15 -9.765625 13.76953125 C-12.04897752 10.49624424 -11.62498611 6.8138357 -11 3 C-8.11808334 -0.80412999 -4.49851067 -0.49074662 0 0 Z " fill="#E4EFFE" transform="translate(130,37)"/>
<path d="M0 0 C2.375 1.0625 2.375 1.0625 4 3 C4.5 6.5 4.5 6.5 4 10 C1.79803976 12.62541413 0.38026421 12.9445448 -3 13.4375 C-6 13 -6 13 -8.375 11.3125 C-10 9 -10 9 -10.5 6.5 C-9.32731465 0.63657323 -5.5700283 -0.81229579 0 0 Z " fill="#292D31" transform="translate(1311,382)"/>
<path d="M0 0 C4.29 0 8.58 0 13 0 C12.10830166 3.56679337 11.5329766 4.95603121 9.4375 7.75 C8.98246094 8.36359375 8.52742187 8.9771875 8.05859375 9.609375 C7.70925781 10.06828125 7.35992187 10.5271875 7 11 C8.98 11 10.96 11 13 11 C13 12.32 13 13.64 13 15 C8.38 15 3.76 15 -1 15 C-0.10830166 11.43320663 0.4670234 10.04396879 2.5625 7.25 C3.01753906 6.63640625 3.47257813 6.0228125 3.94140625 5.390625 C4.29074219 4.93171875 4.64007813 4.4728125 5 4 C3.35 4 1.7 4 0 4 C0 2.68 0 1.36 0 0 Z " fill="#EEF3FE" transform="translate(240,37)"/>
<path d="M0 0 C2 1.5625 2 1.5625 3 4 C2.875 7.625 2.875 7.625 2 11 C-1.46923881 13.31282587 -2.92205575 13.42478586 -7 13 C-8.875 11.9375 -8.875 11.9375 -10 10 C-10.36528977 6.5906288 -10.6140629 4.11976176 -8.9375 1.0625 C-5.84506242 -0.63335287 -3.44485259 -0.43060657 0 0 Z " fill="#82B2FD" transform="translate(1753,38)"/>
<path d="M0 0 C0.33 0 0.66 0 1 0 C1 6.27 1 12.54 1 19 C-7 19 -7 19 -9 17.9375 C-10.58433618 14.86784865 -10.36248449 12.38318857 -10 9 C-8.9375 7 -8.9375 7 -7 6 C-3.3125 6.3125 -3.3125 6.3125 0 7 C0 4.69 0 2.38 0 0 Z " fill="#DAD6D5" transform="translate(851,496)"/>
<path d="M0 0 C0.08071788 2.79224073 0.14035408 5.58216566 0.1875 8.375 C0.22520508 9.56609375 0.22520508 9.56609375 0.26367188 10.78125 C0.29004405 12.85586148 0.15486462 14.93100865 0 17 C-3.4352048 19.29013653 -4.985331 19.17842973 -9 19 C-9.33 18.34 -9.66 17.68 -10 17 C-9.05125 17.020625 -8.1025 17.04125 -7.125 17.0625 C-4.09333717 17.22551826 -4.09333717 17.22551826 -2 16 C-1.34786708 13.97536745 -1.34786708 13.97536745 -1 12 C-2.11375 12.20625 -3.2275 12.4125 -4.375 12.625 C-5.57125 12.74875 -6.7675 12.8725 -8 13 C-10 11 -10 11 -10.3125 7.0625 C-10.23081662 4.56208106 -10.12109418 3.22794199 -8.9375 1 C-6.02233434 -0.50460163 -3.22889599 -0.05972524 0 0 Z " fill="#CCC3BE" transform="translate(1221,502)"/>
<path d="M0 0 C1.21816406 0.03480469 1.21816406 0.03480469 2.4609375 0.0703125 C3.68683594 0.09738281 3.68683594 0.09738281 4.9375 0.125 C5.87722656 0.15980469 5.87722656 0.15980469 6.8359375 0.1953125 C6.8359375 1.5153125 6.8359375 2.8353125 6.8359375 4.1953125 C5.5159375 4.5253125 4.1959375 4.8553125 2.8359375 5.1953125 C4.4859375 6.1853125 6.1359375 7.1753125 7.8359375 8.1953125 C7.0859375 12.9453125 7.0859375 12.9453125 4.8359375 15.1953125 C2.671875 15.390625 2.671875 15.390625 0.2109375 15.3203125 C-0.60632813 15.30226563 -1.42359375 15.28421875 -2.265625 15.265625 C-2.89210937 15.24242187 -3.51859375 15.21921875 -4.1640625 15.1953125 C-4.1640625 13.5453125 -4.1640625 11.8953125 -4.1640625 10.1953125 C-1.1940625 10.6903125 -1.1940625 10.6903125 1.8359375 11.1953125 C0.8459375 10.6384375 -0.1440625 10.0815625 -1.1640625 9.5078125 C-4.1640625 7.1953125 -4.1640625 7.1953125 -4.6640625 4.5703125 C-4.0120996 1.47348872 -3.23664789 0.29211624 0 0 Z " fill="#EBF1FE" transform="translate(139.1640625,36.8046875)"/>
<path d="M0 0 C3.3 0 6.6 0 10 0 C9.18957164 1.48030272 8.37659652 2.95921142 7.5625 4.4375 C7.11003906 5.26121094 6.65757813 6.08492187 6.19140625 6.93359375 C5 9 5 9 4 10 C6.31 10.33 8.62 10.66 11 11 C12.65 8.36 14.3 5.72 16 3 C14.35 2.67 12.7 2.34 11 2 C11 1.34 11 0.68 11 0 C14.3 0 17.6 0 21 0 C19.6302836 3.99500618 17.74277578 6.80009492 15 10 C17.97 10.495 17.97 10.495 21 11 C21 11.66 21 12.32 21 13 C13.74 13 6.48 13 -1 13 C3 6 3 6 5 3 C3.35 2.67 1.7 2.34 0 2 C0 1.34 0 0.68 0 0 Z " fill="#88B8FD" transform="translate(1849,38)"/>
<path d="M0 0 C2.64 0 5.28 0 8 0 C8 6.27 8 12.54 8 19 C7.67 19 7.34 19 7 19 C6.67 16.69 6.34 14.38 6 12 C5.67 12.33 5.34 12.66 5 13 C2.625 13.3125 2.625 13.3125 0 13 C-1.875 11.4375 -1.875 11.4375 -3 9 C-2.67272727 2.67272727 -2.67272727 2.67272727 0 0 Z " fill="#B6AFB9" transform="translate(915,502)"/>
<path d="M0 0 C1.8125 1 1.8125 1 3 3 C3.55003751 6.616685 3.71020228 9.80386985 1.8125 13 C-0.66525842 14.36703913 -2.21155919 14.41826612 -5 14 C-6.8125 13 -6.8125 13 -8 11 C-8.55003751 7.383315 -8.71020228 4.19613015 -6.8125 1 C-4.33474158 -0.36703913 -2.78844081 -0.41826612 0 0 Z " fill="#0F6FFD" transform="translate(1821,35)"/>
<path d="M0 0 C0.33 0 0.66 0 1 0 C1 6.27 1 12.54 1 19 C-1.64 19 -4.28 19 -7 19 C-9 17 -9 17 -9.3125 13.0625 C-9.23719217 10.46908648 -9.15247863 9.25680612 -7.8125 7 C-5.44004321 5.69105832 -3.6664882 5.78379825 -1 6 C-0.67 4.02 -0.34 2.04 0 0 Z " fill="#BEB7B5" transform="translate(1206,496)"/>
<path d="M0 0 C1.670625 0.37125 1.670625 0.37125 3.375 0.75 C4.89991998 3.79983996 4.61062548 6.3923369 4.375 9.75 C3.3125 11.75 3.3125 11.75 1.375 12.75 C-2.25 12.5625 -2.25 12.5625 -5.625 11.75 C-6.73147808 9.53704384 -6.82088368 8.20327301 -6.875 5.75 C-6.90078125 5.04875 -6.9265625 4.3475 -6.953125 3.625 C-6.84484375 3.00625 -6.7365625 2.3875 -6.625 1.75 C-3.625 -0.25 -3.625 -0.25 0 0 Z " fill="#D4D2D2" transform="translate(1011.625,502.25)"/>
<path d="M0 0 C0 1.65 0 3.3 0 5 C0.99 5 1.98 5 3 5 C3 5.99 3 6.98 3 8 C2.01 8 1.02 8 0 8 C0 10.64 0 13.28 0 16 C0.99 16 1.98 16 3 16 C3 17.32 3 18.64 3 20 C0.125 20.125 0.125 20.125 -3 20 C-5 18 -5 18 -5.1953125 15.8359375 C-5.17210938 15.02382813 -5.14890625 14.21171875 -5.125 13.375 C-5.10695313 12.55773438 -5.08890625 11.74046875 -5.0703125 10.8984375 C-5.04710938 10.27195312 -5.02390625 9.64546875 -5 9 C-5.66 9 -6.32 9 -7 9 C-7 7.68 -7 6.36 -7 5 C-6.34 5 -5.68 5 -5 5 C-5 3.68 -5 2.36 -5 1 C-3 0 -3 0 0 0 Z " fill="#F4F9FE" transform="translate(114,32)"/>
<path d="M0 0 C1 1 1 1 1.25 4.875 C1.19964878 7.42460259 1.11640524 8.77403688 -0.0625 11.0625 C-3.2029116 12.582054 -5.70647317 11.79288609 -9 11 C-10.52491998 7.95016004 -10.23562548 5.3576631 -10 2 C-7.70416093 -2.32157943 -4.21625407 -0.93694535 0 0 Z " fill="#C3C2C6" transform="translate(1158,503)"/>
<path d="M0 0 C1 1 1 1 1.25 4.875 C1.19964878 7.42460259 1.11640524 8.77403688 -0.0625 11.0625 C-3.2029116 12.582054 -5.70647317 11.79288609 -9 11 C-10.52491998 7.95016004 -10.23562548 5.3576631 -10 2 C-7.70416093 -2.32157943 -4.21625407 -0.93694535 0 0 Z " fill="#C3C2C6" transform="translate(1091,503)"/>
<path d="M0 0 C1 1 1 1 1.25 4.875 C1.19964878 7.42460259 1.11640524 8.77403688 -0.0625 11.0625 C-3.2029116 12.582054 -5.70647317 11.79288609 -9 11 C-10.52491998 7.95016004 -10.23562548 5.3576631 -10 2 C-7.70416093 -2.32157943 -4.21625407 -0.93694535 0 0 Z " fill="#C3C2C6" transform="translate(775,503)"/>
<path d="M0 0 C4 1 4 1 5.921875 3.50390625 C6.52515625 4.51324219 7.1284375 5.52257813 7.75 6.5625 C8.67039062 8.08037109 8.67039062 8.08037109 9.609375 9.62890625 C10.06828125 10.41136719 10.5271875 11.19382812 11 12 C11.33 8.04 11.66 4.08 12 0 C12.66 0 13.32 0 14 0 C14 5.94 14 11.88 14 18 C10 17 10 17 8.078125 14.49609375 C7.47484375 13.48675781 6.8715625 12.47742188 6.25 11.4375 C5.32960938 9.91962891 5.32960938 9.91962891 4.390625 8.37109375 C3.93171875 7.58863281 3.4728125 6.80617188 3 6 C2.67 9.96 2.34 13.92 2 18 C1.34 18 0.68 18 0 18 C0 12.06 0 6.12 0 0 Z " fill="#90B8FE" transform="translate(1726,33)"/>
<path d="M0 0 C2.3125 1.6875 2.3125 1.6875 4 4 C4 5.65 4 7.3 4 9 C-0.62 9 -5.24 9 -10 9 C-9 3 -9 3 -7.25 1.125 C-4.50272993 -0.24863504 -3.03212094 -0.53062116 0 0 Z " fill="#F3F3F3" transform="translate(1023,408)"/>
<path d="M0 0 C2.3125 1.6875 2.3125 1.6875 4 4 C4 5.65 4 7.3 4 9 C-0.62 9 -5.24 9 -10 9 C-9 3 -9 3 -7.25 1.125 C-4.50272993 -0.24863504 -3.03212094 -0.53062116 0 0 Z " fill="#F3F3F3" transform="translate(713,408)"/>
<path d="M0 0 C2.4375 0.8125 2.4375 0.8125 4.4375 3.8125 C4.25 7.375 4.25 7.375 3.4375 10.8125 C0.4375 12.8125 0.4375 12.8125 -1.625 12.5625 C-3.5625 11.8125 -3.5625 11.8125 -5.5625 9.8125 C-5.86328125 7.9375 -5.86328125 7.9375 -5.875 5.8125 C-5.89175781 5.11125 -5.90851563 4.41 -5.92578125 3.6875 C-5.80589844 3.06875 -5.68601563 2.45 -5.5625 1.8125 C-2.5625 -0.1875 -2.5625 -0.1875 0 0 Z " fill="#1777FD" transform="translate(201.5625,35.1875)"/>
<path d="M0 0 C2.8125 0.875 2.8125 0.875 4.8125 2.875 C4.8125 4.855 4.8125 6.835 4.8125 8.875 C0.1925 8.875 -4.4275 8.875 -9.1875 8.875 C-8.1875 3.875 -8.1875 3.875 -6 1.5 C-3.1875 -0.125 -3.1875 -0.125 0 0 Z " fill="#F5F5F6" transform="translate(485.1875,408.125)"/>
<path d="M0 0 C1.8125 1.1875 1.8125 1.1875 3 3 C3.5 5.4375 3.5 5.4375 3 8 C0.75 10.375 0.75 10.375 -2 12 C-4.1875 11.9375 -4.1875 11.9375 -6 11 C-8.15502531 7.76746204 -8.46856135 6.74849077 -8 3 C-5.85607122 -0.27231235 -3.76836426 -0.56525464 0 0 Z " fill="#F4F4F4" transform="translate(1127,392)"/>
<path d="M0 0 C0.33 1.98 0.66 3.96 1 6 C-1.97 6 -4.94 6 -8 6 C-7.01 7.485 -7.01 7.485 -6 9 C-2.91634129 9.2502157 -2.91634129 9.2502157 0 9 C-0.33 9.99 -0.66 10.98 -1 12 C-4.3125 12.3125 -4.3125 12.3125 -8 12 C-10 9.875 -10 9.875 -11 7 C-10.875 3.8125 -10.875 3.8125 -10 1 C-6.1496895 -1.56687367 -4.41430237 -0.83288724 0 0 Z " fill="#83B4FD" transform="translate(1882,39)"/>
<path d="M0 0 C3 0.25 3 0.25 5 2.25 C5.125 4.875 5.125 4.875 5 7.25 C2.36 7.25 -0.28 7.25 -3 7.25 C-2.67 8.24 -2.34 9.23 -2 10.25 C0.31 10.25 2.62 10.25 5 10.25 C4.67 11.24 4.34 12.23 4 13.25 C-2.3833448 13.73176187 -2.3833448 13.73176187 -5 11.6875 C-6.41970326 8.22697331 -5.86301515 5.83483216 -5 2.25 C-3 0.25 -3 0.25 0 0 Z " fill="#86B6FD" transform="translate(1772,37.75)"/>
<path d="M0 0 C2.375 -0.125 2.375 -0.125 5 0 C7 2 7 2 7.1953125 4.6015625 C7.17210937 5.59929687 7.14890625 6.59703125 7.125 7.625 C7.10695313 8.62789063 7.08890625 9.63078125 7.0703125 10.6640625 C7.03550781 11.82035156 7.03550781 11.82035156 7 13 C0.9453125 13.1953125 0.9453125 13.1953125 -1 13 C-1.66 12.34 -2.32 11.68 -3 11 C-2.8125 9 -2.8125 9 -2 7 C1 5 1 5 5 5 C4.67 4.01 4.34 3.02 4 2 C2.35 2 0.7 2 -1 2 C-0.67 1.34 -0.34 0.68 0 0 Z " fill="#676D77" transform="translate(715,502)"/>
<path d="M0 0 C1.36125 0.37125 1.36125 0.37125 2.75 0.75 C3.08 2.73 3.41 4.71 3.75 6.75 C0.78 6.75 -2.19 6.75 -5.25 6.75 C-4.59 8.07 -3.93 9.39 -3.25 10.75 C-1.27 10.75 0.71 10.75 2.75 10.75 C2.42 11.41 2.09 12.07 1.75 12.75 C-1.0625 13 -1.0625 13 -4.25 12.75 C-6.5651023 10.66640793 -7.15276165 9.30564772 -7.6875 6.25 C-7.25 3.75 -7.25 3.75 -5.625 1.375 C-3.25 -0.25 -3.25 -0.25 0 0 Z " fill="#6B6A73" transform="translate(1231.25,502.25)"/>
<path d="M0 0 C1.36125 0.37125 1.36125 0.37125 2.75 0.75 C3.08 2.73 3.41 4.71 3.75 6.75 C0.78 6.75 -2.19 6.75 -5.25 6.75 C-4.59 8.07 -3.93 9.39 -3.25 10.75 C-1.27 10.75 0.71 10.75 2.75 10.75 C2.42 11.41 2.09 12.07 1.75 12.75 C-1.0625 13 -1.0625 13 -4.25 12.75 C-6.5651023 10.66640793 -7.15276165 9.30564772 -7.6875 6.25 C-7.25 3.75 -7.25 3.75 -5.625 1.375 C-3.25 -0.25 -3.25 -0.25 0 0 Z " fill="#6B6A73" transform="translate(706.25,502.25)"/>
<path d="M0 0 C0.99 0 1.98 0 3 0 C3.33 3.3 3.66 6.6 4 10 C4.99 10 5.98 10 7 10 C7.66 6.7 8.32 3.4 9 0 C9.66 0 10.32 0 11 0 C11 4.29 11 8.58 11 13 C4.1640625 13.29296875 4.1640625 13.29296875 2 13 C-0.20914 9.68629 -0.22481553 8.6553979 -0.125 4.8125 C-0.10695313 3.91144531 -0.08890625 3.01039062 -0.0703125 2.08203125 C-0.04710937 1.39496094 -0.02390625 0.70789062 0 0 Z " fill="#7EB2FD" transform="translate(1829,38)"/>
<path d="M0 0 C2.375 -0.125 2.375 -0.125 5 0 C7 2 7 2 7.1953125 4.6015625 C7.17210937 5.59929687 7.14890625 6.59703125 7.125 7.625 C7.10695313 8.62789063 7.08890625 9.63078125 7.0703125 10.6640625 C7.03550781 11.82035156 7.03550781 11.82035156 7 13 C6.01 13 5.02 13 4 13 C3.13375 13.020625 2.2675 13.04125 1.375 13.0625 C-1 13 -1 13 -2 12 C-2.04063832 10.33382885 -2.042721 8.66611905 -2 7 C1.08809695 5.23537317 2.23312136 5 6 5 C5.34 4.01 4.68 3.02 4 2 C1.41619823 1.74969023 1.41619823 1.74969023 -1 2 C-0.67 1.34 -0.34 0.68 0 0 Z " fill="#584F67" transform="translate(872,502)"/>
<path d="M0 0 C2.375 -0.125 2.375 -0.125 5 0 C7 2 7 2 7.1953125 4.6015625 C7.17210937 5.59929687 7.14890625 6.59703125 7.125 7.625 C7.10695313 8.62789063 7.08890625 9.63078125 7.0703125 10.6640625 C7.03550781 11.82035156 7.03550781 11.82035156 7 13 C6.01 13 5.02 13 4 13 C3.13375 13.020625 2.2675 13.04125 1.375 13.0625 C-1 13 -1 13 -2 12 C-2.04063832 10.33382885 -2.042721 8.66611905 -2 7 C1.08809695 5.23537317 2.23312136 5 6 5 C5.34 4.01 4.68 3.02 4 2 C1.41619823 1.74969023 1.41619823 1.74969023 -1 2 C-0.67 1.34 -0.34 0.68 0 0 Z " fill="#584F67" transform="translate(818,502)"/>
<path d="M0 0 C1.65 0 3.3 0 5 0 C5 4.95 5 9.9 5 15 C3.35 15 1.7 15 0 15 C0 10.05 0 5.1 0 0 Z " fill="#F4F7FE" transform="translate(232,37)"/>
<path d="M0 0 C1.32 0 2.64 0 4 0 C4.01417969 0.68707031 4.02835938 1.37414062 4.04296875 2.08203125 C4.18717951 4.8064454 4.38859232 7.33908487 5 10 C7.4251788 11.99083177 7.4251788 11.99083177 10 13 C10 13.99 10 14.98 10 16 C6.03090464 15.43298638 3.1715133 14.4949238 0 12 C-0.48828125 9.08203125 -0.48828125 9.08203125 -0.3125 5.8125 C-0.26738281 4.72582031 -0.22226562 3.63914063 -0.17578125 2.51953125 C-0.11777344 1.68808594 -0.05976563 0.85664063 0 0 Z " fill="#D7E7FE" transform="translate(32,30)"/>
<path d="M0 0 C2 2 2 2 2.125 4.625 C2.08375 5.40875 2.0425 6.1925 2 7 C-0.64 7 -3.28 7 -6 7 C-6.33 8.32 -6.66 9.64 -7 11 C-8 10 -8 10 -8.25 6.625 C-8 3 -8 3 -6.8125 1.0625 C-4.37896796 -0.36405327 -2.77457104 -0.35571424 0 0 Z " fill="#594F5A" transform="translate(1192,502)"/>
<path d="M0 0 C2 2 2 2 2.125 4.625 C2.08375 5.40875 2.0425 6.1925 2 7 C-0.64 7 -3.28 7 -6 7 C-6.33 8.32 -6.66 9.64 -7 11 C-8 10 -8 10 -8.25 6.625 C-8 3 -8 3 -6.8125 1.0625 C-4.37896796 -0.36405327 -2.77457104 -0.35571424 0 0 Z " fill="#594F5A" transform="translate(1041,502)"/>
<path d="M0 0 C2 2 2 2 2.125 4.625 C2.08375 5.40875 2.0425 6.1925 2 7 C-0.64 7 -3.28 7 -6 7 C-6.33 8.32 -6.66 9.64 -7 11 C-8 10 -8 10 -8.25 6.625 C-8 3 -8 3 -6.8125 1.0625 C-4.37896796 -0.36405327 -2.77457104 -0.35571424 0 0 Z " fill="#594F5A" transform="translate(976,502)"/>
<path d="M0 0 C2 2 2 2 2.125 4.625 C2.08375 5.40875 2.0425 6.1925 2 7 C-0.64 7 -3.28 7 -6 7 C-6.33 8.32 -6.66 9.64 -7 11 C-8 10 -8 10 -8.25 6.625 C-8 3 -8 3 -6.8125 1.0625 C-4.37896796 -0.36405327 -2.77457104 -0.35571424 0 0 Z " fill="#594F5A" transform="translate(740,502)"/>
<path d="M0 0 C0.99 0 1.98 0 3 0 C3 1.32 3 2.64 3 4 C3.99 4 4.98 4 6 4 C6 4.66 6 5.32 6 6 C5.01 6 4.02 6 3 6 C3 8.97 3 11.94 3 15 C3.99 15 4.98 15 6 15 C6 15.66 6 16.32 6 17 C4.33388095 17.042721 2.66617115 17.04063832 1 17 C0 16 0 16 -0.09765625 13.71484375 C-0.08025391 12.34005859 -0.08025391 12.34005859 -0.0625 10.9375 C-0.05347656 10.01839844 -0.04445313 9.09929688 -0.03515625 8.15234375 C-0.02355469 7.44207031 -0.01195312 6.73179688 0 6 C-0.66 6 -1.32 6 -2 6 C-2 5.34 -2 4.68 -2 4 C-1.34 4 -0.68 4 0 4 C0 2.68 0 1.36 0 0 Z " fill="#79ADFD" transform="translate(1759,34)"/>
<path d="M0 0 C0.33 1.98 0.66 3.96 1 6 C-1.97 6 -4.94 6 -8 6 C-8.33 6.99 -8.66 7.98 -9 9 C-9.36 2.64 -9.36 2.64 -7.875 0 C-5.06863762 -1.49672661 -2.99840718 -0.73294398 0 0 Z " fill="#5D5D70" transform="translate(902,503)"/>
<path d="M0 0 C0.66 0 1.32 0 2 0 C2.33 3.3 2.66 6.6 3 10 C4.32 8.68 5.64 7.36 7 6 C7.66 6.33 8.32 6.66 9 7 C7.35 8.98 5.7 10.96 4 13 C5.65 14.98 7.3 16.96 9 19 C6.53199953 17.84826645 4.95216435 16.95216435 3 15 C2.67 16.32 2.34 17.64 2 19 C1.34 19 0.68 19 0 19 C0 12.73 0 6.46 0 0 Z " fill="#797A7F" transform="translate(882,496)"/>
<path d="M0 0 C2.5 0.25 2.5 0.25 4.5 2.25 C4.625 4.875 4.625 4.875 4.5 7.25 C1.53 7.25 -1.44 7.25 -4.5 7.25 C-4.83 7.91 -5.16 8.57 -5.5 9.25 C-4.52247191 0.45224719 -4.52247191 0.45224719 0 0 Z " fill="#5C4D4D" transform="translate(791.5,501.75)"/>
<path d="M0 0 C1.4540625 0.0309375 1.4540625 0.0309375 2.9375 0.0625 C2.6075 1.0525 2.2775 2.0425 1.9375 3.0625 C-0.125 3.75 -0.125 3.75 -2.0625 4.0625 C-1.2375 4.454375 -0.4125 4.84625 0.4375 5.25 C1.2625 5.848125 2.0875 6.44625 2.9375 7.0625 C3.3125 9.6875 3.3125 9.6875 2.9375 12.0625 C1.9375 13.0625 1.9375 13.0625 -1.625 13.125 C-2.759375 13.104375 -3.89375 13.08375 -5.0625 13.0625 C-4.7325 12.0725 -4.4025 11.0825 -4.0625 10.0625 C-2.4125 10.3925 -0.7625 10.7225 0.9375 11.0625 C-0.99504772 9.0379262 -2.69408688 7.64144208 -5.0625 6.0625 C-3.98897059 0.08140756 -3.98897059 0.08140756 0 0 Z " fill="#82B3FD" transform="translate(1890.0625,37.9375)"/>
<path d="M0 0 C0.94875 0.04125 1.8975 0.0825 2.875 0.125 C2.875 0.785 2.875 1.445 2.875 2.125 C1.225 2.125 -0.425 2.125 -2.125 2.125 C-2.125 3.115 -2.125 4.105 -2.125 5.125 C-1.320625 5.3725 -0.51625 5.62 0.3125 5.875 C2.875 7.125 2.875 7.125 3.8125 9.125 C3.833125 9.785 3.85375 10.445 3.875 11.125 C1.875 13.125 1.875 13.125 -1.75 13.25 C-2.86375 13.20875 -3.9775 13.1675 -5.125 13.125 C-5.125 12.135 -5.125 11.145 -5.125 10.125 C-2.155 10.62 -2.155 10.62 0.875 11.125 C0.875 10.135 0.875 9.145 0.875 8.125 C0.070625 7.8775 -0.73375 7.63 -1.5625 7.375 C-4.125 6.125 -4.125 6.125 -5.0625 4.125 C-5.083125 3.465 -5.10375 2.805 -5.125 2.125 C-3.125 0.125 -3.125 0.125 0 0 Z " fill="#81B4FD" transform="translate(1784.125,37.875)"/>
<path d="M0 0 C2.5 0.125 2.5 0.125 3.5 1.125 C3.625 4.625 3.625 4.625 3.5 8.125 C2.5 9.125 2.5 9.125 0 9.25 C-2.5 9.125 -2.5 9.125 -3.5 8.125 C-3.625 4.625 -3.625 4.625 -3.5 1.125 C-2.5 0.125 -2.5 0.125 0 0 Z " fill="#1372FD" transform="translate(1749.5,39.875)"/>
<path d="M0 0 C6.0546875 -0.1953125 6.0546875 -0.1953125 8 0 C10 2 10 2 10.1953125 4.6015625 C10.17210937 5.59929687 10.14890625 6.59703125 10.125 7.625 C10.10695313 8.62789063 10.08890625 9.63078125 10.0703125 10.6640625 C10.03550781 11.82035156 10.03550781 11.82035156 10 13 C9.67 13 9.34 13 9 13 C8.67 9.7 8.34 6.4 8 3 C6.68 2.67 5.36 2.34 4 2 C2.33657163 3.66342837 2.63951903 5.7825709 2.4375 8.0625 C2.31181641 9.44115234 2.31181641 9.44115234 2.18359375 10.84765625 C2.12300781 11.55792969 2.06242187 12.26820313 2 13 C1.34 13 0.68 13 0 13 C0 8.71 0 4.42 0 0 Z " fill="#6E6777" transform="translate(1135,502)"/>
<path d="M0 0 C6.0546875 -0.1953125 6.0546875 -0.1953125 8 0 C10 2 10 2 10.1953125 4.6015625 C10.17210937 5.59929687 10.14890625 6.59703125 10.125 7.625 C10.10695313 8.62789063 10.08890625 9.63078125 10.0703125 10.6640625 C10.03550781 11.82035156 10.03550781 11.82035156 10 13 C9.67 13 9.34 13 9 13 C8.67 9.7 8.34 6.4 8 3 C6.68 2.67 5.36 2.34 4 2 C2.33657163 3.66342837 2.63951903 5.7825709 2.4375 8.0625 C2.31181641 9.44115234 2.31181641 9.44115234 2.18359375 10.84765625 C2.12300781 11.55792969 2.06242188 12.26820313 2 13 C1.34 13 0.68 13 0 13 C0 8.71 0 4.42 0 0 Z " fill="#6E6777" transform="translate(752,502)"/>
<path d="M0 0 C2.67927341 4.01891012 2.15601248 6.24161923 2 11 C0.35 11 -1.3 11 -3 11 C-3 8.36 -3 5.72 -3 3 C-2.01 3 -1.02 3 0 3 C0 2.01 0 1.02 0 0 Z " fill="#2B80FD" transform="translate(117,37)"/>
<path d="M0 0 C1.4540625 0.0309375 1.4540625 0.0309375 2.9375 0.0625 C3.5975 1.3825 4.2575 2.7025 4.9375 4.0625 C3.9375 5.0625 3.9375 5.0625 2.08984375 5.16015625 C0.0390625 5.12760417 -2.01171875 5.09505208 -4.0625 5.0625 C-4.0625 0.08290816 -4.0625 0.08290816 0 0 Z " fill="#5A9CFD" transform="translate(1772.0625,37.9375)"/>
<path d="M0 0 C-0.33 1.32 -0.66 2.64 -1 4 C-3.64 4 -6.28 4 -9 4 C-9.33 3.01 -9.66 2.02 -10 1 C-6.1496895 -1.56687367 -4.41430237 -0.83288724 0 0 Z " fill="#569AFD" transform="translate(1882,39)"/>
<path d="M0 0 C3.42580031 1.71290015 3.78005573 5.50652322 5 9 C6.32 6.03 7.64 3.06 9 0 C10.16278786 4.65115142 9.59545159 5.58492845 7.5625 9.75 C7.08941406 10.73484375 6.61632813 11.7196875 6.12890625 12.734375 C5.75636719 13.48203125 5.38382813 14.2296875 5 15 C3.26830404 11.8377726 2.2871024 8.73257278 1.375 5.25 C1.11460938 4.26515625 0.85421875 3.2803125 0.5859375 2.265625 C0.39257812 1.51796875 0.19921875 0.7703125 0 0 Z " fill="#6C6982" transform="translate(1069,502)"/>
<path d="M0 0 C0.33 0 0.66 0 1 0 C1 6.27 1 12.54 1 19 C-7 19 -7 19 -9 18 C-8.67 17.34 -8.34 16.68 -8 16 C-5.69 16.33 -3.38 16.66 -1 17 C-0.88679144 11.91696314 -0.88679144 11.91696314 -2 7 C-1.34 7 -0.68 7 0 7 C0 4.69 0 2.38 0 0 Z " fill="#4C597E" transform="translate(851,496)"/>
<path d="M0 0 C1.67542976 0.28604898 3.34385343 0.61781233 5 1 C5 2.65 5 4.3 5 6 C3.34385343 6.38218767 1.67542976 6.71395102 0 7 C-1 6 -1 6 -1.125 3.5 C-1 1 -1 1 0 0 Z " fill="#2374FD" transform="translate(290,41)"/>
<path d="M0 0 C1.67542976 0.28604898 3.34385343 0.61781233 5 1 C5 2.65 5 4.3 5 6 C3.34385343 6.38218767 1.67542976 6.71395102 0 7 C-1 6 -1 6 -1.125 3.5 C-1 1 -1 1 0 0 Z " fill="#156EFD" transform="translate(95,41)"/>
<path d="M0 0 C0.66 0 1.32 0 2 0 C2 1.32 2 2.64 2 4 C2.99 4.33 3.98 4.66 5 5 C4.01 5 3.02 5 2 5 C2 8.63 2 12.26 2 16 C1.34 15.67 0.68 15.34 0 15 C0 11.7 0 8.4 0 5 C-0.66 4.67 -1.32 4.34 -2 4 C-1.34 4 -0.68 4 0 4 C0 2.68 0 1.36 0 0 Z " fill="#737578" transform="translate(863,498)"/>
<path d="M0 0 C1.67542976 0.28604898 3.34385343 0.61781233 5 1 C4.67 2.65 4.34 4.3 4 6 C2.0625 6.5625 2.0625 6.5625 0 7 C-1 6 -1 6 -1.125 3.5 C-1 1 -1 1 0 0 Z " fill="#157BFD" transform="translate(309,41)"/>
<path d="M0 0 C2.91387197 0.2913872 3.82565583 0.79452294 5.75 3.0625 C6.1625 3.701875 6.575 4.34125 7 5 C4.29120665 6.35439668 1.99066732 6.06501451 -1 6 C-1.042721 4.33388095 -1.04063832 2.66617115 -1 1 C-0.67 0.67 -0.34 0.34 0 0 Z " fill="#1B78FD" transform="translate(163,42)"/>
<path d="M0 0 C2.90646395 3.52927766 5.68287538 7.05230621 8 11 C7.67 11.99 7.34 12.98 7 14 C3.2897619 10.54564039 0.16159742 7.42396127 -0.1875 2.1875 C-0.125625 1.465625 -0.06375 0.74375 0 0 Z " fill="#82B1FD" transform="translate(1729,34)"/>
<path d="M0 0 C1.98 0 3.96 0 6 0 C5.51917969 0.38800781 5.03835938 0.77601563 4.54296875 1.17578125 C2.54250502 3.54088647 2.51123932 5.12691453 2.3125 8.1875 C2.24675781 9.08855469 2.18101562 9.98960937 2.11328125 10.91796875 C2.07589844 11.60503906 2.03851562 12.29210937 2 13 C1.34 13 0.68 13 0 13 C0 8.71 0 4.42 0 0 Z " fill="#7D7C7B" transform="translate(692,502)"/>
<path d="M0 0 C-0.33 1.65 -0.66 3.3 -1 5 C-2.65 5.33 -4.3 5.66 -6 6 C-6.33 4.68 -6.66 3.36 -7 2 C-4.35261084 0.5393715 -3.10551666 0 0 0 Z " fill="#F3F4ED" transform="translate(878,508)"/>
<path d="M0 0 C-0.33 1.65 -0.66 3.3 -1 5 C-2.65 5.33 -4.3 5.66 -6 6 C-6.33 4.68 -6.66 3.36 -7 2 C-4.35261084 0.5393715 -3.10551666 0 0 0 Z " fill="#F3F4ED" transform="translate(824,508)"/>
<path d="M0 0 C2.0625 0.4375 2.0625 0.4375 4 1 C4.33 2.32 4.66 3.64 5 5 C2.36 5 -0.28 5 -3 5 C-1.125 1.125 -1.125 1.125 0 0 Z " fill="#F3F8F6" transform="translate(1188,503)"/>
<path d="M0 0 C2.0625 0.4375 2.0625 0.4375 4 1 C4.33 2.32 4.66 3.64 5 5 C2.36 5 -0.28 5 -3 5 C-1.125 1.125 -1.125 1.125 0 0 Z " fill="#F3F8F6" transform="translate(1037,503)"/>
<path d="M0 0 C2.0625 0.4375 2.0625 0.4375 4 1 C4.33 2.32 4.66 3.64 5 5 C2.36 5 -0.28 5 -3 5 C-1.125 1.125 -1.125 1.125 0 0 Z " fill="#F3F8F6" transform="translate(972,503)"/>
<path d="M0 0 C2.0625 0.4375 2.0625 0.4375 4 1 C4.33 2.32 4.66 3.64 5 5 C2.36 5 -0.28 5 -3 5 C-1.125 1.125 -1.125 1.125 0 0 Z " fill="#F3F8F6" transform="translate(736,503)"/>
<path d="M0 0 C0.598125 0.226875 1.19625 0.45375 1.8125 0.6875 C0.575 1.5228125 0.575 1.5228125 -0.6875 2.375 C-3.4620414 4.43677133 -3.4620414 4.43677133 -3.5 7.4375 C-3.396875 8.18 -3.29375 8.9225 -3.1875 9.6875 C-0.7125 10.6775 -0.7125 10.6775 1.8125 11.6875 C1.8125 12.0175 1.8125 12.3475 1.8125 12.6875 C-0.5625 12.8125 -0.5625 12.8125 -3.1875 12.6875 C-5.1875 10.6875 -5.1875 10.6875 -5.5 6.75 C-5.42758358 4.09473143 -5.33391341 2.92908213 -3.9375 0.625 C-2.1875 -0.3125 -2.1875 -0.3125 0 0 Z " fill="#677287" transform="translate(1216.1875,502.3125)"/>
<path d="M0 0 C0.103125 0.639375 0.20625 1.27875 0.3125 1.9375 C0.539375 2.618125 0.76625 3.29875 1 4 C1.99 4.33 2.98 4.66 4 5 C3.01 5 2.02 5 1 5 C1 8.3 1 11.6 1 15 C2.32 15.33 3.64 15.66 5 16 C3.0625 16.5625 3.0625 16.5625 1 17 C0 16 0 16 -0.09765625 13.49609375 C-0.08605469 12.48675781 -0.07445312 11.47742188 -0.0625 10.4375 C-0.05347656 9.42558594 -0.04445313 8.41367187 -0.03515625 7.37109375 C-0.02355469 6.58863281 -0.01195312 5.80617188 0 5 C-0.99 4.67 -1.98 4.34 -3 4 C-2.01 4 -1.02 4 0 4 C0 2.68 0 1.36 0 0 Z " fill="#456B95" transform="translate(1057,498)"/>
<path d="M0 0 C0.103125 0.639375 0.20625 1.27875 0.3125 1.9375 C0.539375 2.618125 0.76625 3.29875 1 4 C1.99 4.33 2.98 4.66 4 5 C3.01 5 2.02 5 1 5 C1 8.3 1 11.6 1 15 C2.32 15.33 3.64 15.66 5 16 C3.0625 16.5625 3.0625 16.5625 1 17 C0 16 0 16 -0.09765625 13.49609375 C-0.08605469 12.48675781 -0.07445312 11.47742188 -0.0625 10.4375 C-0.05347656 9.42558594 -0.04445313 8.41367187 -0.03515625 7.37109375 C-0.02355469 6.58863281 -0.01195312 5.80617188 0 5 C-0.99 4.67 -1.98 4.34 -3 4 C-2.01 4 -1.02 4 0 4 C0 2.68 0 1.36 0 0 Z " fill="#456B95" transform="translate(999,498)"/>
<path d="M0 0 C2.0625 0.4375 2.0625 0.4375 4 1 C4.33 2.32 4.66 3.64 5 5 C2.69 5 0.38 5 -2 5 C-1.125 1.125 -1.125 1.125 0 0 Z " fill="#FAFDFA" transform="translate(790,503)"/>
<path d="M0 0 C0.66 0 1.32 0 2 0 C2 4.29 2 8.58 2 13 C1.34 13 0.68 13 0 13 C-1.29676812 8.38926889 -0.71109139 4.66159911 0 0 Z " fill="#8EB7FE" transform="translate(1838,38)"/>
<path d="M0 0 C-0.33 1.65 -0.66 3.3 -1 5 C-2.32 5.33 -3.64 5.66 -5 6 C-5.33 4.35 -5.66 2.7 -6 1 C-3.92446352 0.4465236 -2.15634036 0 0 0 Z " fill="#F6F9F8" transform="translate(720,508)"/>
<path d="M0 0 C0.66 0 1.32 0 2 0 C2.48198463 1.24891614 2.96045677 2.49918808 3.4375 3.75 C3.70433594 4.44609375 3.97117187 5.1421875 4.24609375 5.859375 C4.96146693 7.89059003 5.51365652 9.9035291 6 12 C5.01 12 4.02 12 3 12 C2.49166409 10.75336669 1.99368855 9.50250613 1.5 8.25 C1.2215625 7.55390625 0.943125 6.8578125 0.65625 6.140625 C0 4 0 4 0 0 Z " fill="#7E727C" transform="translate(1168,502)"/>
<path d="M0 0 C0.66 0 1.32 0 2 0 C2 4.29 2 8.58 2 13 C1.01 12.67 0.02 12.34 -1 12 C-0.67 8.04 -0.34 4.08 0 0 Z " fill="#827B84" transform="translate(1103,502)"/>
<path d="M0 0 C1.98 0 3.96 0 6 0 C4.625 2 4.625 2 3 4 C2.34 4 1.68 4 1 4 C1 6.97 1 9.94 1 13 C0.67 13 0.34 13 0 13 C0 8.71 0 4.42 0 0 Z " fill="#7A5E7B" transform="translate(1109,502)"/>
<path d="M0 0 C0.103125 0.639375 0.20625 1.27875 0.3125 1.9375 C0.539375 2.618125 0.76625 3.29875 1 4 C1.99 4.33 2.98 4.66 4 5 C3.01 5 2.02 5 1 5 C1.11398665 6.62580966 1.24155659 8.25067157 1.375 9.875 C1.44460938 10.77992188 1.51421875 11.68484375 1.5859375 12.6171875 C1.79568132 15.17941903 1.79568132 15.17941903 4 17 C2.68 16.67 1.36 16.34 0 16 C0 12.37 0 8.74 0 5 C-0.66 4.67 -1.32 4.34 -2 4 C-1.34 4 -0.68 4 0 4 C0 2.68 0 1.36 0 0 Z " fill="#472F5C" transform="translate(1027,498)"/>
<path d="M0 0 C0.103125 0.639375 0.20625 1.27875 0.3125 1.9375 C0.539375 2.618125 0.76625 3.29875 1 4 C1.99 4.33 2.98 4.66 4 5 C3.01 5 2.02 5 1 5 C1.11398665 6.62580966 1.24155659 8.25067157 1.375 9.875 C1.44460938 10.77992188 1.51421875 11.68484375 1.5859375 12.6171875 C1.79568132 15.17941903 1.79568132 15.17941903 4 17 C2.68 16.67 1.36 16.34 0 16 C0 12.37 0 8.74 0 5 C-0.66 4.67 -1.32 4.34 -2 4 C-1.34 4 -0.68 4 0 4 C0 2.68 0 1.36 0 0 Z " fill="#5D3247" transform="translate(780,498)"/>
<path d="M0 0 C0.103125 0.639375 0.20625 1.27875 0.3125 1.9375 C0.539375 2.618125 0.76625 3.29875 1 4 C1.99 4.33 2.98 4.66 4 5 C3.01 5 2.02 5 1 5 C1.11398665 6.62580966 1.24155659 8.25067157 1.375 9.875 C1.44460938 10.77992188 1.51421875 11.68484375 1.5859375 12.6171875 C1.79568132 15.17941903 1.79568132 15.17941903 4 17 C2.68 16.67 1.36 16.34 0 16 C0 12.37 0 8.74 0 5 C-0.66 4.67 -1.32 4.34 -2 4 C-1.34 4 -0.68 4 0 4 C0 2.68 0 1.36 0 0 Z " fill="#472F5C" transform="translate(726,498)"/>
<path d="M0 0 C0.99 0.33 1.98 0.66 3 1 C3.6875 3.0625 3.6875 3.0625 4 5 C1.36 5 -1.28 5 -4 5 C-2.68 3.35 -1.36 1.7 0 0 Z " fill="#FCFBF4" transform="translate(898,503)"/>
<path d="M0 0 C0.99 0.33 1.98 0.66 3 1 C3 2.32 3 3.64 3 5 C0.69 5 -1.62 5 -4 5 C-2.68 3.35 -1.36 1.7 0 0 Z " fill="#FDFAF4" transform="translate(1230,503)"/>
<path d="M0 0 C0.99 0.33 1.98 0.66 3 1 C3 2.32 3 3.64 3 5 C0.69 5 -1.62 5 -4 5 C-2.68 3.35 -1.36 1.7 0 0 Z " fill="#FDFAF4" transform="translate(705,503)"/>
<path d="M0 0 C-0.78375 0.53625 -1.5675 1.0725 -2.375 1.625 C-5.33426299 4.30242842 -6.04608256 6.18433025 -7 10 C-7.33 10 -7.66 10 -8 10 C-8.29296875 3.9453125 -8.29296875 3.9453125 -8 2 C-4.77208445 -0.1519437 -3.71599191 -0.20086443 0 0 Z " fill="#707E96" transform="translate(1013,502)"/>
<path d="M0 0 C3.3 0 6.6 0 10 0 C9.34 1.32 8.68 2.64 8 4 C5.36 3.34 2.72 2.68 0 2 C0 1.34 0 0.68 0 0 Z " fill="#8CB9FD" transform="translate(1849,38)"/>
<path d="M0 0 C2.475 0.495 2.475 0.495 5 1 C4.67 2.32 4.34 3.64 4 5 C2.68 5 1.36 5 0 5 C0 3.35 0 1.7 0 0 Z " fill="#F0F7FE" transform="translate(232,29)"/>
<path d="M0 0 C0.99 0 1.98 0 3 0 C1.98823563 3.40320742 1.35156418 4.75725331 -1.625 6.8125 C-2.40875 7.204375 -3.1925 7.59625 -4 8 C-2.87548273 5.0280615 -1.77706209 2.66559313 0 0 Z " fill="#7DB0FD" transform="translate(1865,41)"/>
<path d="M0 0 C0.66 0 1.32 0 2 0 C2.33 1.98 2.66 3.96 3 6 C1.68 6 0.36 6 -1 6 C-0.67 4.02 -0.34 2.04 0 0 Z " fill="#257DFD" transform="translate(271,38)"/>
<path d="M0 0 C0.33 0 0.66 0 1 0 C1.33 2.31 1.66 4.62 2 7 C2.99 7.33 3.98 7.66 5 8 C5 8.66 5 9.32 5 10 C3.35 10 1.7 10 0 10 C0 6.7 0 3.4 0 0 Z " fill="#89B7FD" transform="translate(1760,41)"/>
</svg>
