<?xml version="1.0" encoding="UTF-8"?>
<svg version="1.1" xmlns="http://www.w3.org/2000/svg" width="1011" height="601">
<path d="M0 0 C333.63 0 667.26 0 1011 0 C1011 198.33 1011 396.66 1011 601 C677.37 601 343.74 601 0 601 C0 402.67 0 204.34 0 0 Z " fill="#F9F9FA" transform="translate(0,0)"/>
<path d="M0 0 C0.74010257 -0.00436032 1.48020514 -0.00872064 2.24273506 -0.0132131 C4.73050564 -0.02418877 7.21772424 -0.01373675 9.70549107 -0.00342751 C11.50394604 -0.00688316 13.30239889 -0.0116471 15.1008473 -0.01760924 C20.04911047 -0.03016165 24.99720061 -0.02392958 29.94546449 -0.01465058 C35.27956827 -0.00787773 40.61364179 -0.01833259 45.9477396 -0.02659035 C56.39998616 -0.03994901 66.85216819 -0.03704036 77.3044173 -0.02835242 C85.79776934 -0.02158431 94.29110325 -0.02065538 102.78445721 -0.02392387 C103.99210492 -0.02438357 105.19975263 -0.02484327 106.44399573 -0.0253169 C108.89712568 -0.02627605 111.35025563 -0.02724869 113.80338556 -0.02823468 C136.82132108 -0.03679491 159.8392208 -0.02694469 182.85715044 -0.01083358 C202.61647549 0.00256847 222.37574766 0.00024366 242.13507175 -0.01358986 C265.0676565 -0.02963741 288.00020983 -0.03596909 310.9327994 -0.02675307 C313.37734003 -0.0257974 315.82188067 -0.02485429 318.26642132 -0.02392387 C320.07067062 -0.02322963 320.07067062 -0.02322963 321.91136939 -0.02252137 C330.39604417 -0.01992888 338.88069906 -0.0243081 347.36537075 -0.03136253 C357.70325051 -0.03976864 368.04106193 -0.03751619 378.37893384 -0.0215203 C383.65556948 -0.01362536 388.93209108 -0.01056682 394.20872593 -0.02046776 C399.03667376 -0.0293899 403.86440156 -0.02452276 408.69232935 -0.0085351 C410.44126345 -0.00517675 412.19021603 -0.00690495 413.93913829 -0.01416247 C416.31264252 -0.02325824 418.68538874 -0.01395588 421.05885315 0 C422.37832898 0.00048706 423.6978048 0.00097411 425.05726475 0.00147593 C430.20068186 0.54861144 433.43574484 2.12659556 436.93634129 5.91267967 C439.19692129 10.64246758 439.1492649 14.63677681 439.0884409 19.81502342 C439.08989613 20.81332176 439.09135136 21.8116201 439.09285069 22.84016991 C439.09119528 24.94477325 439.07967434 27.04938915 439.05889988 29.15389061 C439.02994216 32.36698125 439.03829986 35.57842079 439.05133152 38.79158592 C439.04509358 40.84107307 439.03670222 42.89055503 439.0259409 44.94002342 C439.02887653 45.89642723 439.03181217 46.85283104 439.03483677 47.83821678 C438.96081438 53.09706815 438.54194962 56.83482014 435.59234715 61.37752342 C431.2224715 65.33772323 427.09158665 65.52391802 421.43078995 65.5117445 C420.32409763 65.51527284 420.32409763 65.51527284 419.19504789 65.51887247 C416.70325475 65.52557126 414.21151365 65.52510398 411.71971226 65.52469444 C409.92298548 65.52799251 408.12625944 65.53171795 406.32953435 65.53583592 C401.37680878 65.54587034 396.42409534 65.54957502 391.47136104 65.55222523 C386.13586559 65.55612394 380.80037979 65.56570248 375.46489048 65.5744381 C362.5731589 65.59421339 349.68142651 65.60426946 336.78968355 65.61316589 C330.72311903 65.6175465 324.65655539 65.62291384 318.58999157 65.62815475 C298.43159733 65.64516708 278.27320363 65.65966263 258.11480331 65.6669035 C252.88197612 65.66881348 247.64914893 65.6707338 242.41632175 65.67268944 C240.46536524 65.67341505 240.46536524 65.67341505 238.47499547 65.67415532 C217.39186968 65.68246077 196.30880054 65.70780638 175.22569951 65.74027012 C153.59487704 65.77330657 131.9640834 65.79134911 110.33323556 65.79454774 C98.18227267 65.79671586 86.03139242 65.80550872 73.88045406 65.83100891 C63.53520413 65.85266919 53.19005689 65.86078936 42.84478685 65.85104213 C37.56407254 65.84648403 32.28357035 65.84847112 27.00288486 65.86780357 C22.17111476 65.88534027 17.33971299 65.88451516 12.5079395 65.86890628 C10.75759308 65.86651573 9.00722179 65.87092817 7.25691357 65.88273493 C4.88130074 65.89777041 2.50700718 65.88824049 0.13142776 65.87250805 C-0.89288472 65.88784136 -0.89288472 65.88784136 -1.93789038 65.90348443 C-6.84400881 65.83235367 -9.62249988 64.42851444 -13.40765285 61.37752342 C-17.0835705 56.21016132 -16.85998425 51.04457382 -16.8412466 44.94002342 C-16.84648846 43.94172508 -16.85173031 42.94342674 -16.857131 41.91487694 C-16.86353658 39.81031281 -16.86223324 37.7057128 -16.85369778 35.60115623 C-16.84518047 32.38794133 -16.87398239 29.17650078 -16.90569973 25.96346092 C-16.90731177 23.91398229 -16.90673415 21.86450051 -16.9037466 19.81502342 C-16.91498058 18.85861961 -16.92621456 17.90221581 -16.93778896 16.91683006 C-16.87889661 11.25962392 -16.34999378 7.75818347 -12.40765285 3.37752342 C-8.25121821 0.25992905 -5.13873233 0.00189709 0 0 Z " fill="#FEFEFE" transform="translate(217.40765285491943,228.6224765777588)"/>
<path d="M0 0 C1.75994041 -0.01702469 1.75994041 -0.01702469 3.55543518 -0.03439331 C4.83399384 -0.03146271 6.11255249 -0.0285321 7.42985535 -0.0255127 C8.79691256 -0.03285631 10.16396358 -0.04144339 11.53100586 -0.05117798 C15.23779531 -0.07337551 18.94436233 -0.07632546 22.65120912 -0.07443047 C25.74993026 -0.07431065 28.84860447 -0.08287956 31.94731253 -0.09120798 C39.26151237 -0.1104368 46.57559809 -0.11332826 53.88981628 -0.10656738 C61.42383575 -0.09993111 68.95736507 -0.12277506 76.49128515 -0.15988111 C82.96876839 -0.19062108 89.44609433 -0.20193338 95.92364901 -0.1980443 C99.78830809 -0.19598071 103.65258595 -0.20139456 107.51717567 -0.22593689 C111.15438773 -0.24827225 114.79080604 -0.24627108 118.42802238 -0.22600937 C120.38978228 -0.22099743 122.35155742 -0.24057028 124.31321716 -0.26101685 C131.54394243 -0.19243419 136.59493367 0.53028708 142.13761902 5.39440918 C146.19336623 9.82857904 145.58832928 15.18523958 145.57121277 20.88269043 C145.57645462 21.89985641 145.58169647 22.9170224 145.58709717 23.9650116 C145.59351142 26.11423837 145.59218812 28.26350028 145.58366394 30.41271973 C145.57517519 33.68525493 145.60389061 36.9560316 145.63566589 40.22839355 C145.63727869 42.32149199 145.63669888 44.4145935 145.63371277 46.50769043 C145.64494675 47.4787825 145.65618073 48.44987457 145.66775513 49.45039368 C145.60565958 55.56818804 144.95498829 60.46490623 141.13761902 65.39440918 C134.13103661 70.03386799 127.81850012 69.97052228 119.58073425 69.92785645 C118.22146167 69.93492453 116.86219695 69.94367327 115.50294495 69.95396423 C111.83144789 69.97636486 108.16038378 69.97354126 104.48884463 69.96464276 C101.41720786 69.95951495 98.34565116 69.96683964 95.27402264 69.97411484 C88.02641577 69.99108304 80.77901963 69.98757787 73.53141785 69.9708252 C66.06602891 69.95389186 58.6012242 69.96976156 51.13589901 70.00204808 C44.71270766 70.0287702 38.2896979 70.0360134 31.86645657 70.02753299 C28.03598588 70.02261319 24.20586688 70.02476814 20.3754406 70.04532051 C16.77427459 70.06372039 13.17394771 70.05766793 9.57282639 70.03312111 C7.62881416 70.02575411 5.68475696 70.04293358 3.74081421 70.0609436 C-3.50144081 69.982457 -7.50138046 69.39572041 -12.86238098 64.39440918 C-16.96922485 59.81571963 -16.3299837 54.2665162 -16.33113098 48.43347168 C-16.33874451 47.36954193 -16.34635803 46.30561218 -16.35420227 45.20944214 C-16.36499332 42.96187686 -16.36786044 40.71426148 -16.36335754 38.4666748 C-16.36238627 35.03808393 -16.40400017 31.61173903 -16.44831848 28.18347168 C-16.45352657 25.99597633 -16.45621366 23.80847323 -16.45613098 21.62097168 C-16.47252625 20.60097076 -16.48892151 19.58096985 -16.5058136 18.53005981 C-16.45202911 12.95620576 -15.89156724 9.2689797 -12.42353821 4.82394409 C-8.51556713 1.24545693 -5.26947164 0.01931215 0 0 Z " fill="#726CF6" transform="translate(693.8623809814453,226.6055908203125)"/>
<path d="M0 0 C0.74288012 -0.00495952 1.48576025 -0.00991903 2.25115189 -0.01502883 C4.74837827 -0.02801507 7.24507261 -0.01959083 9.74231243 -0.01129913 C11.54759259 -0.01618662 13.35286963 -0.02237576 15.15814131 -0.02975702 C20.12533581 -0.04619794 25.09237203 -0.04383017 30.05958426 -0.03838205 C35.41418425 -0.03571695 40.76874156 -0.05023392 46.12332439 -0.06247711 C56.61633941 -0.0835557 67.10929919 -0.08807056 77.60233287 -0.08628923 C86.1299941 -0.08498275 94.65763807 -0.08877987 103.18529606 -0.09621429 C105.63960177 -0.09831344 108.09390747 -0.10041104 110.54821318 -0.10250711 C111.76971128 -0.10355064 112.99120937 -0.10459417 114.24972256 -0.10566932 C137.36404624 -0.12458168 160.4783382 -0.12351851 183.59266641 -0.11669999 C204.74546838 -0.1111245 225.89814924 -0.13194851 247.05092291 -0.16506046 C268.76092852 -0.19878138 290.47087609 -0.21396774 312.18090838 -0.20934343 C324.3732739 -0.20709704 336.56552749 -0.21236673 348.75787067 -0.23723602 C359.13817671 -0.25822854 369.51830945 -0.2618615 379.89862255 -0.24293643 C385.19583648 -0.2337658 390.49272712 -0.23267633 395.78991604 -0.25329208 C400.63906393 -0.27195555 405.48762271 -0.26755049 410.33674785 -0.24474627 C412.09110412 -0.24054879 413.84550514 -0.24479896 415.59981415 -0.25834221 C431.85182176 -0.37526407 431.85182176 -0.37526407 438.56669903 5.38311005 C442.6795702 9.84665171 442.01712904 15.37769281 442.00029278 21.12529755 C442.00553463 22.16703125 442.01077648 23.20876495 442.01617718 24.28206635 C442.02259152 26.48256795 442.02126801 28.68310388 442.01274395 30.88359833 C442.00424608 34.23953031 442.03298556 37.59375287 442.0647459 40.9495163 C442.06635842 43.09144287 442.06577941 45.23337245 442.06279278 47.37529755 C442.07402676 48.37342468 442.08526073 49.37155182 442.09683514 50.39992523 C442.03531825 56.59249308 441.44098485 60.45348716 437.56669903 65.38311005 C432.60347962 68.7642956 428.92769438 69.96967816 422.88450909 69.88926792 C422.13902168 69.89538128 421.39353427 69.90149464 420.62545633 69.90779325 C418.13126306 69.9233747 415.63804475 69.91053521 413.14384747 69.89777374 C411.3361266 69.90309971 409.52841016 69.91016568 407.72070217 69.9188208 C402.75604748 69.93746818 397.79169066 69.9311359 392.82702351 69.92066777 C387.47178953 69.91368179 382.11661711 69.92966907 376.76140118 69.9426651 C366.27165065 69.96431993 355.78200854 69.96417446 345.292243 69.95603956 C336.76795433 69.94974296 328.24369732 69.95087347 319.71940899 69.95731163 C317.90045089 69.95866411 317.90045089 69.95866411 316.04474616 69.96004392 C313.58139101 69.96189509 311.11803586 69.96375765 308.65468073 69.96563148 C285.54895009 69.98221494 262.44328048 69.97348588 239.3375535 69.9566459 C218.190666 69.9419465 197.04392054 69.95657982 175.89705133 69.98541606 C154.1903722 70.01479559 132.48375866 70.02578667 110.77706051 70.01623386 C108.32270337 70.01521129 105.86834623 70.01421668 103.41398907 70.01325035 C101.60254347 70.01253577 101.60254347 70.01253577 99.75450301 70.01180675 C91.23919903 70.00964082 82.72395703 70.01945614 74.2086668 70.03402138 C63.83313099 70.05152077 53.45777635 70.0514616 43.08224773 70.02866972 C37.78717414 70.01750619 32.49242005 70.01441296 27.19736004 70.03297043 C22.35141953 70.04973558 17.50607816 70.04347793 12.66017675 70.01875364 C10.90590154 70.01385694 9.15157837 70.01742242 7.39734316 70.03024108 C5.01380162 70.0464032 2.63233686 70.03179904 0.24888897 70.00952244 C-0.43342431 70.02151412 -1.11573758 70.03350579 -1.81872702 70.04586086 C-7.2269392 69.94253468 -10.56316614 67.93650504 -14.43330097 64.38311005 C-18.20738007 59.17153947 -17.90079947 53.73821778 -17.90205097 47.5432663 C-17.9096645 46.50294754 -17.91727802 45.46262878 -17.92512226 44.39078522 C-17.93590109 42.19627526 -17.93878541 40.00171411 -17.93427753 37.80718231 C-17.93330512 34.45987245 -17.9749565 31.11485501 -18.01923847 27.76787567 C-18.02444587 25.63051064 -18.02713366 23.49313767 -18.02705097 21.3557663 C-18.04344624 20.36077621 -18.0598415 19.36578613 -18.07673359 18.34064484 C-18.02220839 12.82625334 -17.41195018 9.22137325 -13.9944582 4.82157135 C-9.62696056 0.79732815 -5.79842115 -0.05443225 0 0 Z M-14.28339863 8.48686981 C-16.02350798 12.86965479 -15.86125776 17.04879794 -15.83173847 21.7229538 C-15.83460865 22.72266708 -15.83747883 23.72238037 -15.84043598 24.752388 C-15.842474 26.8629437 -15.8369625 28.9735184 -15.82441425 31.08403778 C-15.80837418 34.30590562 -15.82426356 37.52651579 -15.84345722 40.74834442 C-15.84147441 42.80238364 -15.83762996 44.85642207 -15.83173847 46.9104538 C-15.83781116 47.86999466 -15.84388386 48.82953552 -15.85014057 49.81815338 C-15.79550757 55.04293557 -15.56689015 58.98707065 -12.43330097 63.38311005 C-7.83803102 67.08531812 -4.75925708 67.88320467 1.09739971 67.8836813 C1.83865613 67.88919546 2.57991254 67.89470963 3.34363127 67.90039089 C5.82945899 67.91399492 8.31428831 67.89908463 10.80009747 67.88431549 C12.59941707 67.88820804 14.39873361 67.89384812 16.19804287 67.90108639 C21.14409848 67.9158656 26.08983652 67.90564512 31.035882 67.89134967 C36.36929052 67.88025781 41.70265385 67.89217657 47.03605938 67.90119171 C57.4848482 67.91513834 67.93351633 67.90755746 78.38229942 67.89251613 C90.54536684 67.87567224 102.70840404 67.87886425 114.87147951 67.88261021 C136.57069169 67.8884914 158.26984588 67.87430704 179.96904278 67.84966278 C201.03416906 67.82574127 222.09921785 67.8186582 243.16435528 67.82915497 C266.09218949 67.84055942 289.01998784 67.84250009 311.94782162 67.82805687 C314.39178498 67.826531 316.83574835 67.82501065 319.27971172 67.82349586 C320.4822496 67.82273805 321.68478748 67.82198024 322.9237659 67.82119946 C331.40594531 67.81645297 339.88810873 67.81831065 348.3702879 67.82256126 C358.70448828 67.8274835 369.03861534 67.8215233 379.37279892 67.80166697 C384.64741322 67.79178256 389.92191577 67.78670227 395.19653606 67.79455948 C400.02259875 67.80160152 404.84843566 67.79484625 409.67446852 67.77695585 C411.42269769 67.77290176 413.17094734 67.77392726 414.91916895 67.78047471 C417.29171682 67.78860163 419.66349964 67.77834153 422.03599834 67.76342678 C423.3549321 67.76239765 424.67386585 67.76136852 426.0327673 67.76030821 C430.73752051 67.25814111 434.1770613 65.9165034 437.37919903 62.38311005 C439.27792733 59.18525185 439.698469 56.5561169 439.74370098 52.91509247 C439.75653622 52.01373062 439.76937145 51.11236877 439.78259563 50.18369293 C439.78998257 49.21180527 439.7973695 48.2399176 439.80498028 47.2385788 C439.81305202 46.23603561 439.82112377 45.23349243 439.82944012 44.20056915 C439.84327266 42.07808406 439.85399852 39.9555768 439.86186504 37.83306122 C439.87907765 34.59345443 439.92297178 31.35486829 439.96708965 28.11553192 C439.9772169 26.05238838 439.9857329 23.98923616 439.99248028 21.9260788 C440.01874241 20.47735634 440.01874241 20.47735634 440.04553509 18.99936676 C440.02730998 13.325337 439.60089312 9.72682023 435.56669903 5.38311005 C430.92476691 2.54833786 427.43759752 2.00700804 422.03599834 2.00279331 C420.92411372 1.99580343 420.92411372 1.99580343 419.78976679 1.98867235 C417.30409767 1.97671449 414.81897435 1.98612063 412.33330059 1.99542999 C410.53398207 1.99125743 408.73466618 1.98578034 406.93535519 1.97911018 C401.98935647 1.9646269 397.04352399 1.96890929 392.09751606 1.97627699 C386.76410758 1.98099918 381.43073555 1.96850729 376.09733868 1.95825958 C365.64857547 1.94104812 355.19987234 1.94023637 344.75109863 1.94547249 C336.26063012 1.94951073 327.77017939 1.94807474 319.27971172 1.94272423 C317.46844339 1.94160159 317.46844339 1.94160159 315.62058377 1.94045628 C313.16769536 1.93892484 310.71480695 1.93738649 308.26191854 1.93584131 C285.25065742 1.922108 262.23943027 1.92756001 239.22816992 1.93902653 C218.16462778 1.94896177 197.10117345 1.93601466 176.03764486 1.91209234 C154.42027956 1.88772555 132.8029552 1.87808738 111.18557644 1.88474506 C99.04472837 1.88824241 86.90394787 1.88597113 74.76311016 1.86849403 C64.42890066 1.8538024 54.09480631 1.85309687 43.76059914 1.87056495 C38.48594793 1.87910202 33.21150269 1.88115857 27.93686199 1.86591339 C23.11074904 1.85213698 18.28501989 1.8567382 13.45892954 1.87615263 C11.71069722 1.87993466 9.96243466 1.87692773 8.21422911 1.86654098 C5.84148689 1.85344324 3.47008355 1.86488853 1.09739971 1.8825388 C-0.22153404 1.88264613 -1.5404678 1.88275347 -2.89936924 1.88286406 C-7.88345089 2.58838613 -10.99129557 4.74339501 -14.28339863 8.48686981 Z " fill="#60A5FA" transform="translate(216.43330097198486,226.61688995361328)"/>
<path d="M0 0 C18.41935484 0 18.41935484 0 24.3125 4.9375 C27.89232552 9.31284231 28.43513546 12.84202099 28.3203125 18.39453125 C27.69994888 23.44065974 25.6349407 27.4161512 22 30.9375 C15.02473694 34.6431085 8.12915768 33 0 33 C0 22.11 0 11.22 0 0 Z " fill="#846AF6" transform="translate(458,60)"/>
<path d="M0 0 C2.64 0 5.28 0 8 0 C8.33 3.63 8.66 7.26 9 11 C9.99 10.01 10.98 9.02 12 8 C15.03654735 7.46016936 17.0209644 7.38810275 19.6875 9.0546875 C21.8886464 10.84311895 23.72067693 12.44135386 25 15 C25.55941256 20.98141127 25.45873534 25.87594764 22 31 C17.93150591 33.71232939 15.83523216 33.30699887 11 33 C10.34 32.34 9.68 31.68 9 31 C8.67 31.66 8.34 32.32 8 33 C5.36 33 2.72 33 0 33 C0 22.11 0 11.22 0 0 Z " fill="#667AF6" transform="translate(571,60)"/>
<path d="M0 0 C2.64 0 5.28 0 8 0 C8 10.89 8 21.78 8 33 C5.69 33 3.38 33 1 33 C0.67 32.01 0.34 31.02 0 30 C-0.33 30.495 -0.66 30.99 -1 31.5 C-3.58190384 33.43642788 -5.80573616 33.61773872 -8.9921875 33.453125 C-11.78190051 32.82353996 -13.50979721 31.50709242 -15.15234375 29.1796875 C-17.0208098 24.37506052 -16.90982852 19.01346889 -16 14 C-14.18632826 11.30360049 -12.917568 9.458784 -10 8 C-5.94857881 7.74139865 -4.45662331 7.69558446 -1 10 C-0.67 6.7 -0.34 3.4 0 0 Z " fill="#4685F6" transform="translate(688,60)"/>
<path d="M0 0 C3.39995627 2.30448902 5.54096768 4.99414447 6.46484375 9.03125 C6.68809658 13.67490891 5.50110876 17.15901155 3 21 C-0.92361693 24.63779053 -4.2135452 24.50273601 -9.3671875 24.3515625 C-12.97799234 23.86940755 -14.67009725 22.78085167 -17 20 C-19.32765007 16.00974274 -19.99904523 11.51705065 -19 7 C-14.32626023 -0.68144612 -8.58890842 -2.35695626 0 0 Z " fill="#5C7CF6" transform="translate(618,69)"/>
<path d="M0 0 C2.64 0 5.28 0 8 0 C8.33 5.28 8.66 10.56 9 16 C9.804375 14.68 10.60875 13.36 11.4375 12 C14.25281435 8.1652313 14.25281435 8.1652313 17.40234375 7.46875 C19.64930383 7.4971476 21.78224595 7.64515935 24 8 C24 8.66 24 9.32 24 10 C23.34 10 22.68 10 22 10 C21.731875 10.5775 21.46375 11.155 21.1875 11.75 C20 14 20 14 18.3125 16 C16.78647791 17.85258294 16.78647791 17.85258294 17.2265625 19.765625 C18.21435673 22.61925277 19.58851995 25.11565268 21.0625 27.75 C21.61035156 28.73484375 22.15820312 29.7196875 22.72265625 30.734375 C23.14417969 31.48203125 23.56570313 32.2296875 24 33 C20.87278573 33.49054342 18.10289738 33.70685769 15 33 C12.73775114 30.59537184 11.46515285 27.93030569 10 25 C9.67 25 9.34 25 9 25 C8.67 27.64 8.34 30.28 8 33 C5.36 33 2.72 33 0 33 C0 22.11 0 11.22 0 0 Z " fill="#9268F7" transform="translate(421,60)"/>
<path d="M0 0 C2.6875 1.6875 2.6875 1.6875 4.6875 4.6875 C4.91455078 6.7722168 4.91455078 6.7722168 4.8828125 9.13671875 C4.87636719 9.98427734 4.86992188 10.83183594 4.86328125 11.70507812 C4.84652344 12.58615234 4.82976563 13.46722656 4.8125 14.375 C4.80347656 15.26767578 4.79445313 16.16035156 4.78515625 17.08007812 C4.76159748 19.28282314 4.72870329 21.48502588 4.6875 23.6875 C1.02083333 23.6875 -2.64583333 23.6875 -6.3125 23.6875 C-8.2615625 23.81125 -8.2615625 23.81125 -10.25 23.9375 C-13.29395285 23.92628839 -14.16328395 23.78449043 -16.8125 22.0625 C-18.78192769 18.94423949 -18.99177401 17.31029473 -18.3125 13.6875 C-14.88262157 9.70441537 -11.18445182 9.01134721 -6.203125 8.27734375 C-5.57921875 8.08269531 -4.9553125 7.88804688 -4.3125 7.6875 C-3.9825 6.6975 -3.6525 5.7075 -3.3125 4.6875 C-4.34375 5.0175 -5.375 5.3475 -6.4375 5.6875 C-9.79676709 6.6590192 -12.80356202 6.85866771 -16.3125 6.6875 C-16.3125 2.6875 -16.3125 2.6875 -15 1 C-10.49711626 -2.50224291 -5.04442877 -1.99873593 0 0 Z " fill="#5681F6" transform="translate(645.3125,69.3125)"/>
<path d="M0 0 C3.27191292 1.35815253 5.49895506 2.49895506 8 5 C8.22705078 7.06298828 8.22705078 7.06298828 8.1953125 9.5703125 C8.18886719 10.46621094 8.18242188 11.36210938 8.17578125 12.28515625 C8.15902344 13.22230469 8.14226563 14.15945312 8.125 15.125 C8.11597656 16.06988281 8.10695313 17.01476562 8.09765625 17.98828125 C8.07404522 20.32577292 8.04111516 22.66276123 8 25 C5.69 25 3.38 25 1 25 C0.67 24.34 0.34 23.68 0 23 C-0.66 23.66 -1.32 24.32 -2 25 C-5.05698097 25.56064323 -7.94013454 25.53262312 -11 25 C-13.82972843 22.58437817 -14.77014622 21.04711168 -15.5625 17.4375 C-14.75290014 13.92923396 -12.95201113 12.92223981 -10 11 C-6.52674819 9.8422494 -3.63932552 9.93133348 0 10 C0 8.68 0 7.36 0 6 C-1.03125 6.33 -2.0625 6.66 -3.125 7 C-6.48426709 7.9715192 -9.49106202 8.17116771 -13 8 C-13.33 7.34 -13.66 6.68 -14 6 C-9.07399224 0.94436046 -7.17569792 -0.47837986 0 0 Z " fill="#7D70F6" transform="translate(504,68)"/>
<path d="M0 0 C2.31 0 4.62 0 7 0 C7.33 3.96 7.66 7.92 8 12 C9.32 10.68 10.64 9.36 12 8 C14.9375 7.4375 14.9375 7.4375 18 8 C20.92718724 10.07128454 22.76392515 11.6533232 23.40063477 15.28540039 C23.49216237 17.97743388 23.43609731 20.6218816 23.3125 23.3125 C23.28994141 24.24384766 23.26738281 25.17519531 23.24414062 26.13476562 C23.18542078 28.4248396 23.10336858 30.71157875 23 33 C20.69 33 18.38 33 16 33 C15.67 27.39 15.34 21.78 15 16 C13.35 15.67 11.7 15.34 10 15 C7.06552643 17.93447357 7.53841577 21.18259456 7.375 25.125 C7.33632813 25.87910156 7.29765625 26.63320312 7.2578125 27.41015625 C7.16348969 29.27303184 7.08065338 31.13648255 7 33 C4.69 33 2.38 33 0 33 C0 22.11 0 11.22 0 0 Z " fill="#6971F6" transform="translate(543,60)"/>
<path d="M0 0 C5.625 2.25 5.625 2.25 7 5 C7.08372659 6.52148326 7.10730027 8.04655778 7.09765625 9.5703125 C7.09443359 10.46621094 7.09121094 11.36210938 7.08789062 12.28515625 C7.07951172 13.22230469 7.07113281 14.15945312 7.0625 15.125 C7.05798828 16.06988281 7.05347656 17.01476562 7.04882812 17.98828125 C7.03702357 20.32558387 7.02055759 22.66276061 7 25 C4.69 25 2.38 25 0 25 C0 24.34 0 23.68 0 23 C-0.99 23.66 -1.98 24.32 -3 25 C-9.97763578 25.66453674 -9.97763578 25.66453674 -13.5 23.375 C-15.45562482 20.27859404 -15.60024477 18.60146865 -15 15 C-13.2470647 12.13156043 -11.73052611 11.20152444 -8.5078125 10.3125 C-6.01086655 9.80320791 -3.52164583 9.36573489 -1 9 C-1 8.34 -1 7.68 -1 7 C-3.97 6.505 -3.97 6.505 -7 6 C-7 6.66 -7 7.32 -7 8 C-9.31 7.67 -11.62 7.34 -14 7 C-11.25971568 0.37764623 -6.91973656 -1.00940495 0 0 Z " fill="#9E5FF6" transform="translate(383,68)"/>
<path d="M0 0 C9.24 0 18.48 0 28 0 C28 2.31 28 4.62 28 7 C24.7 7 21.4 7 18 7 C18 15.58 18 24.16 18 33 C15.36 33 12.72 33 10 33 C10 24.42 10 15.84 10 7 C6.7 7 3.4 7 0 7 C0 4.69 0 2.38 0 0 Z " fill="#A861F7" transform="translate(341,60)"/>
<path d="M0 0 C3.13150836 1.36152537 4.55823799 2.26372999 6.3125 5.1875 C6.539375 5.785625 6.76625 6.38375 7 7 C3.625 7.625 3.625 7.625 0 8 C-0.66 7.34 -1.32 6.68 -2 6 C-4.58354218 5.83312552 -4.58354218 5.83312552 -7 6 C-7 6.99 -7 7.98 -7 9 C-5.87851562 9.14695312 -5.87851562 9.14695312 -4.734375 9.296875 C3.22200393 10.50491159 3.22200393 10.50491159 6.75 12.75 C8 15 8 15 8.0625 18 C6.65350908 21.9783273 5.79464536 23.06547492 2 25 C-2.63660361 25.68619168 -7.6700567 26.30457569 -11.890625 23.94140625 C-13.25 22.625 -13.25 22.625 -15 20 C-15 19.34 -15 18.68 -15 18 C-11.625 17.375 -11.625 17.375 -8 17 C-7.34 17.66 -6.68 18.32 -6 19 C-3.41645782 19.16687448 -3.41645782 19.16687448 -1 19 C-1 18.34 -1 17.68 -1 17 C-1.67546875 16.82984375 -2.3509375 16.6596875 -3.046875 16.484375 C-12.45874587 13.92739274 -12.45874587 13.92739274 -15 10 C-15.5625 7.5 -15.5625 7.5 -15 5 C-10.23829168 0.4889079 -6.5082582 -0.69954407 0 0 Z " fill="#7572F6" transform="translate(531,68)"/>
<path d="M0 0 C3.46892258 1.28478614 5.39531636 2.0380033 7.375 5.1875 C7.58125 5.785625 7.7875 6.38375 8 7 C4.625 7.625 4.625 7.625 1 8 C0.34 7.34 -0.32 6.68 -1 6 C-2.32 6 -3.64 6 -5 6 C-5 6.99 -5 7.98 -5 9 C-3.84371094 9.29003906 -3.84371094 9.29003906 -2.6640625 9.5859375 C-1.66117187 9.84632812 -0.65828125 10.10671875 0.375 10.375 C1.37273437 10.63023438 2.37046875 10.88546875 3.3984375 11.1484375 C6 12 6 12 8 14 C8.51651858 17.98457188 8.62759666 20.1258475 6.25 23.4375 C1.24745812 25.84256821 -3.55164129 25.76006109 -9 25 C-12.25 23.1875 -12.25 23.1875 -14 21 C-14 20.01 -14 19.02 -14 18 C-10.535 17.505 -10.535 17.505 -7 17 C-6.67 17.66 -6.34 18.32 -6 19 C-4.02 19 -2.04 19 0 19 C0 18.34 0 17.68 0 17 C-0.75925781 16.82984375 -1.51851563 16.6596875 -2.30078125 16.484375 C-3.29464844 16.24203125 -4.28851563 15.9996875 -5.3125 15.75 C-6.79169922 15.40195313 -6.79169922 15.40195313 -8.30078125 15.046875 C-11.38289827 13.85149531 -12.36651577 12.82884852 -14 10 C-14.5625 7.5625 -14.5625 7.5625 -14 5 C-9.75923328 0.22913744 -6.31088687 -1.15657688 0 0 Z " fill="#9762F6" transform="translate(409,68)"/>
<path d="M0 0 C0.45890625 0.40992188 0.9178125 0.81984375 1.390625 1.2421875 C2.31101562 2.05042969 2.31101562 2.05042969 3.25 2.875 C3.85328125 3.40867187 4.4565625 3.94234375 5.078125 4.4921875 C6.97418746 5.9797487 8.81290005 7.00322436 11 8 C11.68835938 7.22462891 11.68835938 7.22462891 12.390625 6.43359375 C13.00421875 5.77488281 13.6178125 5.11617188 14.25 4.4375 C14.85328125 3.77621094 15.4565625 3.11492187 16.078125 2.43359375 C18 1 18 1 20.234375 1.28515625 C21.10835937 1.63900391 21.10835937 1.63900391 22 2 C21.67566492 7.35152885 18.50295176 10.28280043 15 14 C15.49371094 14.38671875 15.98742187 14.7734375 16.49609375 15.171875 C17.13675781 15.69265625 17.77742187 16.2134375 18.4375 16.75 C19.07558594 17.26046875 19.71367188 17.7709375 20.37109375 18.296875 C22.18810554 20.19667629 22.60423197 21.43586908 23 24 C21.02 24.99 21.02 24.99 19 26 C16.36 23.69 13.72 21.38 11 19 C6.96049732 20.72784402 6.96049732 20.72784402 4.5 23.6875 C3.675 24.450625 2.85 25.21375 2 26 C-0.3125 25.8125 -0.3125 25.8125 -2 25 C-1.67566492 19.64847115 1.49704824 16.71719957 5 13 C4.24203125 12.32904297 4.24203125 12.32904297 3.46875 11.64453125 C-1.90394511 6.64493997 -1.90394511 6.64493997 -2.4375 3.0625 C-2.293125 2.381875 -2.14875 1.70125 -2 1 C-1.34 0.67 -0.68 0.34 0 0 Z " fill="#7866B7" transform="translate(782,445)"/>
<path d="M0 0 C0.45890625 0.40992188 0.9178125 0.81984375 1.390625 1.2421875 C2.31101562 2.05042969 2.31101562 2.05042969 3.25 2.875 C3.85328125 3.40867187 4.4565625 3.94234375 5.078125 4.4921875 C6.97418746 5.9797487 8.81290005 7.00322436 11 8 C11.68835938 7.22462891 11.68835938 7.22462891 12.390625 6.43359375 C13.00421875 5.77488281 13.6178125 5.11617188 14.25 4.4375 C14.85328125 3.77621094 15.4565625 3.11492187 16.078125 2.43359375 C18 1 18 1 20.234375 1.28515625 C21.10835937 1.63900391 21.10835937 1.63900391 22 2 C21.67566492 7.35152885 18.50295176 10.28280043 15 14 C15.49371094 14.38671875 15.98742187 14.7734375 16.49609375 15.171875 C17.13675781 15.69265625 17.77742187 16.2134375 18.4375 16.75 C19.07558594 17.26046875 19.71367188 17.7709375 20.37109375 18.296875 C22.18810554 20.19667629 22.60423197 21.43586908 23 24 C21.02 24.99 21.02 24.99 19 26 C16.36 23.69 13.72 21.38 11 19 C6.96049732 20.72784402 6.96049732 20.72784402 4.5 23.6875 C3.675 24.450625 2.85 25.21375 2 26 C-0.3125 25.8125 -0.3125 25.8125 -2 25 C-1.67566492 19.64847115 1.49704824 16.71719957 5 13 C4.24203125 12.32904297 4.24203125 12.32904297 3.46875 11.64453125 C-1.90394511 6.64493997 -1.90394511 6.64493997 -2.4375 3.0625 C-2.293125 2.381875 -2.14875 1.70125 -2 1 C-1.34 0.67 -0.68 0.34 0 0 Z " fill="#7866B7" transform="translate(782,350)"/>
<path d="M0 0 C0 2.31 0 4.62 0 7 C-2.31 7.33 -4.62 7.66 -7 8 C-7.33 13.61 -7.66 19.22 -8 25 C-10.31 25 -12.62 25 -15 25 C-15 17.08 -15 9.16 -15 1 C-12.69 1 -10.38 1 -8 1 C-7.67 1.66 -7.34 2.32 -7 3 C-6.5875 2.505 -6.175 2.01 -5.75 1.5 C-4 0 -4 0 0 0 Z " fill="#497FF6" transform="translate(670,68)"/>
<path d="M0 0 C7 0 7 0 9.9375 1.3125 C12.77292054 5.00713888 12.6476922 7.8638728 12.41015625 12.42578125 C12 15 12 15 10.5 17.6875 C8 19 8 19 0 19 C0 12.73 0 6.46 0 0 Z " fill="#F7F8FA" transform="translate(466,67)"/>
<path d="M0 0 C0.99 0 1.98 0 3 0 C3 0.99 3 1.98 3 3 C3.66 3 4.32 3 5 3 C5.33 3.66 5.66 4.32 6 5 C6.99 4.34 7.98 3.68 9 3 C12.0625 2.75 12.0625 2.75 15 3 C17 5 17 5 17.1953125 7.3828125 C17.17210937 8.28773438 17.14890625 9.19265625 17.125 10.125 C17.10695313 11.03507813 17.08890625 11.94515625 17.0703125 12.8828125 C17.04710937 13.58148438 17.02390625 14.28015625 17 15 C5.33333333 15 5.33333333 15 1 14 C0 13 0 13 -0.09765625 11.15234375 C-0.06510417 9.1015625 -0.03255208 7.05078125 0 5 C-0.66 5 -1.32 5 -2 5 C-2 4.34 -2 3.68 -2 3 C-1.34 3 -0.68 3 0 3 C0 2.01 0 1.02 0 0 Z " fill="#F1EFEB" transform="translate(306,123)"/>
<path d="M0 0 C0.66 0 1.32 0 2 0 C2 0.99 2 1.98 2 3 C3.39025391 2.98259766 3.39025391 2.98259766 4.80859375 2.96484375 C6.00613281 2.95582031 7.20367187 2.94679688 8.4375 2.9375 C9.63246094 2.92589844 10.82742188 2.91429687 12.05859375 2.90234375 C15 3 15 3 16 4 C16.07226502 5.85287502 16.0838122 7.70833878 16.0625 9.5625 C16.05347656 10.57441406 16.04445313 11.58632813 16.03515625 12.62890625 C16.02355469 13.41136719 16.01195312 14.19382812 16 15 C13.52076199 15.02685095 11.0418116 15.04676547 8.5625 15.0625 C7.85544922 15.07087891 7.14839844 15.07925781 6.41992188 15.08789062 C4.61306441 15.09653588 2.80612397 15.05220011 1 15 C0 14 0 14 -0.09765625 11.71484375 C-0.08025391 10.34005859 -0.08025391 10.34005859 -0.0625 8.9375 C-0.05347656 8.01839844 -0.04445313 7.09929687 -0.03515625 6.15234375 C-0.02355469 5.44207031 -0.01195312 4.73179687 0 4 C-0.66 3.67 -1.32 3.34 -2 3 C-1.34 3 -0.68 3 0 3 C0 2.01 0 1.02 0 0 Z " fill="#F4F9F9" transform="translate(342,255)"/>
<path d="M0 0 C8.20815451 -0.48283262 8.20815451 -0.48283262 11.5625 1.5625 C13.58925458 4.99917081 13.6198676 7.07417186 13 11 C11 13.9375 11 13.9375 8 16 C5.36 16 2.72 16 0 16 C0 10.72 0 5.44 0 0 Z " fill="#444353" transform="translate(281,356)"/>
<path d="M0 0 C0.99 0 1.98 0 3 0 C3 5.61 3 11.22 3 17 C1.39125 17.061875 -0.2175 17.12375 -1.875 17.1875 C-2.77992188 17.22230469 -3.68484375 17.25710938 -4.6171875 17.29296875 C-5.79667969 17.14794922 -5.79667969 17.14794922 -7 17 C-9.46324069 13.30513897 -9.38991688 11.36706908 -9 7 C-7.8125 5 -7.8125 5 -6 4 C-3.3125 4.3125 -3.3125 4.3125 -1 5 C-0.67 3.35 -0.34 1.7 0 0 Z " fill="#EDF1FE" transform="translate(748,253)"/>
<path d="M0 0 C0.99 0 1.98 0 3 0 C3 5.61 3 11.22 3 17 C1.39125 17.061875 -0.2175 17.12375 -1.875 17.1875 C-2.77992188 17.22230469 -3.68484375 17.25710938 -4.6171875 17.29296875 C-5.79667969 17.14794922 -5.79667969 17.14794922 -7 17 C-9.46943529 13.29584707 -9.46913089 11.37855495 -9 7 C-7.25 5 -7.25 5 -5 4 C-2.75 4.3125 -2.75 4.3125 -1 5 C-0.67 3.35 -0.34 1.7 0 0 Z " fill="#EEF3FE" transform="translate(734,253)"/>
<path d="M0 0 C1.423125 -0.061875 2.84625 -0.12375 4.3125 -0.1875 C5.51326172 -0.23970703 5.51326172 -0.23970703 6.73828125 -0.29296875 C9 0 9 0 10.80859375 1.35546875 C12 3 12 3 11.75 5.5 C11.19717158 7.34276141 10.60839041 9.17482878 10 11 C10.87914688 13.6569191 10.87914688 13.6569191 12 16 C11.01 16 10.02 16 9 16 C8.34 14.02 7.68 12.04 7 10 C5.68 10 4.36 10 3 10 C3 11.98 3 13.96 3 16 C2.01 16 1.02 16 0 16 C0 10.72 0 5.44 0 0 Z " fill="#685053" transform="translate(297,356)"/>
<path d="M0 0 C1.21816406 0.03480469 1.21816406 0.03480469 2.4609375 0.0703125 C3.68683594 0.09738281 3.68683594 0.09738281 4.9375 0.125 C5.87722656 0.15980469 5.87722656 0.15980469 6.8359375 0.1953125 C6.91670713 2.65429905 6.97630893 5.11064992 7.0234375 7.5703125 C7.06114258 8.61832031 7.06114258 8.61832031 7.09960938 9.6875 C7.12890625 11.71875 7.12890625 11.71875 6.8359375 15.1953125 C3.62784835 17.3340386 2.55895253 17.67262212 -1.1640625 17.1953125 C-1.8240625 16.2053125 -2.4840625 15.2153125 -3.1640625 14.1953125 C-0.8540625 14.1953125 1.4559375 14.1953125 3.8359375 14.1953125 C3.8359375 13.2053125 3.8359375 12.2153125 3.8359375 11.1953125 C3.0728125 11.4221875 2.3096875 11.6490625 1.5234375 11.8828125 C-1.1640625 12.1953125 -1.1640625 12.1953125 -2.9765625 11.1953125 C-4.78023821 8.15754288 -4.47785274 5.64700518 -4.1640625 2.1953125 C-2.1640625 0.1953125 -2.1640625 0.1953125 0 0 Z " fill="#7E7D89" transform="translate(370.1640625,125.8046875)"/>
<path d="M0 0 C2.32421875 0.06640625 2.32421875 0.06640625 5 1 C6.2287699 3.3998938 7.04436044 5.39634323 7.8125 7.9375 C8.02841797 8.58396484 8.24433594 9.23042969 8.46679688 9.89648438 C10 14.58370536 10 14.58370536 10 17 C8.68 17 7.36 17 6 17 C5.67 16.01 5.34 15.02 5 14 C2.03 13.505 2.03 13.505 -1 13 C-1.33 14.32 -1.66 15.64 -2 17 C-2.99 17 -3.98 17 -5 17 C-3.83348574 11.07136283 -2.24480642 5.61201606 0 0 Z " fill="#E3E9FD" transform="translate(714,253)"/>
<path d="M0 0 C0.99 0 1.98 0 3 0 C3 5.61 3 11.22 3 17 C-3.8359375 17.1953125 -3.8359375 17.1953125 -6 17 C-8 15 -8 15 -8.265625 13.125 C-8.26046875 12.42375 -8.2553125 11.7225 -8.25 11 C-8.25515625 10.29875 -8.2603125 9.5975 -8.265625 8.875 C-8 7 -8 7 -6 5 C-2.875 4.875 -2.875 4.875 0 5 C0 3.35 0 1.7 0 0 Z " fill="#A5A8B5" transform="translate(246,253)"/>
<path d="M0 0 C6.8359375 -0.1953125 6.8359375 -0.1953125 9 0 C11 2 11 2 11.1875 4.9375 C11 8 11 8 10 11 C10.87914688 13.6569191 10.87914688 13.6569191 12 16 C10.125 15.75 10.125 15.75 8 15 C7.33333333 13.66666667 6.66666667 12.33333333 6 11 C3.94999129 10.19471111 3.94999129 10.19471111 2 10 C2 11.98 2 13.96 2 16 C1.34 16 0.68 16 0 16 C0 10.72 0 5.44 0 0 Z " fill="#444355" transform="translate(281,451)"/>
<path d="M0 0 C6.8359375 -0.1953125 6.8359375 -0.1953125 9 0 C11 2 11 2 11.25 5.4375 C11 9 11 9 9 12 C5.875 12.1875 5.875 12.1875 3 12 C2.67 13.65 2.34 15.3 2 17 C1.34 17 0.68 17 0 17 C0 11.39 0 5.78 0 0 Z " fill="#89818B" transform="translate(623,126)"/>
<path d="M0 0 C1.32 0 2.64 0 4 0 C5.703125 2.1875 5.703125 2.1875 7.25 5 C8.03117187 6.3921875 8.03117187 6.3921875 8.828125 7.8125 C9.21484375 8.534375 9.6015625 9.25625 10 10 C10.33 6.7 10.66 3.4 11 0 C11.99 0 12.98 0 14 0 C14 5.28 14 10.56 14 16 C12.68 16 11.36 16 10 16 C8.296875 13.8125 8.296875 13.8125 6.75 11 C6.22921875 10.071875 5.7084375 9.14375 5.171875 8.1875 C4.78515625 7.465625 4.3984375 6.74375 4 6 C3.67 9.3 3.34 12.6 3 16 C2.01 16 1.02 16 0 16 C0 10.72 0 5.44 0 0 Z " fill="#4A6487" transform="translate(312,451)"/>
<path d="M0 0 C0.66 0 1.32 0 2 0 C2 5.28 2 10.56 2 16 C-4.8359375 16.29296875 -4.8359375 16.29296875 -7 16 C-9.44897847 12.32653229 -9.31537716 10.33643601 -9 6 C-7 4 -7 4 -3.875 3.875 C-2.92625 3.91625 -1.9775 3.9575 -1 4 C-0.67 2.68 -0.34 1.36 0 0 Z " fill="#8A8891" transform="translate(667,122)"/>
<path d="M0 0 C0.66 0 1.32 0 2 0 C2 5.61 2 11.22 2 17 C-6 17 -6 17 -8 15.3125 C-9.19862599 12.5406774 -9.52258446 10.98619691 -9 8 C-7.25 5.625 -7.25 5.625 -5 4 C-2.75 4.25 -2.75 4.25 -1 5 C-0.67 3.35 -0.34 1.7 0 0 Z " fill="#ADACB6" transform="translate(260,253)"/>
<path d="M0 0 C0.66 0 1.32 0 2 0 C2.33 1.32 2.66 2.64 3 4 C3.94875 3.938125 4.8975 3.87625 5.875 3.8125 C6.90625 3.874375 7.9375 3.93625 9 4 C11.31332486 7.46998729 11.33957563 8.92509248 11 13 C10.01 14.485 10.01 14.485 9 16 C5.96133201 16.41137202 3.07840297 16.13193156 0 16 C0 10.72 0 5.44 0 0 Z " fill="#7E8697" transform="translate(503,122)"/>
<path d="M0 0 C0.66 0 1.32 0 2 0 C2 5.28 2 10.56 2 16 C-6 16 -6 16 -8 14.875 C-9.46221217 12.13335219 -9.31833733 10.05603838 -9 7 C-8.34 6.01 -7.68 5.02 -7 4 C-3.875 3.8125 -3.875 3.8125 -1 4 C-0.67 2.68 -0.34 1.36 0 0 Z " fill="#817B8C" transform="translate(445,122)"/>
<path d="M0 0 C0.66 0 1.32 0 2 0 C2 5.61 2 11.22 2 17 C-0.64 17 -3.28 17 -6 17 C-8 15 -8 15 -8.265625 13.125 C-8.26046875 12.42375 -8.2553125 11.7225 -8.25 11 C-8.25515625 10.29875 -8.2603125 9.5975 -8.265625 8.875 C-8 7 -8 7 -6 5 C-3.375 4.875 -3.375 4.875 -1 5 C-0.67 3.35 -0.34 1.7 0 0 Z " fill="#847F85" transform="translate(491,121)"/>
<path d="M0 0 C3.5 -0.3125 3.5 -0.3125 7 0 C9 2 9 2 9.25 5.4375 C9 9 9 9 7 12 C3.8694571 12.39964378 1.86916239 12.52149743 -0.875 10.875 C-2.51151479 8.14747535 -2.32502803 6.12026907 -2 3 C-1.34 2.01 -0.68 1.02 0 0 Z " fill="#808596" transform="translate(583,126)"/>
<path d="M0 0 C3.5 -0.3125 3.5 -0.3125 7 0 C9 2 9 2 9.265625 3.875 C9.26046875 4.57625 9.2553125 5.2775 9.25 6 C9.25515625 6.70125 9.2603125 7.4025 9.265625 8.125 C9 10 9 10 7 12 C3.89652746 12.33015665 1.84218824 12.50531294 -0.875 10.875 C-2.51151479 8.14747535 -2.32502803 6.12026907 -2 3 C-1.34 2.01 -0.68 1.02 0 0 Z " fill="#868794" transform="translate(518,126)"/>
<path d="M0 0 C3.0625 0.3125 3.0625 0.3125 4.9375 1.4375 C6.59104531 4.19340884 6.45615568 6.16325452 6.0625 9.3125 C4.9375 11.1875 4.9375 11.1875 3.0625 12.3125 C0 12.6875 0 12.6875 -2.9375 12.3125 C-5.38647847 8.63903229 -5.25287716 6.64893601 -4.9375 2.3125 C-2.9375 0.3125 -2.9375 0.3125 0 0 Z " fill="#7C8395" transform="translate(534.9375,125.6875)"/>
<path d="M0 0 C1.32 0 2.64 0 4 0 C4.83719383 2.29032311 5.6698929 4.58210957 6.5 6.875 C6.73847656 7.52597656 6.97695312 8.17695313 7.22265625 8.84765625 C9 13.7734375 9 13.7734375 9 16 C8.01 16 7.02 16 6 16 C5.67 14.68 5.34 13.36 5 12 C2.69 12 0.38 12 -2 12 C-2.33 13.32 -2.66 14.64 -3 16 C-3.66 16 -4.32 16 -5 16 C-3.90301833 10.30860098 -2.45946923 5.25432063 0 0 Z " fill="#A9ADBB" transform="translate(227,254)"/>
<path d="M0 0 C2.96952381 0.51966667 3.70491154 1.05784383 5.5 3.4375 C5.79296875 5.91796875 5.79296875 5.91796875 5.6875 8.625 C5.66042969 9.52605469 5.63335938 10.42710937 5.60546875 11.35546875 C5.57066406 12.04253906 5.53585937 12.72960937 5.5 13.4375 C3.85425434 13.46438151 2.20838587 13.48384123 0.5625 13.5 C-0.35402344 13.51160156 -1.27054688 13.52320313 -2.21484375 13.53515625 C-4.5 13.4375 -4.5 13.4375 -5.5 12.4375 C-5.54063832 10.77132885 -5.542721 9.10361905 -5.5 7.4375 C-4.530625 7.14875 -3.56125 6.86 -2.5625 6.5625 C0.60664203 5.79535318 0.60664203 5.79535318 1.5 3.4375 C-0.81 3.7675 -3.12 4.0975 -5.5 4.4375 C-3.19747167 0.55955754 -3.19747167 0.55955754 0 0 Z " fill="#F1EDFD" transform="translate(777.5,256.5625)"/>
<path d="M0 0 C3.0625 0.3125 3.0625 0.3125 5 1.375 C6.7115104 4.49598955 5.85541991 6.95783884 5.0625 10.3125 C3.0625 12.3125 3.0625 12.3125 0.0625 12.5625 C-2.9375 12.3125 -2.9375 12.3125 -4.9375 10.3125 C-5.203125 8.4375 -5.203125 8.4375 -5.1875 6.3125 C-5.19265625 5.61125 -5.1978125 4.91 -5.203125 4.1875 C-4.71881191 0.76881939 -3.24057423 0.34474194 0 0 Z " fill="#868E9D" transform="translate(649.9375,125.6875)"/>
<path d="M0 0 C3.0625 0.3125 3.0625 0.3125 5 1.375 C6.7115104 4.49598955 5.85541991 6.95783884 5.0625 10.3125 C3.0625 12.3125 3.0625 12.3125 0.0625 12.5625 C-2.9375 12.3125 -2.9375 12.3125 -4.9375 10.3125 C-5.203125 8.4375 -5.203125 8.4375 -5.1875 6.3125 C-5.19265625 5.61125 -5.1978125 4.91 -5.203125 4.1875 C-4.71881191 0.76881939 -3.24057423 0.34474194 0 0 Z " fill="#868E9D" transform="translate(349.9375,125.6875)"/>
<path d="M0 0 C3.0625 0.25 3.0625 0.25 6 1 C7.52846661 4.05693322 7.23242445 6.62984547 7 10 C5.5 12.4375 5.5 12.4375 4 14 C1.13275314 13.42655063 0.1385485 13.1385485 -2 11 C-2.265625 8.90625 -2.265625 8.90625 -2.25 6.5 C-2.25515625 5.7059375 -2.2603125 4.911875 -2.265625 4.09375 C-2 2 -2 2 0 0 Z " fill="#EEF1FA" transform="translate(609,74)"/>
<path d="M0 0 C2.375 0.75 2.375 0.75 3.375 1.75 C3.47323996 3.22648876 3.50473519 4.70775417 3.5 6.1875 C3.50257813 6.99058594 3.50515625 7.79367188 3.5078125 8.62109375 C3.375 10.75 3.375 10.75 2.375 12.75 C-0.5 12.9375 -0.5 12.9375 -3.625 12.75 C-6.08824069 9.05513897 -6.01491688 7.11706908 -5.625 2.75 C-3.94255302 -0.08359492 -3.2944541 -0.31375753 0 0 Z " fill="#EDF2FA" transform="translate(684.625,74.25)"/>
<path d="M0 0 C4.59195094 1.14798774 4.87820524 1.73528573 7.25 5.5625 C8.03117187 6.80193359 8.03117187 6.80193359 8.828125 8.06640625 C9.21484375 8.70449219 9.6015625 9.34257812 10 10 C10.33 6.7 10.66 3.4 11 0 C11.66 0 12.32 0 13 0 C13 5.28 13 10.56 13 16 C9 15 9 15 7.296875 12.71484375 C6.53117187 11.34005859 6.53117187 11.34005859 5.75 9.9375 C5.22921875 9.01839844 4.7084375 8.09929687 4.171875 7.15234375 C3.78515625 6.44207031 3.3984375 5.73179687 3 5 C2.67 8.63 2.34 12.26 2 16 C1.34 16 0.68 16 0 16 C0 10.72 0 5.44 0 0 Z " fill="#4C495D" transform="translate(318,356)"/>
<path d="M0 0 C0.99 0 1.98 0 3 0 C3.33 2.64 3.66 5.28 4 8 C4.66 7.01 5.32 6.02 6 5 C7.32 5 8.64 5 10 5 C9.649375 5.5775 9.29875 6.155 8.9375 6.75 C7.81715862 9.4388193 7.9936559 10.31641572 9 13 C9.63654342 14.3479743 10.29605388 15.68596724 11 17 C7.31245243 16.50168276 5.39509338 15.89932357 3 13 C3 14.32 3 15.64 3 17 C2.01 17 1.02 17 0 17 C0 11.39 0 5.78 0 0 Z " fill="#F7F1FD" transform="translate(798,253)"/>
<path d="M0 0 C2.375 0.8125 2.375 0.8125 3.375 2.8125 C3.54296875 4.6875 3.54296875 4.6875 3.5625 6.8125 C3.57667969 7.51375 3.59085938 8.215 3.60546875 8.9375 C3.375 10.8125 3.375 10.8125 1.375 12.8125 C-1.125 13.125 -1.125 13.125 -3.625 12.8125 C-6.08824069 9.11763897 -6.01491688 7.17956908 -5.625 2.8125 C-3.94938501 -0.0095884 -3.28432615 -0.23459473 0 0 Z " fill="#F2F4FA" transform="translate(584.625,74.1875)"/>
<path d="M0 0 C0.99 0 1.98 0 3 0 C3.33 2.31 3.66 4.62 4 7 C4.66 7 5.32 7 6 7 C6.33 4.69 6.66 2.38 7 0 C7.99 0 8.98 0 10 0 C10.66 1.65 11.32 3.3 12 5 C12.66 3.35 13.32 1.7 14 0 C14.99 0.33 15.98 0.66 17 1 C16.01 4.63 15.02 8.26 14 12 C13.01 12 12.02 12 11 12 C10.34 9.69 9.68 7.38 9 5 C8.01 7.31 7.02 9.62 6 12 C5.01 12 4.02 12 3 12 C2.01 8.04 1.02 4.08 0 0 Z " fill="#AEB0BF" transform="translate(316,258)"/>
<path d="M0 0 C3.5 -0.3125 3.5 -0.3125 7 0 C9 2 9 2 9.125 4.625 C9.08375 5.40875 9.0425 6.1925 9 7 C6.36 7 3.72 7 1 7 C1 7.99 1 8.98 1 10 C3.64 9.67 6.28 9.34 9 9 C8.01 10.485 8.01 10.485 7 12 C3.8694571 12.39964378 1.86916239 12.52149743 -0.875 10.875 C-2.51151479 8.14747535 -2.32502803 6.12026907 -2 3 C-1.34 2.01 -0.68 1.02 0 0 Z " fill="#89909F" transform="translate(425,126)"/>
<path d="M0 0 C3.5 -0.375 3.5 -0.375 7 0 C9 3 9 3 9 7 C6.03 7 3.06 7 0 7 C0.33 7.66 0.66 8.32 1 9 C3.64 9 6.28 9 9 9 C8.01 10.485 8.01 10.485 7 12 C3.8694571 12.39964378 1.86916239 12.52149743 -0.875 10.875 C-2.51151479 8.14747535 -2.32502803 6.12026907 -2 3 C-1.34 2.01 -0.68 1.02 0 0 Z " fill="#ACB1BE" transform="translate(306,258)"/>
<path d="M0 0 C0.928125 0.20625 1.85625 0.4125 2.8125 0.625 C3.1425 1.615 3.4725 2.605 3.8125 3.625 C0.8425 3.13 0.8425 3.13 -2.1875 2.625 C-1.34183261 4.89673092 -1.34183261 4.89673092 1.3125 5.5 C3.8125 6.625 3.8125 6.625 4.75 8.625 C4.770625 9.285 4.79125 9.945 4.8125 10.625 C2.8125 12.625 2.8125 12.625 0.8671875 12.8203125 C-1.15104167 12.75520833 -3.16927083 12.69010417 -5.1875 12.625 C-5.5175 11.305 -5.8475 9.985 -6.1875 8.625 C-3.80185923 9.20084432 -1.52067216 9.84727595 0.8125 10.625 C0.4825 9.965 0.1525 9.305 -0.1875 8.625 C-1.0125 8.356875 -1.8375 8.08875 -2.6875 7.8125 C-3.5125 7.420625 -4.3375 7.02875 -5.1875 6.625 C-6 4 -6 4 -6.1875 1.625 C-3.1875 -0.375 -3.1875 -0.375 0 0 Z " fill="#F0ECFD" transform="translate(791.1875,257.375)"/>
<path d="M0 0 C0.99 0 1.98 0 3 0 C3 4.29 3 8.58 3 13 C4.98 13 6.96 13 9 13 C10.81115956 11.18884044 10.38199448 8.38721773 10.5625 5.9375 C10.64628906 4.83277344 10.73007812 3.72804688 10.81640625 2.58984375 C10.87699219 1.73519531 10.93757813 0.88054687 11 0 C11.66 0 12.32 0 13 0 C13.08075665 2.29109597 13.13907731 4.58299267 13.1875 6.875 C13.22230469 8.15117187 13.25710938 9.42734375 13.29296875 10.7421875 C13.19628906 11.81726563 13.09960938 12.89234375 13 14 C9.29584707 16.46943529 7.37855495 16.46913089 3 16 C0.5761013 13.6814882 0.03340717 12.34387118 -0.29296875 8.984375 C-0.25816406 7.91703125 -0.22335937 6.8496875 -0.1875 5.75 C-0.14689453 4.13351562 -0.14689453 4.13351562 -0.10546875 2.484375 C-0.07066406 1.66453125 -0.03585937 0.8446875 0 0 Z " fill="#4A495A" transform="translate(295,451)"/>
<path d="M0 0 C1.98 0 3.96 0 6 0 C8.32528287 2.32528287 8.29511025 2.84665898 8.3125 6 C8.32925781 6.70125 8.34601563 7.4025 8.36328125 8.125 C8.18345703 9.053125 8.18345703 9.053125 8 10 C5 12 5 12 0 12 C0 8.04 0 4.08 0 0 Z " fill="#E7EFF5" transform="translate(283,358)"/>
<path d="M0 0 C0.66 0 1.32 0 2 0 C2.33 1.98 2.66 3.96 3 6 C4.98 4.02 6.96 2.04 9 0 C9.99 0.33 10.98 0.66 12 1 C10.68 2.65 9.36 4.3 8 6 C8.28875 6.721875 8.5775 7.44375 8.875 8.1875 C9.91666667 10.79166667 10.95833333 13.39583333 12 16 C8.63408134 14.55746343 6.48952921 12.66735273 4 10 C3.34 11.98 2.68 13.96 2 16 C1.34 16 0.68 16 0 16 C0 10.72 0 5.44 0 0 Z " fill="#4F4C5D" transform="translate(335,356)"/>
<path d="M0 0 C2.875 -0.125 2.875 -0.125 6 0 C8 2 8 2 8.1953125 4.3828125 C8.17210937 5.28773438 8.14890625 6.19265625 8.125 7.125 C8.10695313 8.03507813 8.08890625 8.94515625 8.0703125 9.8828125 C8.04710937 10.58148438 8.02390625 11.28015625 8 12 C6.52093108 12.02689216 5.04172517 12.04634621 3.5625 12.0625 C2.32693359 12.07990234 2.32693359 12.07990234 1.06640625 12.09765625 C-1 12 -1 12 -2 11 C-2.04063832 9.33382885 -2.042721 7.66611905 -2 6 C0.31 5.34 2.62 4.68 5 4 C5 3.34 5 2.68 5 2 C3.02 2.33 1.04 2.66 -1 3 C-0.67 2.01 -0.34 1.02 0 0 Z " fill="#7A8294" transform="translate(315,126)"/>
<path d="M0 0 C2.33294775 -0.04241723 4.66702567 -0.04092937 7 0 C8 1 8 1 8.09765625 3.50390625 C8.08605469 4.51324219 8.07445312 5.52257812 8.0625 6.5625 C8.05347656 7.57441406 8.04445313 8.58632812 8.03515625 9.62890625 C8.02355469 10.41136719 8.01195312 11.19382813 8 12 C1.9453125 12.1953125 1.9453125 12.1953125 0 12 C-0.66 11.34 -1.32 10.68 -2 10 C-1.46428571 6.46428571 -1.46428571 6.46428571 0 5 C1.99958364 4.95919217 4.00045254 4.95745644 6 5 C5.67 4.01 5.34 3.02 5 2 C3.02 2.33 1.04 2.66 -1 3 C-0.67 2.01 -0.34 1.02 0 0 Z " fill="#8C8C92" transform="translate(458,126)"/>
<path d="M0 0 C2.9375 0.875 2.9375 0.875 4.3125 2.9375 C4.51875 3.576875 4.725 4.21625 4.9375 4.875 C4.1021875 4.38 4.1021875 4.38 3.25 3.875 C0.63465478 2.7440399 -1.2431646 2.71837026 -4.0625 2.875 C-3.39279489 5.93899866 -3.39279489 5.93899866 -1.21484375 7.04296875 C-0.48394531 7.37941406 0.24695313 7.71585938 1 8.0625 C1.73347656 8.40667969 2.46695312 8.75085938 3.22265625 9.10546875 C3.78855469 9.35941406 4.35445313 9.61335937 4.9375 9.875 C5.0625 12.25 5.0625 12.25 4.9375 14.875 C2.9375 16.875 2.9375 16.875 -0.5 17.125 C-4.0625 16.875 -4.0625 16.875 -7.0625 14.875 C-7.0625 14.215 -7.0625 13.555 -7.0625 12.875 C-6.0725 12.875 -5.0825 12.875 -4.0625 12.875 C-4.0625 13.535 -4.0625 14.195 -4.0625 14.875 C-2.0825 14.545 -0.1025 14.215 1.9375 13.875 C1.9375 12.885 1.9375 11.895 1.9375 10.875 C0.803125 10.400625 -0.33125 9.92625 -1.5 9.4375 C-5.0625 7.875 -5.0625 7.875 -6.0625 6.875 C-6.3125 4.4375 -6.3125 4.4375 -6.0625 1.875 C-3.0625 -0.125 -3.0625 -0.125 0 0 Z " fill="#808390" transform="translate(298.0625,121.125)"/>
<path d="M0 0 C4.29 0 8.58 0 13 0 C13 0.99 13 1.98 13 3 C11.35 3 9.7 3 8 3 C8 7.62 8 12.24 8 17 C7.01 17 6.02 17 5 17 C5 12.38 5 7.76 5 3 C3.35 3 1.7 3 0 3 C0 2.01 0 1.02 0 0 Z " fill="#F5F1FD" transform="translate(759,253)"/>
<path d="M0 0 C2.33294775 -0.04241723 4.66702567 -0.04092937 7 0 C8 1 8 1 8.09765625 3.50390625 C8.08605469 4.51324219 8.07445312 5.52257812 8.0625 6.5625 C8.05347656 7.57441406 8.04445313 8.58632812 8.03515625 9.62890625 C8.02355469 10.41136719 8.01195312 11.19382813 8 12 C1.84765625 12.09765625 1.84765625 12.09765625 0 12 C-1 11 -1 11 -1.125 8.5 C-1 6 -1 6 0 5 C1.99958364 4.95919217 4.00045254 4.95745644 6 5 C5.67 4.01 5.34 3.02 5 2 C3.02 2.33 1.04 2.66 -1 3 C-0.67 2.01 -0.34 1.02 0 0 Z " fill="#AEB1B7" transform="translate(381,126)"/>
<path d="M0 0 C0.66 0 1.32 0 2 0 C2 0.99 2 1.98 2 3 C3.32 3 4.64 3 6 3 C6 6.63 6 10.26 6 14 C4.35 14.33 2.7 14.66 1 15 C0 14 0 14 -0.09765625 11.71484375 C-0.08025391 10.34005859 -0.08025391 10.34005859 -0.0625 8.9375 C-0.05347656 8.01839844 -0.04445313 7.09929687 -0.03515625 6.15234375 C-0.02355469 5.44207031 -0.01195312 4.73179688 0 4 C-0.66 3.67 -1.32 3.34 -2 3 C-1.34 3 -0.68 3 0 3 C0 2.01 0 1.02 0 0 Z " fill="#EBF4F8" transform="translate(699,123)"/>
<path d="M0 0 C0.66 0 1.32 0 2 0 C2.33 2.64 2.66 5.28 3 8 C3.99 7.01 4.98 6.02 6 5 C6.99 5.33 7.98 5.66 9 6 C8.01 6.99 7.02 7.98 6 9 C7.12451727 11.9719385 8.22293791 14.33440687 10 17 C6.20411134 16.45773019 4.52788007 14.79872437 2 12 C2 13.65 2 15.3 2 17 C1.34 17 0.68 17 0 17 C0 11.39 0 5.78 0 0 Z " fill="#A6ADBE" transform="translate(374,253)"/>
<path d="M0 0 C6.93359375 -0.09765625 6.93359375 -0.09765625 9 0 C10 1 10 1 10.09765625 3.50390625 C10.08605469 4.51324219 10.07445312 5.52257812 10.0625 6.5625 C10.05347656 7.57441406 10.04445313 8.58632812 10.03515625 9.62890625 C10.02355469 10.41136719 10.01195312 11.19382813 10 12 C9.34 12 8.68 12 8 12 C7.67 8.7 7.34 5.4 7 2 C5.68 2 4.36 2 3 2 C3 5.3 3 8.6 3 12 C2.01 12 1.02 12 0 12 C0 8.04 0 4.08 0 0 Z " fill="#928F93" transform="translate(469,126)"/>
<path d="M0 0 C0.99 0 1.98 0 3 0 C3.99 2.31 4.98 4.62 6 7 C6.99 4.69 7.98 2.38 9 0 C9.66 0 10.32 0 11 0 C7.72689134 11.7460495 7.72689134 11.7460495 5 16 C2.8125 16.875 2.8125 16.875 1 17 C1 16.34 1 15.68 1 15 C1.66 14.67 2.32 14.34 3 14 C2.48594831 9.03083364 1.76615118 4.70973649 0 0 Z " fill="#898795" transform="translate(325,126)"/>
<path d="M0 0 C1.98 0 3.96 0 6 0 C6.625 2.3125 6.625 2.3125 7 5 C6.01 6.485 6.01 6.485 5 8 C3.68 8 2.36 8 1 8 C1 9.98 1 11.96 1 14 C0.34 14 -0.32 14 -1 14 C-1.08333357 9.1666528 -0.95261487 4.76307437 0 0 Z " fill="#4B6886" transform="translate(299,358)"/>
<path d="M0 0 C3.44795223 1.53242321 6.2199038 3.44531701 9 6 C9.8125 8.25 9.8125 8.25 10 10 C8.02 10.99 8.02 10.99 6 12 C2.7 9.36 -0.6 6.72 -4 4 C-3.67 3.34 -3.34 2.68 -3 2 C-0.04590299 3.37154504 2.44008376 4.98863724 5 7 C4.175 6.21625 3.35 5.4325 2.5 4.625 C0 2 0 2 0 0 Z " fill="#8A5FD4" transform="translate(795,459)"/>
<path d="M0 0 C3.44795223 1.53242321 6.2199038 3.44531701 9 6 C9.8125 8.25 9.8125 8.25 10 10 C8.02 10.99 8.02 10.99 6 12 C2.7 9.36 -0.6 6.72 -4 4 C-3.67 3.34 -3.34 2.68 -3 2 C-0.04590299 3.37154504 2.44008376 4.98863724 5 7 C4.175 6.21625 3.35 5.4325 2.5 4.625 C0 2 0 2 0 0 Z " fill="#8A5FD4" transform="translate(795,364)"/>
<path d="M0 0 C0.66 0 1.32 0 2 0 C2.99 2.31 3.98 4.62 5 7 C5.99 4.69 6.98 2.38 8 0 C8.66 0 9.32 0 10 0 C9.02244044 6.30307063 7.41841607 12.18825312 3 17 C2.01 17 1.02 17 0 17 C0 16.34 0 15.68 0 15 C0.99 15 1.98 15 3 15 C2.86722656 14.41992188 2.73445312 13.83984375 2.59765625 13.2421875 C1.60295999 8.84229018 0.68631668 4.46105842 0 0 Z " fill="#868695" transform="translate(737,126)"/>
<path d="M0 0 C0.66 0 1.32 0 2 0 C2.99 2.31 3.98 4.62 5 7 C5.99 4.69 6.98 2.38 8 0 C8.66 0 9.32 0 10 0 C9.02244044 6.30307063 7.41841607 12.18825312 3 17 C2.01 17 1.02 17 0 17 C0 16.34 0 15.68 0 15 C0.99 15 1.98 15 3 15 C2.86722656 14.41992188 2.73445312 13.83984375 2.59765625 13.2421875 C1.60295999 8.84229018 0.68631668 4.46105842 0 0 Z " fill="#868695" transform="translate(569,126)"/>
<path d="M0 0 C6.93359375 -0.09765625 6.93359375 -0.09765625 9 0 C10 1 10 1 10.09765625 3.50390625 C10.08605469 4.51324219 10.07445312 5.52257812 10.0625 6.5625 C10.05347656 7.57441406 10.04445313 8.58632813 10.03515625 9.62890625 C10.02355469 10.41136719 10.01195312 11.19382812 10 12 C9.34 12 8.68 12 8 12 C7.67 9.03 7.34 6.06 7 3 C5.68 3 4.36 3 3 3 C2.67 5.97 2.34 8.94 2 12 C1.34 12 0.68 12 0 12 C0 8.04 0 4.08 0 0 Z " fill="#A8A9BB" transform="translate(291,258)"/>
<path d="M0 0 C6.93359375 -0.09765625 6.93359375 -0.09765625 9 0 C10 1 10 1 10.09765625 3.50390625 C10.08605469 4.51324219 10.07445312 5.52257812 10.0625 6.5625 C10.05347656 7.57441406 10.04445313 8.58632812 10.03515625 9.62890625 C10.02355469 10.41136719 10.01195312 11.19382813 10 12 C9.34 12 8.68 12 8 12 C8 8.7 8 5.4 8 2 C6.35 2.33 4.7 2.66 3 3 C2.67 5.97 2.34 8.94 2 12 C1.34 12 0.68 12 0 12 C0 8.04 0 4.08 0 0 Z " fill="#7C7D96" transform="translate(393,126)"/>
<path d="M0 0 C0.99 0 1.98 0 3 0 C3 5.61 3 11.22 3 17 C1.35 16.67 -0.3 16.34 -2 16 C-1.42978066 10.6496441 -0.79265639 5.32212148 0 0 Z " fill="#F7F0FD" transform="translate(748,253)"/>
<path d="M0 0 C0.99 0 1.98 0 3 0 C3 5.61 3 11.22 3 17 C1.35 16.67 -0.3 16.34 -2 16 C-1.42978066 10.6496441 -0.79265639 5.32212148 0 0 Z " fill="#F6F0FD" transform="translate(734,253)"/>
<path d="M0 0 C2.97 0 5.94 0 9 0 C7.21739173 3.56521654 5.24007711 6.71455357 3 10 C4.98 10 6.96 10 9 10 C9 10.66 9 11.32 9 12 C5.7 12 2.4 12 -1 12 C0.78260827 8.43478346 2.75992289 5.28544643 5 2 C3.35 2 1.7 2 0 2 C0 1.34 0 0.68 0 0 Z " fill="#7E818E" transform="translate(412,126)"/>
<path d="M0 0 C0.66 0 1.32 0 2 0 C2.33 2.97 2.66 5.94 3 9 C4.32 9 5.64 9 7 9 C7.33 6.03 7.66 3.06 8 0 C8.66 0 9.32 0 10 0 C10 3.96 10 7.92 10 12 C3.9453125 12.1953125 3.9453125 12.1953125 2 12 C0 10 0 10 -0.1953125 7.6171875 C-0.17210937 6.71226562 -0.14890625 5.80734375 -0.125 4.875 C-0.10695313 3.96492187 -0.08890625 3.05484375 -0.0703125 2.1171875 C-0.04710937 1.41851562 -0.02390625 0.71984375 0 0 Z " fill="#847B8C" transform="translate(672,126)"/>
<path d="M0 0 C0.66 0 1.32 0 2 0 C2.33 2.97 2.66 5.94 3 9 C4.32 9 5.64 9 7 9 C7.33 6.03 7.66 3.06 8 0 C8.66 0 9.32 0 10 0 C10 3.96 10 7.92 10 12 C3.9453125 12.1953125 3.9453125 12.1953125 2 12 C0 10 0 10 -0.1953125 7.6171875 C-0.17210937 6.71226562 -0.14890625 5.80734375 -0.125 4.875 C-0.10695313 3.96492187 -0.08890625 3.05484375 -0.0703125 2.1171875 C-0.04710937 1.41851562 -0.02390625 0.71984375 0 0 Z " fill="#7B7B93" transform="translate(595,126)"/>
<path d="M0 0 C2.31 0 4.62 0 7 0 C7.33 0.99 7.66 1.98 8 3 C5.03 2.505 5.03 2.505 2 2 C2 2.66 2 3.32 2 4 C2.804375 4.226875 3.60875 4.45375 4.4375 4.6875 C5.283125 5.120625 6.12875 5.55375 7 6 C7.8125 8.625 7.8125 8.625 8 11 C5.29120665 12.35439668 2.99066732 12.06501451 0 12 C-0.33 11.01 -0.66 10.02 -1 9 C1.31 9.33 3.62 9.66 6 10 C4.49336217 6.98672434 1.96833589 6.38943382 -1 5 C-0.67 3.35 -0.34 1.7 0 0 Z " fill="#A7AAB8" transform="translate(363,258)"/>
<path d="M0 0 C1.4540625 0.0309375 1.4540625 0.0309375 2.9375 0.0625 C3.2675 1.0525 3.5975 2.0425 3.9375 3.0625 C3.2775 3.0625 2.6175 3.0625 1.9375 3.0625 C1.9375 2.4025 1.9375 1.7425 1.9375 1.0625 C0.9475 1.3925 -0.0425 1.7225 -1.0625 2.0625 C-1.0625 2.7225 -1.0625 3.3825 -1.0625 4.0625 C-0.258125 4.31 0.54625 4.5575 1.375 4.8125 C3.9375 6.0625 3.9375 6.0625 4.875 8.0625 C4.895625 8.7225 4.91625 9.3825 4.9375 10.0625 C2.9375 12.0625 2.9375 12.0625 -0.0625 12.375 C-1.0525 12.271875 -2.0425 12.16875 -3.0625 12.0625 C-3.7225 11.0725 -4.3825 10.0825 -5.0625 9.0625 C-2.4225 9.3925 0.2175 9.7225 2.9375 10.0625 C2.6075 9.4025 2.2775 8.7425 1.9375 8.0625 C0.7 7.6603125 0.7 7.6603125 -0.5625 7.25 C-1.3875 6.858125 -2.2125 6.46625 -3.0625 6.0625 C-3.9375 3.5 -3.9375 3.5 -4.0625 1.0625 C-3.0625 0.0625 -3.0625 0.0625 0 0 Z " fill="#7E8592" transform="translate(548.0625,125.9375)"/>
<path d="M0 0 C2.33294775 -0.04241723 4.66702567 -0.04092937 7 0 C8 1 8 1 8.09765625 3.50390625 C8.08605469 4.51324219 8.07445312 5.52257812 8.0625 6.5625 C8.05347656 7.57441406 8.04445313 8.58632813 8.03515625 9.62890625 C8.02355469 10.41136719 8.01195312 11.19382812 8 12 C5.36 12 2.72 12 0 12 C-0.33 11.34 -0.66 10.68 -1 10 C1.31 10 3.62 10 6 10 C6 8.68 6 7.36 6 6 C4.68 5.67 3.36 5.34 2 5 C3.32 5 4.64 5 6 5 C6 4.01 6 3.02 6 2 C3.69 2.33 1.38 2.66 -1 3 C-0.67 2.01 -0.34 1.02 0 0 Z " fill="#A9A9B3" transform="translate(350,258)"/>
<path d="M0 0 C2.33294775 -0.04241723 4.66702567 -0.04092937 7 0 C8 1 8 1 8.09765625 3.50390625 C8.08605469 4.51324219 8.07445312 5.52257812 8.0625 6.5625 C8.05347656 7.57441406 8.04445313 8.58632813 8.03515625 9.62890625 C8.02355469 10.41136719 8.01195312 11.19382812 8 12 C5.36 12 2.72 12 0 12 C-0.33 11.34 -0.66 10.68 -1 10 C1.31 10 3.62 10 6 10 C6 8.68 6 7.36 6 6 C4.68 5.67 3.36 5.34 2 5 C3.32 5 4.64 5 6 5 C6 4.01 6 3.02 6 2 C3.69 2.33 1.38 2.66 -1 3 C-0.67 2.01 -0.34 1.02 0 0 Z " fill="#A9A9B3" transform="translate(273,258)"/>
<path d="M0 0 C3.625 -0.1875 3.625 -0.1875 7 0 C7.33 0.99 7.66 1.98 8 3 C5.69 3 3.38 3 1 3 C1 5.31 1 7.62 1 10 C2.65 10 4.3 10 6 10 C6 9.34 6 8.68 6 8 C6.66 8 7.32 8 8 8 C7.67 9.32 7.34 10.64 7 12 C1.6 12.36 1.6 12.36 -0.875 10.875 C-2.51151479 8.14747535 -2.32502803 6.12026907 -2 3 C-1.34 2.01 -0.68 1.02 0 0 Z " fill="#868591" transform="translate(687,126)"/>
<path d="M0 0 C0.99 0 1.98 0 3 0 C3 0.99 3 1.98 3 3 C3.66 3 4.32 3 5 3 C5 3.66 5 4.32 5 5 C4.34 5 3.68 5 3 5 C3 7.64 3 10.28 3 13 C3.66 13 4.32 13 5 13 C5 13.66 5 14.32 5 15 C1.125 14.125 1.125 14.125 0 13 C-0.14115161 10.32941149 -0.04247107 7.67567762 0 5 C-0.66 5 -1.32 5 -2 5 C-2 4.34 -2 3.68 -2 3 C-1.34 3 -0.68 3 0 3 C0 2.01 0 1.02 0 0 Z " fill="#94979F" transform="translate(729,123)"/>
<path d="M0 0 C0.99 0 1.98 0 3 0 C3 0.99 3 1.98 3 3 C3.66 3 4.32 3 5 3 C5 3.66 5 4.32 5 5 C4.34 5 3.68 5 3 5 C3 7.64 3 10.28 3 13 C3.66 13 4.32 13 5 13 C5 13.66 5 14.32 5 15 C1.125 14.125 1.125 14.125 0 13 C-0.14115161 10.32941149 -0.04247107 7.67567762 0 5 C-0.66 5 -1.32 5 -2 5 C-2 4.34 -2 3.68 -2 3 C-1.34 3 -0.68 3 0 3 C0 2.01 0 1.02 0 0 Z " fill="#94979F" transform="translate(306,123)"/>
<path d="M0 0 C3.53571429 0.53571429 3.53571429 0.53571429 5 2 C5.125 5 5.125 5 5 8 C4 9 4 9 1.4375 9.0625 C0.633125 9.041875 -0.17125 9.02125 -1 9 C-1.625 5.625 -1.625 5.625 -2 2 C-1.34 1.34 -0.68 0.68 0 0 Z " fill="#E8EEED" transform="translate(440,127)"/>
<path d="M0 0 C0.99 0 1.98 0 3 0 C3 5.28 3 10.56 3 16 C1.68 16 0.36 16 -1 16 C-1.33 15.01 -1.66 14.02 -2 13 C-1.34 13 -0.68 13 0 13 C0 8.71 0 4.42 0 0 Z " fill="#57607D" transform="translate(323,451)"/>
<path d="M0 0 C1.32 0 2.64 0 4 0 C4.95024979 3.69541586 4.95024979 6.30458414 4 10 C2.35 10 0.7 10 -1 10 C-2.23076923 4.58461538 -2.23076923 4.58461538 -1.0625 1.625 C-0.5365625 0.820625 -0.5365625 0.820625 0 0 Z " fill="#B4B5C2" transform="translate(227,254)"/>
<path d="M0 0 C2.5 0.125 2.5 0.125 3.5 1.125 C3.625 4.125 3.625 4.125 3.5 7.125 C2.5 8.125 2.5 8.125 -0.0625 8.1875 C-0.866875 8.166875 -1.67125 8.14625 -2.5 8.125 C-2.88063221 5.7989143 -3.21269945 3.46444736 -3.5 1.125 C-2.5 0.125 -2.5 0.125 0 0 Z " fill="#EEF1EE" transform="translate(663.5,127.875)"/>
<path d="M0 0 C2.5 0.125 2.5 0.125 3.5 1.125 C3.625 4.125 3.625 4.125 3.5 7.125 C2.5 8.125 2.5 8.125 -0.0625 8.1875 C-0.866875 8.166875 -1.67125 8.14625 -2.5 8.125 C-2.88063221 5.7989143 -3.21269945 3.46444736 -3.5 1.125 C-2.5 0.125 -2.5 0.125 0 0 Z " fill="#EBF1F1" transform="translate(628.5,127.875)"/>
<path d="M0 0 C2.5 0.125 2.5 0.125 3.5 1.125 C3.625 4.125 3.625 4.125 3.5 7.125 C2.5 8.125 2.5 8.125 -0.0625 8.1875 C-0.866875 8.166875 -1.67125 8.14625 -2.5 8.125 C-2.88063221 5.7989143 -3.21269945 3.46444736 -3.5 1.125 C-2.5 0.125 -2.5 0.125 0 0 Z " fill="#EFF4F2" transform="translate(586.5,127.875)"/>
<path d="M0 0 C2.5 0.125 2.5 0.125 3.5 1.125 C3.21269945 3.46444736 2.88063221 5.7989143 2.5 8.125 C0.83388095 8.167721 -0.83382885 8.16563832 -2.5 8.125 C-3.5 7.125 -3.5 7.125 -3.625 4.125 C-3.46033403 0.1730167 -3.46033403 0.1730167 0 0 Z " fill="#F3F2EE" transform="translate(535.5,127.875)"/>
<path d="M0 0 C2.5 0.125 2.5 0.125 3.5 1.125 C3.625 4.125 3.625 4.125 3.5 7.125 C2.5 8.125 2.5 8.125 -0.0625 8.1875 C-0.866875 8.166875 -1.67125 8.14625 -2.5 8.125 C-2.88063221 5.7989143 -3.21269945 3.46444736 -3.5 1.125 C-2.5 0.125 -2.5 0.125 0 0 Z " fill="#EEF2EE" transform="translate(508.5,127.875)"/>
<path d="M0 0 C1.66611905 -0.042721 3.33382885 -0.04063832 5 0 C6 1 6 1 6.125 4 C6 7 6 7 5 8 C3.33382885 8.04063832 1.66611905 8.042721 0 8 C-1.125 2.25 -1.125 2.25 0 0 Z " fill="#EEF4F5" transform="translate(519,128)"/>
<path d="M0 0 C2.5 0.125 2.5 0.125 3.5 1.125 C3.6875 3.5625 3.6875 3.5625 3.5 6.125 C2.84 6.785 2.18 7.445 1.5 8.125 C-2.03571429 7.58928571 -2.03571429 7.58928571 -3.5 6.125 C-3.625 3.625 -3.625 3.625 -3.5 1.125 C-2.5 0.125 -2.5 0.125 0 0 Z " fill="#EFF4F1" transform="translate(371.5,127.875)"/>
<path d="M0 0 C0.66 0 1.32 0 2 0 C2.99 2.31 3.98 4.62 5 7 C5.99 4.69 6.98 2.38 8 0 C8.66 0 9.32 0 10 0 C9.71640113 1.4391134 9.42278601 2.87625518 9.125 4.3125 C8.96257813 5.11300781 8.80015625 5.91351563 8.6328125 6.73828125 C8 9 8 9 6 12 C3 11 3 11 2.05078125 9.2578125 C1.80714844 8.55398437 1.56351563 7.85015625 1.3125 7.125 C1.06113281 6.42632812 0.80976562 5.72765625 0.55078125 5.0078125 C0 3 0 3 0 0 Z " fill="#818293" transform="translate(711,126)"/>
<path d="M0 0 C1.2065625 0.0309375 1.2065625 0.0309375 2.4375 0.0625 C2.4375 2.3725 2.4375 4.6825 2.4375 7.0625 C0.78135343 7.44468767 -0.88707024 7.77645102 -2.5625 8.0625 C-3.5625 7.0625 -3.5625 7.0625 -3.6875 4.0625 C-3.52180824 0.08589776 -3.52180824 0.08589776 0 0 Z " fill="#FAFCFC" transform="translate(243.5625,259.9375)"/>
<path d="M0 0 C1.2065625 0.0309375 1.2065625 0.0309375 2.4375 0.0625 C2.4375 2.3725 2.4375 4.6825 2.4375 7.0625 C0.78135343 7.44468767 -0.88707024 7.77645102 -2.5625 8.0625 C-3.5625 7.0625 -3.5625 7.0625 -3.6875 4.0625 C-3.52180824 0.08589776 -3.52180824 0.08589776 0 0 Z " fill="#F6F8F7" transform="translate(650.5625,127.9375)"/>
<path d="M0 0 C1.2065625 0.0309375 1.2065625 0.0309375 2.4375 0.0625 C2.4375 2.3725 2.4375 4.6825 2.4375 7.0625 C0.78135343 7.44468767 -0.88707024 7.77645102 -2.5625 8.0625 C-3.5625 7.0625 -3.5625 7.0625 -3.6875 4.0625 C-3.52180824 0.08589776 -3.52180824 0.08589776 0 0 Z " fill="#F6F8F7" transform="translate(350.5625,127.9375)"/>
<path d="M0 0 C1.67542976 0.28604898 3.34385343 0.61781233 5 1 C5 2.98 5 4.96 5 7 C3.34385343 7.38218767 1.67542976 7.71395102 0 8 C-1 7 -1 7 -1.125 4 C-1 1 -1 1 0 0 Z " fill="#FDFEFC" transform="translate(255,260)"/>
<path d="M0 0 C-1.27292265 2.5458453 -2.1508767 2.55118699 -4.75 3.5625 C-9.92284829 5.99076152 -11.75174125 9.94141782 -14 15 C-14.33 15 -14.66 15 -15 15 C-14.58552254 9.71541239 -13.77762551 6.77762551 -10 3 C-6.54601023 0.43164864 -4.29704625 -0.36831825 0 0 Z " fill="#76B1FA" transform="translate(214,227)"/>
<path d="M0 0 C1.67542976 0.28604898 3.34385343 0.61781233 5 1 C5 2.98 5 4.96 5 7 C3.34385343 7.38218767 1.67542976 7.71395102 0 8 C-1 7 -1 7 -1.125 4 C-1 1 -1 1 0 0 Z " fill="#F6F9F7" transform="translate(486,128)"/>
<path d="M0 0 C0.65234375 1.80859375 0.65234375 1.80859375 1 4 C-0.62126675 6.03697617 -2.28859531 8.03814584 -4 10 C-4 10.99 -4 11.98 -4 13 C-5.32 12.67 -6.64 12.34 -8 12 C-7.84595887 6.91664275 -4.97931568 4.64245282 -1.49609375 1.35546875 C-1.00238281 0.90816406 -0.50867188 0.46085937 0 0 Z " fill="#7564AF" transform="translate(788,458)"/>
<path d="M0 0 C0.65234375 1.80859375 0.65234375 1.80859375 1 4 C-0.62126675 6.03697617 -2.28859531 8.03814584 -4 10 C-4 10.99 -4 11.98 -4 13 C-5.32 12.67 -6.64 12.34 -8 12 C-7.84595887 6.91664275 -4.97931568 4.64245282 -1.49609375 1.35546875 C-1.00238281 0.90816406 -0.50867188 0.46085937 0 0 Z " fill="#7564AF" transform="translate(788,363)"/>
<path d="M0 0 C0.99 0 1.98 0 3 0 C3 5.61 3 11.22 3 17 C-0.16130459 12.78492722 -0.3367697 11.93928888 0 7 C-1.32 6.67 -2.64 6.34 -4 6 C-3.01 5.67 -2.02 5.34 -1 5 C-0.67 3.35 -0.34 1.7 0 0 Z " fill="#BBBECD" transform="translate(246,253)"/>
<path d="M0 0 C2.31 0 4.62 0 7 0 C5.02 0.99 5.02 0.99 3 2 C3 5.3 3 8.6 3 12 C2.01 12 1.02 12 0 12 C0 8.04 0 4.08 0 0 Z " fill="#93969D" transform="translate(358,126)"/>
<path d="M0 0 C0.66 0 1.32 0 2 0 C2 0.66 2 1.32 2 2 C4.64 2 7.28 2 10 2 C10 2.33 10 2.66 10 3 C7.36 3 4.72 3 2 3 C2.33 3.99 2.66 4.98 3 6 C5.64 6 8.28 6 11 6 C10.01 7.485 10.01 7.485 9 9 C5.8694571 9.39964378 3.86916239 9.52149743 1.125 7.875 C-0.4682099 5.21965017 -0.20214032 3.03210482 0 0 Z " fill="#A8A8B4" transform="translate(304,261)"/>
<path d="M0 0 C0.66 0 1.32 0 2 0 C2 5.28 2 10.56 2 16 C1.34 16 0.68 16 0 16 C-1 13 -1 13 -0.8125 10 C-0.66302096 6.88661695 -0.66302096 6.88661695 -3 5.125 C-3.66 4.75375 -4.32 4.3825 -5 4 C-3.68 4 -2.36 4 -1 4 C-0.67 2.68 -0.34 1.36 0 0 Z " fill="#737B96" transform="translate(667,122)"/>
<path d="M0 0 C1.32 0 2.64 0 4 0 C4.33 0.99 4.66 1.98 5 3 C4.01 3 3.02 3 2 3 C2 7.29 2 11.58 2 16 C1.34 16 0.68 16 0 16 C0 10.72 0 5.44 0 0 Z " fill="#635056" transform="translate(312,451)"/>
<path d="M0 0 C1.98 0 3.96 0 6 0 C6.33 1.65 6.66 3.3 7 5 C4.69 5.33 2.38 5.66 0 6 C0 4.02 0 2.04 0 0 Z " fill="#DCE1E4" transform="translate(283,453)"/>
<path d="M0 0 C3 1 3 1 4 3 C4.5824233 9.29017161 4.5824233 9.29017161 2 12.4375 C1.01 13.2109375 1.01 13.2109375 0 14 C-0.66 13.34 -1.32 12.68 -2 12 C-1.34 11.67 -0.68 11.34 0 11 C0 7.37 0 3.74 0 0 Z " fill="#595B6F" transform="translate(290,357)"/>
<path d="M0 0 C0.66 0 1.32 0 2 0 C2 0.99 2 1.98 2 3 C2.66 3.33 3.32 3.66 4 4 C3.34 4 2.68 4 2 4 C2 6.97 2 9.94 2 13 C2.99 13 3.98 13 5 13 C5 13.66 5 14.32 5 15 C3.35 14.67 1.7 14.34 0 14 C0 10.7 0 7.4 0 4 C-0.66 3.67 -1.32 3.34 -2 3 C-1.34 3 -0.68 3 0 3 C0 2.01 0 1.02 0 0 Z " fill="#A9A6B7" transform="translate(342,255)"/>
<path d="M0 0 C0.66 0 1.32 0 2 0 C2 0.66 2 1.32 2 2 C4.64 2 7.28 2 10 2 C10 2.33 10 2.66 10 3 C7.36 3 4.72 3 2 3 C2.33 3.99 2.66 4.98 3 6 C5.64 6 8.28 6 11 6 C10.01 7.485 10.01 7.485 9 9 C5.8694571 9.39964378 3.86916239 9.52149743 1.125 7.875 C-0.4682099 5.21965017 -0.20214032 3.03210482 0 0 Z " fill="#807E87" transform="translate(423,129)"/>
<path d="M0 0 C0.66 0 1.32 0 2 0 C2 0.99 2 1.98 2 3 C2.66 3.33 3.32 3.66 4 4 C3.34 4 2.68 4 2 4 C2 6.97 2 9.94 2 13 C2.99 13 3.98 13 5 13 C5 13.66 5 14.32 5 15 C3.35 14.67 1.7 14.34 0 14 C0 10.7 0 7.4 0 4 C-0.66 3.67 -1.32 3.34 -2 3 C-1.34 3 -0.68 3 0 3 C0 2.01 0 1.02 0 0 Z " fill="#80788E" transform="translate(556,123)"/>
<path d="M0 0 C0.66 0 1.32 0 2 0 C2 0.99 2 1.98 2 3 C2.66 3.33 3.32 3.66 4 4 C3.34 4 2.68 4 2 4 C2 6.97 2 9.94 2 13 C2.99 13.33 3.98 13.66 5 14 C3.0625 14.5625 3.0625 14.5625 1 15 C0 14 0 14 -0.09765625 11.71484375 C-0.08025391 10.34005859 -0.08025391 10.34005859 -0.0625 8.9375 C-0.05347656 8.01839844 -0.04445313 7.09929687 -0.03515625 6.15234375 C-0.02355469 5.44207031 -0.01195312 4.73179688 0 4 C-0.66 3.67 -1.32 3.34 -2 3 C-1.34 3 -0.68 3 0 3 C0 2.01 0 1.02 0 0 Z " fill="#767B92" transform="translate(699,123)"/>
<path d="M0 0 C0.042721 1.66611905 0.04063832 3.33382885 0 5 C-1 6 -1 6 -4.0625 6.0625 C-5.031875 6.041875 -6.00125 6.02125 -7 6 C-7 4.68 -7 3.36 -7 2 C-4.35261084 0.5393715 -3.10551666 0 0 0 Z " fill="#E8EDFA" transform="translate(642,82)"/>
<path d="M0 0 C-0.875 4.875 -0.875 4.875 -2 6 C-3.66617115 6.04063832 -5.33388095 6.042721 -7 6 C-7.33 4.68 -7.66 3.36 -8 2 C-5.09399739 0.74335022 -3.20395416 0 0 0 Z " fill="#F0EBFA" transform="translate(383,82)"/>
<path d="M0 0 C0.99 0.33 1.98 0.66 3 1 C2.91433603 3.912575 2.42089045 5.56798024 0.375 7.66796875 C-1.38391375 9.16091772 -3.16313019 10.60436262 -5 12 C-4.4833384 8.17670414 -3.74085338 6.62665115 -1 4 C-0.28552357 1.89667109 -0.28552357 1.89667109 0 0 Z " fill="#8466CE" transform="translate(801,446)"/>
<path d="M0 0 C0.99 0.33 1.98 0.66 3 1 C2.91433603 3.912575 2.42089045 5.56798024 0.375 7.66796875 C-1.38391375 9.16091772 -3.16313019 10.60436262 -5 12 C-4.4833384 8.17670414 -3.74085338 6.62665115 -1 4 C-0.28552357 1.89667109 -0.28552357 1.89667109 0 0 Z " fill="#8466CE" transform="translate(801,351)"/>
<path d="M0 0 C0.33 0 0.66 0 1 0 C1.08076963 2.45898655 1.14037143 4.91533742 1.1875 7.375 C1.22520508 8.42300781 1.22520508 8.42300781 1.26367188 9.4921875 C1.29296875 11.5234375 1.29296875 11.5234375 1 15 C-2.20808915 17.1387261 -3.27698497 17.47730962 -7 17 C-7.66 16.01 -8.32 15.02 -9 14 C-6.69 14 -4.38 14 -2 14 C-1.34 9.38 -0.68 4.76 0 0 Z " fill="#72809B" transform="translate(376,126)"/>
<path d="M0 0 C2.33294775 -0.04241723 4.66702567 -0.04092937 7 0 C8 1 8 1 8.09765625 3.50390625 C8.08605469 4.51324219 8.07445312 5.52257812 8.0625 6.5625 C8.05347656 7.57441406 8.04445313 8.58632812 8.03515625 9.62890625 C8.02355469 10.41136719 8.01195312 11.19382813 8 12 C7.34 11.34 6.68 10.68 6 10 C6 8.68 6 7.36 6 6 C4.68 5.67 3.36 5.34 2 5 C3.32 5 4.64 5 6 5 C5.67 4.01 5.34 3.02 5 2 C3.02 2.33 1.04 2.66 -1 3 C-0.67 2.01 -0.34 1.02 0 0 Z " fill="#7B7A89" transform="translate(458,126)"/>
<path d="M0 0 C2.33294775 -0.04241723 4.66702567 -0.04092937 7 0 C8 1 8 1 8.09765625 3.50390625 C8.08605469 4.51324219 8.07445312 5.52257812 8.0625 6.5625 C8.05347656 7.57441406 8.04445313 8.58632812 8.03515625 9.62890625 C8.02355469 10.41136719 8.01195312 11.19382813 8 12 C7.34 11.34 6.68 10.68 6 10 C6 8.68 6 7.36 6 6 C4.68 5.67 3.36 5.34 2 5 C3.32 5 4.64 5 6 5 C5.67 4.01 5.34 3.02 5 2 C3.02 2.33 1.04 2.66 -1 3 C-0.67 2.01 -0.34 1.02 0 0 Z " fill="#7C7A81" transform="translate(381,126)"/>
<path d="M0 0 C0.99 0 1.98 0 3 0 C3 3.96 3 7.92 3 12 C2.01 12 1.02 12 0 12 C0 8.04 0 4.08 0 0 Z " fill="#65606D" transform="translate(295,451)"/>
<path d="M0 0 C1.32 0.66 2.64 1.32 4 2 C3.67 3.65 3.34 5.3 3 7 C1.68 7 0.36 7 -1 7 C-1.625 4.625 -1.625 4.625 -2 2 C-1.34 1.34 -0.68 0.68 0 0 Z " fill="#7980F7" transform="translate(744,260)"/>
<path d="M0 0 C1.32 0.66 2.64 1.32 4 2 C3.67 3.65 3.34 5.3 3 7 C1.68 7 0.36 7 -1 7 C-1.625 4.625 -1.625 4.625 -2 2 C-1.34 1.34 -0.68 0.68 0 0 Z " fill="#7184F7" transform="translate(730,260)"/>
<path d="M0 0 C0.66 0.66 1.32 1.32 2 2 C1.63723355 4.82957829 0.90305236 7.29084291 0 10 C0.87914688 12.6569191 0.87914688 12.6569191 2 15 C1.01 15 0.02 15 -1 15 C-2.47400853 12.65892762 -3.04364666 11.41464328 -2.75 8.625 C-1.91909864 5.71684524 -0.99616152 2.85566303 0 0 Z " fill="#445373" transform="translate(307,357)"/>
<path d="M0 0 C0.66 0.66 1.32 1.32 2 2 C1.67 2.99 1.34 3.98 1 5 C1.87914688 7.6569191 1.87914688 7.6569191 3 10 C1.125 9.75 1.125 9.75 -1 9 C-1.6837045 7.67532254 -2.34964186 6.34136367 -3 5 C-5.0335948 3.73195434 -5.0335948 3.73195434 -7 3 C-4.69 2.01 -2.38 1.02 0 0 Z " fill="#4B546C" transform="translate(290,457)"/>
<path d="M0 0 C0.042721 1.66611905 0.04063832 3.33382885 0 5 C-1 6 -1 6 -4.0625 6.0625 C-5.5165625 6.0315625 -5.5165625 6.0315625 -7 6 C-6.67 4.35 -6.34 2.7 -6 1 C-1.125 0 -1.125 0 0 0 Z " fill="#F2F3FA" transform="translate(504,82)"/>
<path d="M0 0 C0.66 0 1.32 0 2 0 C2 5.28 2 10.56 2 16 C1.01 16 0.02 16 -1 16 C-0.83628906 15.46890625 -0.67257812 14.9378125 -0.50390625 14.390625 C0.11356377 11.46123236 0.09501925 8.74177064 0.0625 5.75 C0.05347656 4.67234375 0.04445313 3.5946875 0.03515625 2.484375 C0.02355469 1.66453125 0.01195312 0.8446875 0 0 Z " fill="#39415E" transform="translate(329,356)"/>
<path d="M0 0 C2.00720923 0.28674418 4.0085944 0.61866701 6 1 C6 2.32 6 3.64 6 5 C3.36 5 0.72 5 -2 5 C-1.125 1.125 -1.125 1.125 0 0 Z " fill="#D8D7DB" transform="translate(350,263)"/>
<path d="M0 0 C2.00720923 0.28674418 4.0085944 0.61866701 6 1 C6 2.32 6 3.64 6 5 C3.36 5 0.72 5 -2 5 C-1.125 1.125 -1.125 1.125 0 0 Z " fill="#D8D7DB" transform="translate(273,263)"/>
<path d="M0 0 C0.66 0 1.32 0 2 0 C3.06795656 5.57710648 2.82622671 10.39436958 2 16 C1.34 16 0.68 16 0 16 C0 10.72 0 5.44 0 0 Z " fill="#7E728A" transform="translate(503,122)"/>
<path d="M0 0 C0 0.99 0 1.98 0 3 C-0.94875 3.0825 -1.8975 3.165 -2.875 3.25 C-6.10461791 3.65074923 -6.10461791 3.65074923 -7.375 6.0625 C-7.58125 6.701875 -7.7875 7.34125 -8 8 C-8.33 5.69 -8.66 3.38 -9 1 C-5.57367167 -0.61798838 -3.61944899 -1.34053666 0 0 Z " fill="#EDEBE6" transform="translate(387,128)"/>
<path d="M0 0 C2.875 -0.125 2.875 -0.125 6 0 C8 2 8 2 8.125 5.625 C8.08375 6.73875 8.0425 7.8525 8 9 C7.01 9 6.02 9 5 9 C5 7.02 5 5.04 5 3 C2.03 2.505 2.03 2.505 -1 2 C-0.67 1.34 -0.34 0.68 0 0 Z " fill="#828393" transform="translate(626,126)"/>
<path d="M0 0 C1.98 0 3.96 0 6 0 C5.51917969 0.39832031 5.03835938 0.79664062 4.54296875 1.20703125 C2.62608175 3.43450247 2.52258357 4.78834669 2.3125 7.6875 C2.21388672 8.89986328 2.21388672 8.89986328 2.11328125 10.13671875 C2.07589844 10.75160156 2.03851562 11.36648437 2 12 C1.34 12 0.68 12 0 12 C0 8.04 0 4.08 0 0 Z " fill="#7D748D" transform="translate(637,126)"/>
<path d="M0 0 C1.98 0 3.96 0 6 0 C5.51917969 0.39832031 5.03835938 0.79664062 4.54296875 1.20703125 C2.62608175 3.43450247 2.52258357 4.78834669 2.3125 7.6875 C2.21388672 8.89986328 2.21388672 8.89986328 2.11328125 10.13671875 C2.07589844 10.75160156 2.03851562 11.36648437 2 12 C1.34 12 0.68 12 0 12 C0 8.04 0 4.08 0 0 Z " fill="#887B86" transform="translate(608,126)"/>
<path d="M0 0 C1.65 0 3.3 0 5 0 C5.33 1.65 5.66 3.3 6 5 C4.02 5 2.04 5 0 5 C0 3.35 0 1.7 0 0 Z " fill="#F8F7F1" transform="translate(300,358)"/>
<path d="M0 0 C0.99 0 1.98 0 3 0 C3.33 2.31 3.66 4.62 4 7 C4.66 7 5.32 7 6 7 C6 7.66 6 8.32 6 9 C5.34 9 4.68 9 4 9 C3.67 9.99 3.34 10.98 3 12 C2.01 8.04 1.02 4.08 0 0 Z " fill="#BAB5BF" transform="translate(316,258)"/>
<path d="M0 0 C0.66 0.33 1.32 0.66 2 1 C1.34 3.31 0.68 5.62 0 8 C-1.65 8 -3.3 8 -5 8 C-5.33 9.65 -5.66 11.3 -6 13 C-6.33 13 -6.66 13 -7 13 C-7.04241723 10.66705225 -7.04092937 8.33297433 -7 6 C-6 5 -6 5 -3.4375 4.9375 C-2.2309375 4.9684375 -2.2309375 4.9684375 -1 5 C-0.67 3.35 -0.34 1.7 0 0 Z " fill="#93969E" transform="translate(491,121)"/>
<path d="M0 0 C0.66 1.32 1.32 2.64 2 4 C-0.65654657 7.73884332 -2.58110387 9.64978174 -7 11 C-7.66 10.34 -8.32 9.68 -9 9 C-8.071875 8.62875 -7.14375 8.2575 -6.1875 7.875 C-2.4739697 5.69057041 -1.57312496 3.93281241 0 0 Z " fill="#7AB3FA" transform="translate(655,284)"/>
<path d="M0 0 C0.99 0.33 1.98 0.66 3 1 C1.02 3.31 -0.96 5.62 -3 8 C-3.99 7.34 -4.98 6.68 -6 6 C-5.34 6 -4.68 6 -4 6 C-3.71125 5.38125 -3.4225 4.7625 -3.125 4.125 C-2 2 -2 2 0 0 Z " fill="#825CD1" transform="translate(788,462)"/>
<path d="M0 0 C0.99 0.33 1.98 0.66 3 1 C1.02 3.31 -0.96 5.62 -3 8 C-3.99 7.34 -4.98 6.68 -6 6 C-5.34 6 -4.68 6 -4 6 C-3.71125 5.38125 -3.4225 4.7625 -3.125 4.125 C-2 2 -2 2 0 0 Z " fill="#825CD1" transform="translate(788,367)"/>
<path d="M0 0 C3.625 -0.1875 3.625 -0.1875 7 0 C7 0.33 7 0.66 7 1 C5.02 1.66 3.04 2.32 1 3 C0.67 5.64 0.34 8.28 0 11 C-2 9 -2 9 -2.25 6.0625 C-2 3 -2 3 0 0 Z " fill="#877E89" transform="translate(583,126)"/>
<path d="M0 0 C2 0.66666667 4 1.33333333 6 2 C5.67 2.99 5.34 3.98 5 5 C3.35 4.67 1.7 4.34 0 4 C-0.33 4.66 -0.66 5.32 -1 6 C-1.042721 4.33388095 -1.04063832 2.66617115 -1 1 C-0.67 0.67 -0.34 0.34 0 0 Z " fill="#C2B9FB" transform="translate(773,263)"/>
<path d="M0 0 C3.81684226 1.55500981 6.19195732 4.03595495 9 7 C8.34 7.66 7.68 8.32 7 9 C5.82737096 7.88121617 4.66204862 6.75476949 3.5 5.625 C2.8503125 4.99851562 2.200625 4.37203125 1.53125 3.7265625 C0 2 0 2 0 0 Z " fill="#9689D0" transform="translate(795,459)"/>
<path d="M0 0 C3.81684226 1.55500981 6.19195732 4.03595495 9 7 C8.34 7.66 7.68 8.32 7 9 C5.82737096 7.88121617 4.66204862 6.75476949 3.5 5.625 C2.8503125 4.99851562 2.200625 4.37203125 1.53125 3.7265625 C0 2 0 2 0 0 Z " fill="#9689D0" transform="translate(795,364)"/>
<path d="M0 0 C2.625 0.375 2.625 0.375 5 1 C3.02 1.99 3.02 1.99 1 3 C1 4.98 1 6.96 1 9 C0.01 9 -0.98 9 -2 9 C-2.125 5.625 -2.125 5.625 -2 2 C-1.34 1.34 -0.68 0.68 0 0 Z " fill="#908891" transform="translate(368,126)"/>
<path d="M0 0 C2.95012857 1.36970255 5.5652222 2.82609125 8 5 C8 5.99 8 6.98 8 8 C4.63820226 6.55922954 2.40843732 4.75249979 0 2 C0 1.34 0 0.68 0 0 Z " fill="#8965CA" transform="translate(781,450)"/>
<path d="M0 0 C2.95012857 1.36970255 5.5652222 2.82609125 8 5 C8 5.99 8 6.98 8 8 C4.63820226 6.55922954 2.40843732 4.75249979 0 2 C0 1.34 0 0.68 0 0 Z " fill="#8965CA" transform="translate(781,355)"/>
<path d="M0 0 C0.33 1.32 0.66 2.64 1 4 C3.31 4 5.62 4 8 4 C8 4.33 8 4.66 8 5 C5.69 5 3.38 5 1 5 C0.67 6.32 0.34 7.64 0 9 C-0.66 9 -1.32 9 -2 9 C-1.34 6.03 -0.68 3.06 0 0 Z " fill="#BDB7BF" transform="translate(224,261)"/>
<path d="M0 0 C3.36179774 1.44077046 5.59156268 3.24750021 8 6 C8 6.66 8 7.32 8 8 C4.63820226 6.55922954 2.40843732 4.75249979 0 2 C0 1.34 0 0.68 0 0 Z " fill="#9388C9" transform="translate(783,447)"/>
<path d="M0 0 C3.36179774 1.44077046 5.59156268 3.24750021 8 6 C8 6.66 8 7.32 8 8 C4.63820226 6.55922954 2.40843732 4.75249979 0 2 C0 1.34 0 0.68 0 0 Z " fill="#9388C9" transform="translate(783,352)"/>
<path d="M0 0 C0.66 0 1.32 0 2 0 C2.2475 1.11375 2.495 2.2275 2.75 3.375 C3.61005339 7.04615198 3.61005339 7.04615198 6.125 8.4375 C6.74375 8.623125 7.3625 8.80875 8 9 C5.25913944 9.22223194 3.56036279 9.34781139 1.1875 7.875 C-0.49106106 5.22464043 -0.20450238 3.06753576 0 0 Z " fill="#877F86" transform="translate(516,129)"/>
<path d="M0 0 C1.98 0 3.96 0 6 0 C6.33 0.99 6.66 1.98 7 3 C6.34 3 5.68 3 5 3 C5 2.34 5 1.68 5 1 C4.01 1.33 3.02 1.66 2 2 C2 3.32 2 4.64 2 6 C1.01 5.67 0.02 5.34 -1 5 C-0.67 3.35 -0.34 1.7 0 0 Z " fill="#787E8E" transform="translate(545,126)"/>
<path d="M0 0 C2.64 0 5.28 0 8 0 C8 0.66 8 1.32 8 2 C5.69 2.33 3.38 2.66 1 3 C0.67 2.01 0.34 1.02 0 0 Z " fill="#F4F8FB" transform="translate(306,265)"/>
<path d="M0 0 C0.5625 1.9375 0.5625 1.9375 1 4 C0 5 0 5 -2.5625 5.0625 C-3.7690625 5.0315625 -3.7690625 5.0315625 -5 5 C-5 4.01 -5 3.02 -5 2 C-3.35 1.34 -1.7 0.68 0 0 Z " fill="#EBEDE7" transform="translate(374,136)"/>
<path d="M0 0 C-0.33 1.32 -0.66 2.64 -1 4 C-2.65 4 -4.3 4 -6 4 C-6 3.01 -6 2.02 -6 1 C-3 0 -3 0 0 0 Z " fill="#EAEDE8" transform="translate(321,132)"/>
<path d="M0 0 C1.65 0 3.3 0 5 0 C5.33 0.99 5.66 1.98 6 3 C3.69 3 1.38 3 -1 3 C-0.67 2.01 -0.34 1.02 0 0 Z " fill="#F2F1F1" transform="translate(307,260)"/>
<path d="M0 0 C2.31 0 4.62 0 7 0 C6.67 1.32 6.34 2.64 6 4 C6 3.34 6 2.68 6 2 C3.69 2.33 1.38 2.66 -1 3 C-0.67 2.01 -0.34 1.02 0 0 Z " fill="#B4B0B8" transform="translate(350,258)"/>
<path d="M0 0 C2.31 0 4.62 0 7 0 C6.67 1.32 6.34 2.64 6 4 C6 3.34 6 2.68 6 2 C3.69 2.33 1.38 2.66 -1 3 C-0.67 2.01 -0.34 1.02 0 0 Z " fill="#B4B0B8" transform="translate(273,258)"/>
<path d="M0 0 C0.66 0.33 1.32 0.66 2 1 C1.34 3.31 0.68 5.62 0 8 C-1.9375 7.6875 -1.9375 7.6875 -4 7 C-4.33 6.01 -4.66 5.02 -5 4 C-3.68 4.33 -2.36 4.66 -1 5 C-0.67 3.35 -0.34 1.7 0 0 Z " fill="#C8BDBE" transform="translate(260,253)"/>
<path d="M0 0 C0.33 0 0.66 0 1 0 C1.2475 1.093125 1.495 2.18625 1.75 3.3125 C3.02002851 7.05908409 3.65756352 8.10595266 7 10 C4.625 10.125 4.625 10.125 2 10 C0 8 0 8 -0.1953125 6.0546875 C-0.13020833 4.03645833 -0.06510417 2.01822917 0 0 Z " fill="#7D7A86" transform="translate(645,128)"/>
<path d="M0 0 C0.33 0 0.66 0 1 0 C1.2475 1.093125 1.495 2.18625 1.75 3.3125 C3.02002851 7.05908409 3.65756352 8.10595266 7 10 C4.625 10.125 4.625 10.125 2 10 C0 8 0 8 -0.1953125 6.0546875 C-0.13020833 4.03645833 -0.06510417 2.01822917 0 0 Z " fill="#7D7A86" transform="translate(345,128)"/>
<path d="M0 0 C1.65 0 3.3 0 5 0 C5.33 0.99 5.66 1.98 6 3 C3.69 3 1.38 3 -1 3 C-0.67 2.01 -0.34 1.02 0 0 Z " fill="#E7ECEB" transform="translate(426,128)"/>
<path d="M0 0 C2.95409701 1.37154504 5.44008376 2.98863724 8 5 C3.77471908 5 2.95481492 4.74375671 0 2 C0 1.34 0 0.68 0 0 Z " fill="#75B0FA" transform="translate(202,289)"/>
<path d="M0 0 C2.99324263 1.0975223 3.84610901 1.67682892 5.25 4.625 C5.4975 5.40875 5.745 6.1925 6 7 C5.01 7.495 5.01 7.495 4 8 C0 2.25 0 2.25 0 0 Z " fill="#75B0FA" transform="translate(651,230)"/>
<path d="M0 0 C0.33 0 0.66 0 1 0 C1.268125 1.093125 1.53625 2.18625 1.8125 3.3125 C2.87663739 6.61692663 3.34654664 7.94960422 6 10 C1.125 9.125 1.125 9.125 0 8 C-0.14115161 5.32941149 -0.04247107 2.67567762 0 0 Z " fill="#787886" transform="translate(483,128)"/>
<path d="M0 0 C0.66 0.33 1.32 0.66 2 1 C1.34 2.32 0.68 3.64 0 5 C-2.475 4.01 -2.475 4.01 -5 3 C-5 2.67 -5 2.34 -5 2 C-3.35 2 -1.7 2 0 2 C0 1.34 0 0.68 0 0 Z " fill="#8B6BCD" transform="translate(803,466)"/>
<path d="M0 0 C0.66 0.33 1.32 0.66 2 1 C1.34 2.32 0.68 3.64 0 5 C-2.475 4.01 -2.475 4.01 -5 3 C-5 2.67 -5 2.34 -5 2 C-3.35 2 -1.7 2 0 2 C0 1.34 0 0.68 0 0 Z " fill="#8B6BCD" transform="translate(803,371)"/>
<path d="M0 0 C2.25245881 2.68841859 3.88213958 4.64641875 5 8 C3.0625 7.375 3.0625 7.375 1 6 C0.25 2.875 0.25 2.875 0 0 Z " fill="#424D6A" transform="translate(342,364)"/>
<path d="M0 0 C0.66 0.33 1.32 0.66 2 1 C2.625 3.5625 2.625 3.5625 3 6 C1.68 6 0.36 6 -1 6 C-0.67 4.02 -0.34 2.04 0 0 Z " fill="#F3F5F2" transform="translate(228,257)"/>
<path d="M0 0 C0 0.66 0 1.32 0 2 C-1.98 2 -3.96 2 -6 2 C-6.33 1.34 -6.66 0.68 -7 0 C-4.3333581 -1.33332095 -2.83319697 -0.67102033 0 0 Z " fill="#ECEAE8" transform="translate(551,134)"/>
<path d="M0 0 C-0.33 1.32 -0.66 2.64 -1 4 C-2.32 4 -3.64 4 -5 4 C-5 3.01 -5 2.02 -5 1 C-3 0 -3 0 0 0 Z " fill="#EEF2F2" transform="translate(464,132)"/>
<path d="M0 0 C2.31 0 4.62 0 7 0 C7.33 0.66 7.66 1.32 8 2 C7.34 2.66 6.68 3.32 6 4 C5.67 3.34 5.34 2.68 5 2 C3.02 2.33 1.04 2.66 -1 3 C-0.67 2.01 -0.34 1.02 0 0 Z " fill="#888289" transform="translate(381,126)"/>
</svg>
